<svg width="8" height="15" viewBox="0 0 8 15" fill="none" xmlns="http://www.w3.org/2000/svg">
<path d="M6.33846 14.493C6.18907 14.4935 6.04146 14.4605 5.90648 14.3965C5.7715 14.3324 5.65258 14.239 5.55846 14.123L0.728465 8.12295C0.581383 7.94402 0.500977 7.71958 0.500977 7.48795C0.500977 7.25633 0.581383 7.03188 0.728465 6.85295L5.72846 0.852952C5.8982 0.648735 6.14211 0.52031 6.40654 0.495931C6.67097 0.471551 6.93425 0.553213 7.13846 0.722951C7.34268 0.89269 7.47111 1.1366 7.49548 1.40103C7.51986 1.66545 7.4382 1.92873 7.26846 2.13295L2.79846 7.49295L7.11846 12.853C7.24075 12.9997 7.31842 13.1785 7.3423 13.368C7.36618 13.5576 7.33527 13.75 7.25321 13.9225C7.17115 14.0951 7.04139 14.2405 6.87928 14.3416C6.71717 14.4426 6.5295 14.4952 6.33846 14.493Z" fill="#3993D6"/>
</svg>
