<svg width="128" height="128" viewBox="0 0 128 128" fill="none" xmlns="http://www.w3.org/2000/svg">
<circle cx="64" cy="64" r="64" fill="#F1F1F1"/>
<g clip-path="url(#clip0)">
<path d="M64.0074 19C49.4359 19 37.5244 30.9115 37.5244 45.483C37.5244 60.0546 49.4359 71.9661 64.0074 71.9661C78.579 71.9661 90.4905 60.0546 90.4905 45.483C90.4905 30.9115 78.579 19 64.0074 19Z" fill="#DFDFDF"/>
<path d="M109.456 93.1291C108.762 91.3944 107.837 89.7754 106.796 88.2719C101.476 80.4079 93.2656 75.2039 84.0138 73.9317C82.8575 73.8162 81.5854 74.0473 80.6601 74.7412C75.8029 78.3263 70.0207 80.1766 64.007 80.1766C57.9932 80.1766 52.211 78.3263 47.3538 74.7412C46.4286 74.0473 45.1565 73.7004 44.0001 73.9317C34.7484 75.2039 26.4219 80.4079 21.2179 88.2719C20.1771 89.7754 19.2518 91.5101 18.5581 93.1291C18.2112 93.8231 18.3268 94.6325 18.6736 95.3265C19.5989 96.9455 20.7553 98.5647 21.7961 99.9523C23.415 102.15 25.1498 104.116 27.1159 105.966C28.7349 107.585 30.5852 109.088 32.4357 110.592C41.5716 117.415 52.5581 121 63.8914 121C75.2248 121 86.2112 117.415 95.3472 110.592C97.1975 109.204 99.0478 107.585 100.667 105.966C102.517 104.116 104.368 102.15 105.987 99.9523C107.143 98.4489 108.184 96.9455 109.109 95.3265C109.687 94.6325 109.803 93.8228 109.456 93.1291Z" fill="#DFDFDF"/>
</g>
<defs>
<clipPath id="clip0">
<rect width="102" height="102" fill="white" transform="translate(13 19)"/>
</clipPath>
</defs>
</svg>
