<?xml version="1.0" encoding="UTF-8"?>
<!DOCTYPE svg PUBLIC "-//W3C//DTD SVG 1.1//EN" "http://www.w3.org/Graphics/SVG/1.1/DTD/svg11.dtd">
<!-- Creator: CorelDRAW 2019 (64-Bit) -->
<svg xmlns="http://www.w3.org/2000/svg" xml:space="preserve" width="375px" height="723px" version="1.1" style="shape-rendering:geometricPrecision; text-rendering:geometricPrecision; image-rendering:optimizeQuality; fill-rule:evenodd; clip-rule:evenodd"
viewBox="0 0 375 723"
 xmlns:xlink="http://www.w3.org/1999/xlink">
 <defs>
  <style type="text/css">
   <![CDATA[
    .fil0 {fill:#023374}
    .fil1 {fill:#045CB3}
   ]]>
  </style>
 </defs>
 <g id="Layer_x0020_1">
  <metadata id="CorelCorpID_0Corel-Layer"/>
  <rect class="fil0" x="-0.5" y="0.5" width="375" height="723"/>
  <path class="fil1" d="M42.5 291.5c-14.99,0 -29.43,2.33 -43,6.63l0 270.73c13.57,4.31 28.01,6.64 43,6.64 78.42,0 142,-63.58 142,-142 0,-78.43 -63.58,-142 -142,-142z"/>
  <path class="fil1" d="M305 176.5c-60.47,0 -109.5,-49.03 -109.5,-109.5 0,-25.01 8.39,-48.06 22.51,-66.5l156.49 0 0 151.12c-18.91,15.54 -43.11,24.88 -69.5,24.88z"/>
  <path class="fil1" d="M334.5 630.5c-61.2,0 -113.36,38.72 -133.32,93l173.32 0 0 -87.28c-12.69,-3.72 -26.11,-5.72 -40,-5.72z"/>
 </g>
</svg>
