<?xml version="1.0" encoding="UTF-8"?>
<!DOCTYPE svg PUBLIC "-//W3C//DTD SVG 1.1//EN" "http://www.w3.org/Graphics/SVG/1.1/DTD/svg11.dtd">
<!-- Creator: CorelDRAW 2019 (64-Bit) -->
<svg xmlns="http://www.w3.org/2000/svg" xml:space="preserve" width="30px" height="30px" version="1.1" style="shape-rendering:geometricPrecision; text-rendering:geometricPrecision; image-rendering:optimizeQuality; fill-rule:evenodd; clip-rule:evenodd"
viewBox="0 0 30 30"
 xmlns:xlink="http://www.w3.org/1999/xlink">
 <defs>
  <style type="text/css">
   <![CDATA[
    .fil0 {fill:#123270}
    .fil1 {fill:#265AAD;fill-rule:nonzero}
   ]]>
  </style>
 </defs>
 <g id="Layer_x0020_1">
  <metadata id="CorelCorpID_0Corel-Layer"/>
  <g id="_2653999090160">
   <path class="fil0" d="M15.2 20.66l7.72 -0.01c-0.05,-0.34 -0.75,-1.64 -0.99,-2.27 -0.36,-0.91 -0.46,-1.46 -0.7,-2.51 -0.43,-1.93 -0.37,-4.86 -0.54,-5.89 -0.27,-1.66 -1.62,-3.23 -2.6,-3.84 -1.15,-0.71 -2.13,-0.83 -2.89,-0.83 -0.75,0 -1.73,0.12 -2.88,0.83 -0.99,0.61 -2.34,2.18 -2.61,3.84 -0.17,1.03 -0.1,3.96 -0.54,5.89 -0.23,1.05 -0.34,1.6 -0.69,2.51 -0.24,0.63 -0.94,1.93 -0.99,2.27l7.71 0.01zm-0.01 -16.9c0.4,-0.01 0.85,0.05 1.42,0.16 2.64,0.55 5.1,3 5.58,5.88 0.41,2.48 -0.17,7.73 2.66,10.74 0.44,0.46 0.73,0.42 0.49,1.4 -0.51,0.28 -5.86,0.28 -10.14,0.25 -4.28,0.03 -9.63,0.03 -10.14,-0.25 -0.23,-0.98 0.06,-0.94 0.49,-1.4 2.84,-3.01 2.26,-8.26 2.66,-10.74 0.48,-2.88 2.95,-5.33 5.58,-5.88 0.58,-0.11 1.01,-0.17 1.4,-0.16z"/>
   <path class="fil0" d="M13.02 23.97c-1.73,1.01 2.1,4 4.33,1.38 0.41,-0.47 0.46,-1.16 -0.12,-1.42 -0.58,-0.26 -0.96,0.42 -1.33,0.71 -1.47,1.18 -1.93,-1.21 -2.88,-0.67z"/>
   <path class="fil1" d="M15.2 0.08c4.14,0 7.89,1.68 10.61,4.39 2.71,2.72 4.39,6.47 4.39,10.61 0,4.14 -1.68,7.89 -4.39,10.61 -2.72,2.71 -6.47,4.39 -10.61,4.39 -4.14,0 -7.89,-1.68 -10.6,-4.39 -2.72,-2.72 -4.4,-6.47 -4.4,-10.61 0,-4.14 1.68,-7.89 4.4,-10.61 2.71,-2.71 6.46,-4.39 10.6,-4.39zm10.06 4.94c-2.57,-2.58 -6.13,-4.17 -10.06,-4.17 -3.93,0 -7.48,1.59 -10.06,4.17 -2.57,2.57 -4.16,6.13 -4.16,10.06 0,3.93 1.59,7.48 4.16,10.06 2.58,2.57 6.13,4.17 10.06,4.17 3.93,0 7.49,-1.6 10.06,-4.17 2.58,-2.58 4.17,-6.13 4.17,-10.06 0,-3.93 -1.59,-7.49 -4.17,-10.06z"/>
  </g>
 </g>
</svg>
