<svg width="24" height="27" viewBox="0 0 24 27" fill="none" xmlns="http://www.w3.org/2000/svg">
<path d="M19.4002 12.3657C20.1022 18.8605 22.8633 20.8241 22.8633 20.8241H1.11328C1.11328 20.8241 4.73828 18.2467 4.73828 9.22406C4.73828 7.17351 5.50195 5.20635 6.86132 3.75635C8.22191 2.30635 10.067 1.49072 11.9883 1.49072C12.3955 1.49072 12.8003 1.52697 13.1966 1.59947" stroke="#3993D6" stroke-width="1.8125" stroke-linecap="round" stroke-linejoin="round"/>
<path d="M14.0783 24.4492C13.8661 24.8157 13.5613 25.12 13.1944 25.3316C12.8275 25.5431 12.4114 25.6545 11.9879 25.6545C11.5644 25.6545 11.1483 25.5431 10.7814 25.3316C10.4145 25.12 10.1097 24.8157 9.89746 24.4492" stroke="#3993D6" stroke-width="1.8125" stroke-linecap="round" stroke-linejoin="round"/>
<path d="M18.4883 11.0742C19.8144 11.0742 21.0861 10.5474 22.0238 9.60975C22.9615 8.67207 23.4883 7.4003 23.4883 6.07422C23.4883 4.74814 22.9615 3.47637 22.0238 2.53868C21.0861 1.601 19.8144 1.07422 18.4883 1.07422C17.1622 1.07422 15.8904 1.601 14.9527 2.53868C14.0151 3.47637 13.4883 4.74814 13.4883 6.07422C13.4883 7.4003 14.0151 8.67207 14.9527 9.60975C15.8904 10.5474 17.1622 11.0742 18.4883 11.0742Z" fill="#C90808"/>
</svg>
