<svg width="24" height="27" viewBox="0 0 24 27" fill="none" xmlns="http://www.w3.org/2000/svg">
<path d="M22.9393 21.7343H1.23926C0.839258 21.7343 0.539258 21.4343 0.339258 21.1343C0.239258 20.7343 0.339258 20.3343 0.639258 20.1343C0.639258 20.1343 3.83926 17.6343 3.83926 9.23432C3.83926 6.93432 4.63926 4.73432 6.23926 3.13432C8.03926 1.13432 10.8393 0.234321 13.4393 0.734321C16.0393 1.13432 20.8393 4.03432 20.4393 12.3343C21.1393 18.2343 23.5393 20.0343 23.5393 20.1343C23.8393 20.3343 23.9393 20.7343 23.8393 21.1343C23.7393 21.5343 23.3393 21.7343 22.9393 21.7343ZM3.13926 19.9343H20.9393C20.0393 18.5343 18.9393 16.2343 18.5393 12.4343V12.3343C18.9393 5.23432 15.1393 2.83432 13.1393 2.53432C12.7393 2.43432 12.4393 2.43432 12.0393 2.43432C10.3393 2.43432 8.73926 3.13432 7.53926 4.43432C6.43926 5.63432 5.73926 7.43432 5.73926 9.23432C5.73926 14.9343 4.33926 18.1343 3.13926 19.9343Z" fill="#3993D6"/>
<path d="M12.0396 26.5343C11.4396 26.5343 10.8396 26.3343 10.3396 26.1343C9.83956 25.8343 9.43956 25.4343 9.13956 24.9343C8.83956 24.5343 9.03956 23.9343 9.43956 23.7343C9.83956 23.4343 10.4396 23.6343 10.6396 24.0343C10.7396 24.2343 10.9396 24.4343 11.2396 24.6343C11.7396 24.9343 12.3396 24.9343 12.7396 24.6343C12.9396 24.5343 13.1396 24.3343 13.3396 24.0343C13.6396 23.6343 14.1396 23.4343 14.5396 23.7343C14.9396 24.0343 15.1396 24.5343 14.8396 24.9343C14.5396 25.4343 14.1396 25.8343 13.6396 26.1343C13.2396 26.4343 12.6396 26.5343 12.0396 26.5343Z" fill="#3993D6"/>
</svg>
