<svg width="24" height="27" viewBox="0 0 24 27" fill="none" xmlns="http://www.w3.org/2000/svg">
<path d="M19.4002 12.167C20.1022 18.6618 22.8633 20.6253 22.8633 20.6253H1.11328C1.11328 20.6253 4.73828 18.048 4.73828 9.02533C4.73828 6.97478 5.50195 5.00762 6.86132 3.55762C8.22191 2.10762 10.067 1.29199 11.9883 1.29199C12.3955 1.29199 12.8003 1.32824 13.1966 1.40074" stroke="#023374" stroke-width="1.8125" stroke-linecap="round" stroke-linejoin="round"/>
<path d="M14.0783 24.2505C13.8661 24.617 13.5613 24.9213 13.1944 25.1328C12.8275 25.3444 12.4114 25.4557 11.9879 25.4557C11.5644 25.4557 11.1483 25.3444 10.7814 25.1328C10.4145 24.9213 10.1097 24.617 9.89746 24.2505" stroke="#023374" stroke-width="1.8125" stroke-linecap="round" stroke-linejoin="round"/>
<path d="M18.4883 10.8755C19.8144 10.8755 21.0861 10.3487 22.0238 9.41102C22.9615 8.47334 23.4883 7.20157 23.4883 5.87549C23.4883 4.54941 22.9615 3.27764 22.0238 2.33995C21.0861 1.40227 19.8144 0.875488 18.4883 0.875488C17.1622 0.875488 15.8904 1.40227 14.9527 2.33995C14.0151 3.27764 13.4883 4.54941 13.4883 5.87549C13.4883 7.20157 14.0151 8.47334 14.9527 9.41102C15.8904 10.3487 17.1622 10.8755 18.4883 10.8755Z" fill="#C90808"/>
</svg>
