<svg width="25" height="27" viewBox="0 0 25 27" fill="none" xmlns="http://www.w3.org/2000/svg">
<path d="M23.6346 21.9257H1.93457C1.53457 21.9257 1.23457 21.6257 1.03457 21.3257C0.93457 20.9257 1.03457 20.5257 1.33457 20.3257C1.33457 20.3257 4.53457 17.8257 4.53457 9.42573C4.53457 7.12573 5.33457 4.92573 6.93457 3.32573C8.73457 1.32573 11.5346 0.425727 14.1346 0.925727C16.7346 1.32573 21.5346 4.22573 21.1346 12.5257C21.8346 18.4257 24.2346 20.2257 24.2346 20.3257C24.5346 20.5257 24.6346 20.9257 24.5346 21.3257C24.4346 21.7257 24.0346 21.9257 23.6346 21.9257ZM3.83457 20.1257H21.6346C20.7346 18.7257 19.6346 16.4257 19.2346 12.6257V12.5257C19.6346 5.42573 15.8346 3.02573 13.8346 2.72573C13.4346 2.62573 13.1346 2.62573 12.7346 2.62573C11.0346 2.62573 9.43457 3.32573 8.23457 4.62573C7.13457 5.82573 6.43457 7.62573 6.43457 9.42573C6.43457 15.1257 5.03457 18.3257 3.83457 20.1257Z" fill="#023374"/>
<path d="M12.7349 26.7257C12.1349 26.7257 11.5349 26.5257 11.0349 26.3257C10.5349 26.0257 10.1349 25.6257 9.83487 25.1257C9.53487 24.7257 9.73487 24.1257 10.1349 23.9257C10.5349 23.6257 11.1349 23.8257 11.3349 24.2257C11.4349 24.4257 11.6349 24.6257 11.9349 24.8257C12.4349 25.1257 13.0349 25.1257 13.4349 24.8257C13.6349 24.7257 13.8349 24.5257 14.0349 24.2257C14.3349 23.8257 14.8349 23.6257 15.2349 23.9257C15.6349 24.2257 15.8349 24.7257 15.5349 25.1257C15.2349 25.6257 14.8349 26.0257 14.3349 26.3257C13.9349 26.6257 13.3349 26.7257 12.7349 26.7257Z" fill="#023374"/>
</svg>
