<svg width="22" height="23" viewBox="0 0 22 23" fill="none" xmlns="http://www.w3.org/2000/svg">
<g filter="url(#filter0_d)">
<path d="M3.92754 18.1C3.92754 19.1478 4.79204 20 5.85507 20H15.4928C16.5558 20 17.4203 19.1478 17.4203 18.1V6.7H19.3478V4.8H15.4928V2.9C15.4928 1.85215 14.6283 1 13.5652 1H7.78261C6.71957 1 5.85507 1.85215 5.85507 2.9V4.8H2V6.7H3.92754V18.1ZM7.78261 2.9H13.5652V4.8H7.78261V2.9ZM6.81884 6.7H15.4928L15.4937 18.1H5.85507V6.7H6.81884Z" fill="#FF6565"/>
</g>
<g filter="url(#filter1_d)">
<path d="M7.78259 8.43481H9.71013V15.8696H7.78259V8.43481ZM11.6377 8.43481H13.5652V15.8696H11.6377V8.43481Z" fill="#FF6565"/>
</g>
<defs>
<filter id="filter0_d" x="0" y="0" width="21.3478" height="23" filterUnits="userSpaceOnUse" color-interpolation-filters="sRGB">
<feFlood flood-opacity="0" result="BackgroundImageFix"/>
<feColorMatrix in="SourceAlpha" type="matrix" values="0 0 0 0 0 0 0 0 0 0 0 0 0 0 0 0 0 0 127 0" result="hardAlpha"/>
<feOffset dy="1"/>
<feGaussianBlur stdDeviation="1"/>
<feComposite in2="hardAlpha" operator="out"/>
<feColorMatrix type="matrix" values="0 0 0 0 0 0 0 0 0 0 0 0 0 0 0 0 0 0 0.25 0"/>
<feBlend mode="normal" in2="BackgroundImageFix" result="effect1_dropShadow"/>
<feBlend mode="normal" in="SourceGraphic" in2="effect1_dropShadow" result="shape"/>
</filter>
<filter id="filter1_d" x="5.78259" y="7.43481" width="9.78261" height="11.4348" filterUnits="userSpaceOnUse" color-interpolation-filters="sRGB">
<feFlood flood-opacity="0" result="BackgroundImageFix"/>
<feColorMatrix in="SourceAlpha" type="matrix" values="0 0 0 0 0 0 0 0 0 0 0 0 0 0 0 0 0 0 127 0" result="hardAlpha"/>
<feOffset dy="1"/>
<feGaussianBlur stdDeviation="1"/>
<feComposite in2="hardAlpha" operator="out"/>
<feColorMatrix type="matrix" values="0 0 0 0 0 0 0 0 0 0 0 0 0 0 0 0 0 0 0.25 0"/>
<feBlend mode="normal" in2="BackgroundImageFix" result="effect1_dropShadow"/>
<feBlend mode="normal" in="SourceGraphic" in2="effect1_dropShadow" result="shape"/>
</filter>
</defs>
</svg>
