<svg width="32" height="23" viewBox="0 0 32 23" fill="none" xmlns="http://www.w3.org/2000/svg">
<path d="M31.6667 20.5913C31.6667 21.4621 30.9605 22.1667 30.0913 22.1667H17.4088C16.9909 22.1667 16.5902 22.0007 16.2948 21.7052C15.9993 21.4098 15.8333 21.0091 15.8333 20.5913C15.8333 20.1734 15.9993 19.7727 16.2948 19.4773C16.5902 19.1818 16.9909 19.0158 17.4088 19.0158H30.0913C30.9621 19.0158 31.6667 19.7204 31.6667 20.5913V20.5913Z" fill="white"/>
<path d="M31.6667 11.0833C31.6667 11.9542 30.9605 12.6588 30.0913 12.6588H1.57542C1.15759 12.6588 0.756877 12.4928 0.461429 12.1973C0.165981 11.9019 0 11.5012 0 11.0833C0 10.6655 0.165981 10.2648 0.461429 9.96935C0.756877 9.6739 1.15759 9.50792 1.57542 9.50792H30.0913C30.9621 9.50792 31.6667 10.2141 31.6667 11.0833V11.0833Z" fill="white"/>
<path d="M30.0912 3.15083C30.5091 3.15083 30.9098 2.98485 31.2052 2.6894C31.5007 2.39396 31.6667 1.99324 31.6667 1.57542C31.6667 1.15759 31.5007 0.756876 31.2052 0.461429C30.9098 0.165981 30.5091 1.24522e-08 30.0912 0H11.0754C10.8685 -6.1657e-09 10.6637 0.0407493 10.4725 0.119921C10.2814 0.199094 10.1077 0.315138 9.96143 0.461429C9.81514 0.607719 9.69909 0.781393 9.61992 0.972531C9.54075 1.16367 9.5 1.36853 9.5 1.57542C9.5 1.7823 9.54075 1.98716 9.61992 2.1783C9.69909 2.36944 9.81514 2.54311 9.96143 2.6894C10.1077 2.8357 10.2814 2.95174 10.4725 3.03091C10.6637 3.11008 10.8685 3.15083 11.0754 3.15083H30.0912Z" fill="white"/>
</svg>
