<svg width="44" height="40" viewBox="0 0 44 40" fill="none" xmlns="http://www.w3.org/2000/svg">
<path d="M39.5 30C39.5 30.663 39.2366 31.2989 38.7678 31.7678C38.2989 32.2366 37.663 32.5 37 32.5H7C6.33696 32.5 5.70107 32.2366 5.23223 31.7678C4.76339 31.2989 4.5 30.663 4.5 30V15C4.5 14.337 4.76339 13.7011 5.23223 13.2322C5.70107 12.7634 6.33696 12.5 7 12.5H9.93C11.9181 12.4989 13.8244 11.7085 15.23 10.3025L17.305 8.2325C17.7725 7.76485 18.4062 7.50147 19.0675 7.5H24.9275C25.5905 7.50014 26.2263 7.76363 26.695 8.2325L28.765 10.3025C29.4616 10.9993 30.2886 11.552 31.1989 11.9291C32.1091 12.3061 33.0847 12.5001 34.07 12.5H37C37.663 12.5 38.2989 12.7634 38.7678 13.2322C39.2366 13.7011 39.5 14.337 39.5 15V30ZM7 10C5.67392 10 4.40215 10.5268 3.46447 11.4645C2.52678 12.4021 2 13.6739 2 15L2 30C2 31.3261 2.52678 32.5979 3.46447 33.5355C4.40215 34.4732 5.67392 35 7 35H37C38.3261 35 39.5979 34.4732 40.5355 33.5355C41.4732 32.5979 42 31.3261 42 30V15C42 13.6739 41.4732 12.4021 40.5355 11.4645C39.5979 10.5268 38.3261 10 37 10H34.07C32.744 9.99972 31.4725 9.47275 30.535 8.535L28.465 6.465C27.5275 5.52725 26.256 5.00028 24.93 5H19.07C17.744 5.00028 16.4725 5.52725 15.535 6.465L13.465 8.535C12.5275 9.47275 11.256 9.99972 9.93 10H7Z" fill="white"/>
<path d="M9.5 16.25C9.5 16.5815 9.3683 16.8995 9.13388 17.1339C8.89946 17.3683 8.58152 17.5 8.25 17.5C7.91848 17.5 7.60054 17.3683 7.36612 17.1339C7.1317 16.8995 7 16.5815 7 16.25C7 15.9185 7.1317 15.6005 7.36612 15.3661C7.60054 15.1317 7.91848 15 8.25 15C8.58152 15 8.89946 15.1317 9.13388 15.3661C9.3683 15.6005 9.5 15.9185 9.5 16.25Z" fill="white"/>
<path d="M22 16.5C22.1492 16.5 22.2923 16.5593 22.3977 16.6648C22.5032 16.7702 22.5625 16.9133 22.5625 17.0625V20.4375H25.9375C26.0867 20.4375 26.2298 20.4968 26.3352 20.6023C26.4407 20.7077 26.5 20.8508 26.5 21C26.5 21.1492 26.4407 21.2923 26.3352 21.3977C26.2298 21.5032 26.0867 21.5625 25.9375 21.5625H22.5625V24.9375C22.5625 25.0867 22.5032 25.2298 22.3977 25.3352C22.2923 25.4407 22.1492 25.5 22 25.5C21.8508 25.5 21.7077 25.4407 21.6023 25.3352C21.4968 25.2298 21.4375 25.0867 21.4375 24.9375V21.5625H18.0625C17.9133 21.5625 17.7702 21.5032 17.6648 21.3977C17.5593 21.2923 17.5 21.1492 17.5 21C17.5 20.8508 17.5593 20.7077 17.6648 20.6023C17.7702 20.4968 17.9133 20.4375 18.0625 20.4375H21.4375V17.0625C21.4375 16.9133 21.4968 16.7702 21.6023 16.6648C21.7077 16.5593 21.8508 16.5 22 16.5Z" fill="white"/>
<circle cx="22" cy="21" r="8" stroke="white" stroke-width="2"/>
</svg>
