<svg width="15" height="15" viewBox="0 0 15 15" fill="none" xmlns="http://www.w3.org/2000/svg">
<path d="M7.5 15C11.6353 15 15 11.6356 15 7.5C15 6.78619 14.9004 6.08276 14.7031 5.40909C14.6059 5.07782 14.2599 4.88754 13.9278 4.98474C13.5962 5.08163 13.4065 5.42877 13.5034 5.76004C13.6668 6.31973 13.75 6.90536 13.75 7.5C13.75 10.9462 10.9462 13.75 7.5 13.75C4.0538 13.75 1.25 10.9462 1.25 7.5C1.25 4.0538 4.0538 1.25 7.5 1.25C8.75244 1.25 9.95743 1.61621 10.9846 2.30881C11.2706 2.50183 11.6594 2.42599 11.8521 2.14005C12.045 1.85379 11.9698 1.4653 11.6835 1.27243C10.4491 0.440063 9.00253 0 7.5 0C3.36472 0 0 3.36441 0 7.5C0 11.6356 3.36472 15 7.5 15Z" fill="#00BA31"/>
<path d="M13.933 1.43299L7.49989 7.86579L5.44178 5.80799C5.19764 5.564 4.80213 5.564 4.55799 5.80799C4.314 6.05213 4.314 6.44764 4.55799 6.69178L7.05799 9.19178C7.18021 9.314 7.33982 9.37489 7.49989 9.37489C7.65995 9.37489 7.81956 9.314 7.94178 9.19178L14.8168 2.31678C15.0608 2.07264 15.0608 1.67713 14.8168 1.43299C14.5726 1.189 14.1771 1.189 13.933 1.43299Z" fill="#00BA31"/>
</svg>
