<svg width="9" height="8" viewBox="0 0 9 8" fill="none" xmlns="http://www.w3.org/2000/svg">
<path d="M6.96985 0.969792C6.96273 0.976696 6.95605 0.984044 6.94985 0.991792L3.47685 5.41679L1.38385 3.32279C1.24168 3.19031 1.05363 3.11819 0.859328 3.12162C0.665027 3.12505 0.479641 3.20376 0.342228 3.34117C0.204815 3.47858 0.126104 3.66397 0.122675 3.85827C0.119247 4.05257 0.19137 4.24062 0.32385 4.38279L2.96985 7.02979C3.04113 7.10094 3.12601 7.15701 3.21943 7.19465C3.31285 7.23228 3.4129 7.25072 3.5136 7.24885C3.61429 7.24698 3.71359 7.22485 3.80555 7.18378C3.89751 7.14271 3.98025 7.08354 4.04885 7.00979L8.04085 2.01979C8.17678 1.87712 8.2511 1.68669 8.24774 1.48966C8.24438 1.29263 8.16362 1.10484 8.0229 0.966887C7.88219 0.828933 7.69284 0.751901 7.49578 0.752444C7.29873 0.752988 7.1098 0.831064 6.96985 0.969792Z" fill="#104E5B"/>
</svg>
