<svg width="29" height="27" viewBox="0 0 29 27" fill="none" xmlns="http://www.w3.org/2000/svg">
<path d="M22.5328 5.15565C22.5328 3.23749 21.2776 0.194336 17.9094 0.194336C16.5255 0.194336 15.3615 0.846748 14.4393 2.13636C13.5171 0.846748 12.3529 0.194336 10.9691 0.194336C7.60086 0.194336 6.3457 3.23749 6.3457 5.15565C6.3457 8.4628 8.9268 10.5315 12.4529 13.5467C12.971 13.9897 13.5068 14.4478 14.078 14.9434C14.1817 15.0333 14.3104 15.0783 14.4393 15.0783C14.5681 15.0783 14.6969 15.0333 14.8005 14.9434C15.3717 14.4478 15.9075 13.9897 16.4256 13.5467C20.1171 10.39 22.5328 8.3929 22.5328 5.15565V5.15565ZM14.4393 13.798C13.9987 13.4179 13.5786 13.0586 13.1694 12.7087C9.48031 9.55423 7.44822 7.81656 7.44822 5.15565C7.44822 3.35067 8.62906 1.29685 10.9691 1.29685C12.1903 1.29685 13.1672 1.99805 13.9556 3.44047C14.0522 3.61731 14.2377 3.72734 14.4393 3.72734C14.6408 3.72734 14.8263 3.61731 14.9229 3.44047C15.7113 1.99805 16.6882 1.29685 17.9094 1.29685C20.2168 1.29685 21.4303 3.32018 21.4303 5.15565C21.4303 7.81656 19.3982 9.55423 15.7091 12.7087C15.2999 13.0586 14.8798 13.4179 14.4393 13.798V13.798Z" fill="#3993D6"/>
<path d="M4.28837 21.81L6.94223 23.1367V26.1035C6.94223 26.4079 7.18908 26.6548 7.49349 26.6548H13.3368C13.6412 26.6548 13.8881 26.4079 13.8881 26.1035V18.9069C13.8881 17.2179 12.6211 15.8174 10.9452 15.6493L10.9001 15.6445C9.93004 15.5472 8.21243 14.8837 7.53422 14.2056L6.29621 12.9681C5.87963 12.5515 5.326 12.3221 4.7372 12.3221V7.91206C4.7372 6.69621 3.74803 5.70703 2.53218 5.70703C1.31632 5.70703 0.327148 6.69621 0.327148 7.91206V15.4003C0.327148 18.1133 1.85953 20.5953 4.28837 21.81ZM1.42966 7.91206C1.42966 7.30413 1.92425 6.80954 2.53218 6.80954C3.1401 6.80954 3.63469 7.30413 3.63469 7.91206V12.6176C2.96238 13.0064 2.53218 13.7312 2.53218 14.5271C2.53218 15.1159 2.76161 15.6696 3.17819 16.0861L6.00118 18.9096C6.21639 19.1249 6.56544 19.1249 6.78077 18.9097C6.99603 18.6945 6.99609 18.3454 6.78082 18.1301L3.95784 15.3065C3.74941 15.0982 3.63469 14.8214 3.63469 14.5271C3.63469 14.0606 3.93 13.6427 4.36962 13.4874C4.36968 13.4874 4.36979 13.4874 4.36984 13.4873C4.36995 13.4872 4.37012 13.4872 4.37023 13.4872C4.75049 13.3522 5.20153 13.4326 5.51668 13.7478L6.75469 14.9853C8.03283 16.2635 10.8253 16.7444 10.8309 16.7459C11.9452 16.8576 12.7855 17.7867 12.7855 18.9069V25.5523H8.04469V22.796C8.04469 22.5872 7.92666 22.3963 7.73995 22.3029L4.78141 20.8239C2.71403 19.7899 1.42966 17.7117 1.42966 15.4003V7.91206Z" fill="#3993D6"/>
<path d="M25.6294 21.0317C25.9338 21.0317 26.1806 20.7849 26.1806 20.4805C26.1806 20.176 25.9338 19.9292 25.6294 19.9292C25.3249 19.9292 25.0781 20.176 25.0781 20.4805C25.0781 20.7849 25.3249 21.0317 25.6294 21.0317Z" fill="#3993D6"/>
<path d="M26.3461 5.70703C25.1303 5.70703 24.1411 6.69621 24.1411 7.91206V12.3221C23.5523 12.3221 22.9987 12.5515 22.5822 12.9681L21.344 14.2057C20.6659 14.8838 18.9483 15.5473 17.9739 15.6449L17.9374 15.6489C16.2572 15.8174 14.9902 17.218 14.9902 18.9069V26.1035C14.9902 26.4079 15.2371 26.6548 15.5415 26.6548H21.3848C21.6892 26.6548 21.9361 26.4079 21.9361 26.1035V23.1367L23.7403 22.2348C24.0126 22.0986 24.123 21.7675 23.9869 21.4952C23.8507 21.2229 23.5196 21.1124 23.2473 21.2486L21.1383 22.3029C20.9516 22.3963 20.8336 22.5872 20.8336 22.796V25.5523H16.0927V18.9069C16.0927 17.7867 16.933 16.8576 18.0516 16.7455L18.0881 16.7415C19.2839 16.6216 21.2637 15.8451 22.1234 14.9854L23.3617 13.7478C23.6777 13.4316 24.1296 13.353 24.508 13.4872C24.5081 13.4872 24.5083 13.4872 24.5084 13.4873C24.5085 13.4873 24.5086 13.4874 24.5086 13.4874C24.9483 13.6427 25.2436 14.0606 25.2436 14.5271C25.2436 14.8214 25.1289 15.0982 24.9205 15.3066L22.0975 18.1302C21.8823 18.3454 21.8823 18.6945 22.0976 18.9097C22.3127 19.125 22.6619 19.125 22.8772 18.9097L25.7002 16.0862C26.1167 15.6696 26.3461 15.1159 26.3461 14.5271C26.3461 13.7312 25.9159 13.0064 25.2436 12.6176V7.91206C25.2436 7.30413 25.7382 6.80954 26.3461 6.80954C26.954 6.80954 27.4486 7.30413 27.4486 7.91206V15.4003C27.4486 16.4089 27.1941 17.4102 26.7125 18.296C26.5671 18.5635 26.666 18.8982 26.9335 19.0436C27.201 19.189 27.5358 19.0902 27.6812 18.8226C28.2503 17.7757 28.5511 16.5923 28.5511 15.4003V7.91206C28.5511 6.69621 27.562 5.70703 26.3461 5.70703V5.70703Z" fill="#3993D6"/>
</svg>
