<svg width="29" height="28" viewBox="0 0 29 28" fill="none" xmlns="http://www.w3.org/2000/svg">
<path d="M22.5328 5.80213C22.5328 3.88398 21.2776 0.84082 17.9094 0.84082C16.5255 0.84082 15.3615 1.49323 14.4393 2.78284C13.5171 1.49323 12.3529 0.84082 10.9691 0.84082C7.60086 0.84082 6.3457 3.88398 6.3457 5.80213C6.3457 9.10928 8.9268 11.178 12.4529 14.1932C12.971 14.6362 13.5068 15.0943 14.078 15.5899C14.1817 15.6798 14.3104 15.7247 14.4393 15.7247C14.5681 15.7247 14.6969 15.6798 14.8005 15.5899C15.3717 15.0943 15.9075 14.6362 16.4256 14.1932C20.1171 11.0365 22.5328 9.03938 22.5328 5.80213V5.80213ZM14.4393 14.4445C13.9987 14.0644 13.5786 13.7051 13.1694 13.3552C9.48031 10.2007 7.44822 8.46305 7.44822 5.80213C7.44822 3.99715 8.62906 1.94333 10.9691 1.94333C12.1903 1.94333 13.1672 2.64453 13.9556 4.08695C14.0522 4.26379 14.2377 4.37382 14.4393 4.37382C14.6408 4.37382 14.8263 4.26379 14.9229 4.08695C15.7113 2.64453 16.6882 1.94333 17.9094 1.94333C20.2168 1.94333 21.4303 3.96667 21.4303 5.80213C21.4303 8.46305 19.3982 10.2007 15.7091 13.3552C15.2999 13.7051 14.8798 14.0644 14.4393 14.4445V14.4445Z" fill="#023273"/>
<path d="M4.28837 22.4565L6.94223 23.7832V26.75C6.94223 27.0544 7.18908 27.3013 7.49349 27.3013H13.3368C13.6412 27.3013 13.8881 27.0544 13.8881 26.75V19.5534C13.8881 17.8644 12.6211 16.4638 10.9452 16.2958L10.9001 16.291C9.93004 16.1937 8.21243 15.5302 7.53422 14.8521L6.29621 13.6146C5.87963 13.198 5.326 12.9686 4.7372 12.9686V8.55854C4.7372 7.34269 3.74803 6.35352 2.53218 6.35352C1.31632 6.35352 0.327148 7.34269 0.327148 8.55854V16.0468C0.327148 18.7598 1.85953 21.2418 4.28837 22.4565ZM1.42966 8.55854C1.42966 7.95062 1.92425 7.45603 2.53218 7.45603C3.1401 7.45603 3.63469 7.95062 3.63469 8.55854V13.2641C2.96238 13.6529 2.53218 14.3777 2.53218 15.1736C2.53218 15.7624 2.76161 16.316 3.17819 16.7326L6.00118 19.5561C6.21639 19.7714 6.56544 19.7714 6.78077 19.5562C6.99603 19.341 6.99609 18.9919 6.78082 18.7766L3.95784 15.953C3.74941 15.7447 3.63469 15.4679 3.63469 15.1736C3.63469 14.707 3.93 14.2892 4.36962 14.1339C4.36968 14.1339 4.36979 14.1338 4.36984 14.1338C4.36995 14.1337 4.37012 14.1337 4.37023 14.1337C4.75049 13.9987 5.20153 14.0791 5.51668 14.3943L6.75469 15.6318C8.03283 16.91 10.8253 17.3909 10.8309 17.3924C11.9452 17.5041 12.7855 18.4331 12.7855 19.5534V26.1988H8.04469V23.4425C8.04469 23.2337 7.92666 23.0428 7.73995 22.9494L4.78141 21.4704C2.71403 20.4364 1.42966 18.3582 1.42966 16.0468V8.55854Z" fill="#023273"/>
<path d="M25.6294 21.6782C25.9338 21.6782 26.1806 21.4314 26.1806 21.1269C26.1806 20.8225 25.9338 20.5757 25.6294 20.5757C25.3249 20.5757 25.0781 20.8225 25.0781 21.1269C25.0781 21.4314 25.3249 21.6782 25.6294 21.6782Z" fill="#023273"/>
<path d="M26.3461 6.35352C25.1303 6.35352 24.1411 7.34269 24.1411 8.55854V12.9686C23.5523 12.9686 22.9987 13.198 22.5822 13.6146L21.344 14.8522C20.6659 15.5303 18.9483 16.1938 17.9739 16.2914L17.9374 16.2954C16.2572 16.4638 14.9902 17.8645 14.9902 19.5534V26.75C14.9902 27.0544 15.2371 27.3013 15.5415 27.3013H21.3848C21.6892 27.3013 21.9361 27.0544 21.9361 26.75V23.7832L23.7403 22.8812C24.0126 22.7451 24.123 22.414 23.9869 22.1417C23.8507 21.8694 23.5196 21.7589 23.2473 21.8951L21.1383 22.9494C20.9516 23.0428 20.8336 23.2337 20.8336 23.4425V26.1988H16.0927V19.5534C16.0927 18.4331 16.933 17.5041 18.0516 17.392L18.0881 17.388C19.2839 17.2681 21.2637 16.4916 22.1234 15.6319L23.3617 14.3943C23.6777 14.0781 24.1296 13.9994 24.508 14.1337C24.5081 14.1337 24.5083 14.1337 24.5084 14.1338C24.5085 14.1338 24.5086 14.1338 24.5086 14.1339C24.9483 14.2892 25.2436 14.707 25.2436 15.1736C25.2436 15.4679 25.1289 15.7447 24.9205 15.9531L22.0975 18.7766C21.8823 18.9919 21.8823 19.341 22.0976 19.5562C22.3127 19.7715 22.6619 19.7715 22.8772 19.5562L25.7002 16.7327C26.1167 16.316 26.3461 15.7624 26.3461 15.1736C26.3461 14.3777 25.9159 13.6529 25.2436 13.2641V8.55854C25.2436 7.95062 25.7382 7.45603 26.3461 7.45603C26.954 7.45603 27.4486 7.95062 27.4486 8.55854V16.0468C27.4486 17.0554 27.1941 18.0567 26.7125 18.9425C26.5671 19.21 26.666 19.5446 26.9335 19.6901C27.201 19.8355 27.5358 19.7366 27.6812 19.4691C28.2503 18.4222 28.5511 17.2388 28.5511 16.0468V8.55854C28.5511 7.34269 27.562 6.35352 26.3461 6.35352V6.35352Z" fill="#023273"/>
</svg>
