<svg width="20" height="20" viewBox="0 0 20 20" fill="none" xmlns="http://www.w3.org/2000/svg">
<path d="M4.2917 15.7219L8.88858 15.7063L18.9219 5.76876C19.3157 5.37501 19.5323 4.85209 19.5323 4.29584C19.5323 3.73959 19.3157 3.21668 18.9219 2.82293L17.2698 1.17084C16.4823 0.383344 15.1084 0.38751 14.3271 1.16772L4.2917 11.1073V15.7219V15.7219ZM15.7969 2.64376L17.4521 4.29272L15.7886 5.94064L14.1365 4.28959L15.7969 2.64376ZM6.37504 11.9761L12.6563 5.75418L14.3084 7.40626L8.02816 13.6261L6.37504 13.6313V11.9761Z" fill="#B1B1B1"/>
<path d="M2.20833 19.875H16.7917C17.9406 19.875 18.875 18.9406 18.875 17.7917V8.7625L16.7917 10.8458V17.7917H5.49792C5.47083 17.7917 5.44271 17.8021 5.41563 17.8021C5.38125 17.8021 5.34687 17.7927 5.31146 17.7917H2.20833V3.20833H9.34062L11.424 1.125H2.20833C1.05937 1.125 0.125 2.05937 0.125 3.20833V17.7917C0.125 18.9406 1.05937 19.875 2.20833 19.875Z" fill="#B1B1B1"/>
</svg>
