<svg width="16" height="16" viewBox="0 0 16 16" fill="none" xmlns="http://www.w3.org/2000/svg">
<path d="M8 0.5C3.86 0.5 0.5 3.86 0.5 8C0.5 12.14 3.86 15.5 8 15.5H11.75V14H8C4.745 14 2 11.255 2 8C2 4.745 4.745 2 8 2C11.255 2 14 4.745 14 8V9.0725C14 9.665 13.4675 10.25 12.875 10.25C12.2825 10.25 11.75 9.665 11.75 9.0725V8C11.75 5.93 10.07 4.25 8 4.25C5.93 4.25 4.25 5.93 4.25 8C4.25 10.07 5.93 11.75 8 11.75C9.035 11.75 9.98 11.33 10.655 10.6475C11.1425 11.315 11.9825 11.75 12.875 11.75C14.3525 11.75 15.5 10.55 15.5 9.0725V8C15.5 3.86 12.14 0.5 8 0.5ZM8 10.25C6.755 10.25 5.75 9.245 5.75 8C5.75 6.755 6.755 5.75 8 5.75C9.245 5.75 10.25 6.755 10.25 8C10.25 9.245 9.245 10.25 8 10.25Z" fill="#243663"/>
</svg>
