<svg width="16" height="15" viewBox="0 0 16 15" fill="none" xmlns="http://www.w3.org/2000/svg">
<mask id="path-1-inside-1" fill="white">
<path d="M12.0112 2.68359C12.0112 1.64606 11.3322 0 9.51037 0C8.76182 0 8.13216 0.352893 7.63334 1.05045C7.13452 0.352893 6.50483 0 5.75632 0C3.93443 0 3.25551 1.64606 3.25551 2.68359C3.25551 4.47245 4.65163 5.59142 6.55892 7.22236C6.83918 7.46197 7.12898 7.70979 7.43795 7.97785C7.494 8.02648 7.56366 8.05078 7.63334 8.05078C7.70303 8.05078 7.77268 8.02648 7.82874 7.97785C8.13771 7.70979 8.42751 7.46197 8.70776 7.22236C10.7045 5.5149 12.0112 4.43464 12.0112 2.68359ZM7.63334 7.35829C7.39507 7.15267 7.16783 6.95835 6.94649 6.76907C4.95103 5.06281 3.85186 4.12289 3.85186 2.68359C3.85186 1.70727 4.49059 0.596354 5.75632 0.596354C6.41687 0.596354 6.94527 0.975635 7.37172 1.75585C7.42399 1.8515 7.52433 1.91102 7.63334 1.91102C7.74236 1.91102 7.84269 1.8515 7.89496 1.75585C8.32142 0.975635 8.84982 0.596354 9.51037 0.596354C10.7584 0.596354 11.4148 1.69078 11.4148 2.68359C11.4148 4.12289 10.3157 5.06281 8.32019 6.7691C8.09886 6.95835 7.87162 7.15267 7.63334 7.35829Z"/>
</mask>
<path d="M12.0112 2.68359C12.0112 1.64606 11.3322 0 9.51037 0C8.76182 0 8.13216 0.352893 7.63334 1.05045C7.13452 0.352893 6.50483 0 5.75632 0C3.93443 0 3.25551 1.64606 3.25551 2.68359C3.25551 4.47245 4.65163 5.59142 6.55892 7.22236C6.83918 7.46197 7.12898 7.70979 7.43795 7.97785C7.494 8.02648 7.56366 8.05078 7.63334 8.05078C7.70303 8.05078 7.77268 8.02648 7.82874 7.97785C8.13771 7.70979 8.42751 7.46197 8.70776 7.22236C10.7045 5.5149 12.0112 4.43464 12.0112 2.68359ZM7.63334 7.35829C7.39507 7.15267 7.16783 6.95835 6.94649 6.76907C4.95103 5.06281 3.85186 4.12289 3.85186 2.68359C3.85186 1.70727 4.49059 0.596354 5.75632 0.596354C6.41687 0.596354 6.94527 0.975635 7.37172 1.75585C7.42399 1.8515 7.52433 1.91102 7.63334 1.91102C7.74236 1.91102 7.84269 1.8515 7.89496 1.75585C8.32142 0.975635 8.84982 0.596354 9.51037 0.596354C10.7584 0.596354 11.4148 1.69078 11.4148 2.68359C11.4148 4.12289 10.3157 5.06281 8.32019 6.7691C8.09886 6.95835 7.87162 7.15267 7.63334 7.35829Z" fill="#888C94"/>
<path d="M7.63334 1.05045L6.81992 1.63212L7.63334 2.76962L8.44676 1.63212L7.63334 1.05045ZM6.55892 7.22236L5.90902 7.98238L5.90908 7.98242L6.55892 7.22236ZM7.43795 7.97785L6.78262 8.73319L6.78263 8.7332L7.43795 7.97785ZM7.82874 7.97785L8.48405 8.7332L8.48407 8.73319L7.82874 7.97785ZM8.70776 7.22236L9.35761 7.98242L9.35766 7.98238L8.70776 7.22236ZM6.94649 6.76907L7.59642 6.00907L7.59637 6.00903L6.94649 6.76907ZM7.37172 1.75585L8.24925 1.27632L8.2492 1.27623L7.37172 1.75585ZM7.89496 1.75585L7.01749 1.27623L7.01743 1.27632L7.89496 1.75585ZM8.32019 6.7691L8.97007 7.52914L8.97008 7.52913L8.32019 6.7691ZM13.0112 2.68359C13.0112 1.97934 12.7888 1.09449 12.25 0.36079C11.6832 -0.41096 10.7705 -1 9.51037 -1V1C10.0721 1 10.4098 1.23399 10.638 1.54465C10.8941 1.89336 11.0112 2.35031 11.0112 2.68359H13.0112ZM9.51037 -1C8.38788 -1 7.47459 -0.446725 6.81992 0.468772L8.44676 1.63212C8.78973 1.15251 9.13577 1 9.51037 1V-1ZM8.44676 0.468772C7.79209 -0.446731 6.87877 -1 5.75632 -1V1C6.13089 1 6.47696 1.15252 6.81992 1.63212L8.44676 0.468772ZM5.75632 -1C4.49614 -1 3.5835 -0.410963 3.01671 0.360794C2.47787 1.0945 2.25551 1.97935 2.25551 2.68359H4.25551C4.25551 2.3503 4.3726 1.89335 4.62869 1.54465C4.85684 1.23399 5.1946 1 5.75632 1V-1ZM2.25551 2.68359C2.25551 3.87937 2.73629 4.82474 3.42274 5.65115C4.07847 6.44059 4.98714 7.19406 5.90902 7.98238L7.20882 6.46234C6.22342 5.61971 5.48037 4.99823 4.96122 4.37323C4.47279 3.78521 4.25551 3.27667 4.25551 2.68359H2.25551ZM5.90908 7.98242C6.18956 8.22223 6.47675 8.46783 6.78262 8.73319L8.09328 7.2225C7.7812 6.95175 7.48879 6.70171 7.20877 6.46229L5.90908 7.98242ZM6.78263 8.7332C7.02662 8.94487 7.33104 9.05078 7.63334 9.05078V7.05078C7.79627 7.05078 7.96139 7.10809 8.09326 7.22249L6.78263 8.7332ZM7.63334 9.05078C7.93564 9.05078 8.24007 8.94487 8.48405 8.7332L7.17343 7.22249C7.30529 7.10809 7.47041 7.05078 7.63334 7.05078V9.05078ZM8.48407 8.73319C8.78993 8.46782 9.07712 8.22223 9.35761 7.98242L8.05792 6.46229C7.77789 6.70171 7.48549 6.95175 7.17341 7.2225L8.48407 8.73319ZM9.35766 7.98238C10.3276 7.15302 11.2357 6.39058 11.8814 5.6036C12.5602 4.77622 13.0112 3.85159 13.0112 2.68359H11.0112C11.0112 3.26664 10.8089 3.75767 10.3352 4.33504C9.82831 4.95283 9.08474 5.58424 8.05787 6.46234L9.35766 7.98238ZM8.28667 6.60122C8.04644 6.39391 7.81753 6.19816 7.59642 6.00907L6.29656 7.52906C6.51812 7.71854 6.7437 7.91144 6.98001 8.11537L8.28667 6.60122ZM7.59637 6.00903C6.57356 5.13445 5.87651 4.53415 5.41865 3.9855C4.99321 3.4757 4.85186 3.0999 4.85186 2.68359H2.85186C2.85186 3.70659 3.2601 4.5204 3.88311 5.26694C4.4737 5.97464 5.32396 6.69742 6.29661 7.5291L7.59637 6.00903ZM4.85186 2.68359C4.85186 2.39657 4.94971 2.10051 5.11214 1.89626C5.25504 1.71655 5.45116 1.59635 5.75632 1.59635V-0.403646C4.79575 -0.403646 4.03963 0.0316183 3.54674 0.651451C3.07337 1.24673 2.85186 1.9943 2.85186 2.68359H4.85186ZM5.75632 1.59635C5.92607 1.59635 6.17358 1.6488 6.49424 2.23546L8.2492 1.27623C7.71695 0.302469 6.90766 -0.403646 5.75632 -0.403646V1.59635ZM6.49419 2.23537C6.7218 2.6519 7.15865 2.91102 7.63334 2.91102V0.911017C7.89001 0.911017 8.12618 1.0511 8.24925 1.27632L6.49419 2.23537ZM7.63334 2.91102C8.10804 2.91102 8.54488 2.6519 8.77249 2.23537L7.01743 1.27632C7.1405 1.05111 7.37667 0.911017 7.63334 0.911017V2.91102ZM8.77244 2.23546C9.0931 1.6488 9.34061 1.59635 9.51037 1.59635V-0.403646C8.35902 -0.403646 7.54973 0.302468 7.01749 1.27623L8.77244 2.23546ZM9.51037 1.59635C9.80878 1.59635 10.0065 1.7144 10.1516 1.89468C10.3148 2.0975 10.4148 2.39216 10.4148 2.68359H12.4148C12.4148 1.35209 11.5024 -0.403646 9.51037 -0.403646V1.59635ZM10.4148 2.68359C10.4148 3.0999 10.2735 3.4757 9.84803 3.9855C9.39017 4.53416 8.69312 5.13447 7.6703 6.00907L8.97008 7.52913C9.94273 6.69743 10.793 5.97465 11.3836 5.26695C12.0066 4.5204 12.4148 3.70659 12.4148 2.68359H10.4148ZM7.67032 6.00905C7.44916 6.19816 7.22026 6.3939 6.98001 6.60122L8.28667 8.11537C8.52297 7.91145 8.74856 7.71854 8.97007 7.52914L7.67032 6.00905Z" fill="#888C94" mask="url(#path-1-inside-1)"/>
<path d="M5.68153 8.95277L5.69114 8.85688L5.68986 8.85675L5.68986 8.85674L5.66717 8.85429C5.33978 8.82117 4.92761 8.70042 4.55836 8.5477C4.1963 8.39797 3.79885 8.18625 3.54486 7.9323L1.96385 8.17417C1.85111 8.06149 1.78906 7.91177 1.78906 7.7526C1.78906 7.50023 1.9488 7.27421 2.18659 7.19021L2.18671 7.19015L2.18692 7.19009C2.3926 7.1171 2.63657 7.16057 2.80704 7.33107L3.47669 8.00045C4.15272 8.67649 5.612 8.9402 5.67913 8.95233C5.68065 8.9526 5.68146 8.95275 5.68153 8.95277ZM5.68153 8.95277C6.28426 9.01318 6.73877 9.5157 6.73877 10.1216V13.2161M5.68153 8.95277L6.73877 13.2161M6.73877 13.2161V13.7161H6.23877H4.67445H4.17445V13.2161V12.2253C4.17445 12.1123 4.11061 12.0091 4.00962 11.9586L2.40933 11.1586C1.29108 10.5993 0.596354 9.47517 0.596354 8.22492V4.17448C0.596354 3.84565 0.863879 3.57812 1.19271 3.57812C1.52154 3.57812 1.78906 3.84565 1.78906 4.17448L6.73877 13.2161ZM5.71895 8.35698L5.70983 8.44793L3.57813 12.4096V14.0143C3.57813 14.179 3.71165 14.3125 3.8763 14.3125H7.03698C7.20163 14.3125 7.33516 14.179 7.33516 14.0143V10.1216C7.33516 9.20807 6.64986 8.45049 5.74334 8.3596L5.71895 8.35698ZM5.71895 8.35698L5.70918 8.4478M5.71895 8.35698C5.19424 8.30438 4.26518 7.94549 3.89834 7.57868L5.70918 8.4478M5.70918 8.4478C5.70786 8.44754 5.70653 8.44727 5.70519 8.44701C5.57075 8.42019 5.34388 8.37494 4.99235 8.26022C4.5424 8.11339 4.08818 7.90484 3.83024 7.6469L3.83019 7.64685L3.89797 7.57905L3.83018 7.64684L3.83017 7.64683L3.16062 6.97755C3.1606 6.97752 3.16057 6.9775 3.16055 6.97747C3.16054 6.97747 3.16054 6.97747 3.16054 6.97746C2.94416 6.7611 2.6632 6.65622 2.38542 6.65621C2.35322 6.65621 2.32107 6.65762 2.28906 6.66042L5.70918 8.4478Z" fill="#888C94" stroke="#888C94"/>
<path d="M13.4845 10.9729C13.4845 10.8615 13.5749 10.7711 13.6863 10.7711C13.7978 10.7711 13.8882 10.8615 13.8882 10.9729C13.8882 11.0844 13.7978 11.1747 13.6863 11.1747C13.5749 11.1747 13.4845 11.0844 13.4845 10.9729Z" fill="#888C94" stroke="#888C94"/>
<path d="M11.844 9.76961C11.8441 9.76953 11.8442 9.76945 11.8443 9.76936L11.844 9.76961ZM11.844 9.76961L11.844 9.76962C11.844 9.76962 11.844 9.76961 11.844 9.76961ZM9.57783 8.85664L9.57971 8.85643L9.59676 8.85457C9.59699 8.85455 9.59722 8.85453 9.59746 8.8545L9.59756 8.85449C9.9259 8.82122 10.3384 8.70053 10.7079 8.54781C11.0703 8.39804 11.4677 8.18634 11.7217 7.93238C11.7217 7.93237 11.7218 7.93236 11.7218 7.93235C11.7218 7.93234 11.7218 7.93234 11.7218 7.93233L9.58744 8.95253L9.57702 8.85673M9.57783 8.85664L9.55534 8.6323L9.53757 8.45502C9.53707 8.45507 9.53657 8.45512 9.53608 8.45517C9.53583 8.4552 9.53559 8.45522 9.53534 8.45525L9.53527 8.45525M9.57783 8.85664L9.57702 8.85673M9.57783 8.85664L9.57702 8.85673M9.53527 8.45525C8.67629 8.54252 8.02787 9.25915 8.02787 10.1216V13.7161V14.0143V14.2161H8.22969H8.52787H11.0922H11.3904H11.5922V14.0143V13.7161V12.4096V12.35M9.53527 8.45525L9.53338 8.45546L9.55786 8.68055L9.57702 8.85673M9.53527 8.45525L9.57702 8.85673M11.5922 12.35L11.6455 12.3234L12.6214 11.8355M11.5922 12.35L11.4806 12.4058M11.5922 12.35V12.2253C11.5922 12.3017 11.549 12.3716 11.4806 12.4058M12.6214 11.8355L12.5312 11.655M12.6214 11.8355L12.5311 11.655M12.6214 11.8355C12.5214 11.8854 12.4004 11.8447 12.3507 11.7453L12.5311 11.655M12.5312 11.655L12.5312 11.655L12.7979 11.5217L12.5312 11.6549L12.5311 11.655M12.5312 11.655L12.5311 11.655M12.5312 11.655L12.5311 11.655M12.5311 11.655L12.4409 11.4745L12.4408 11.4745M12.5311 11.655L12.5311 11.655M12.4408 11.4745L11.465 11.9623L11.3001 12.0448L11.1885 12.1005V12.2253V12.4096V13.7161V13.8125M12.4408 11.4745C12.3412 11.5243 12.3008 11.6455 12.3506 11.7452L12.5311 11.655M12.4408 11.4745L12.5311 11.655M11.1885 13.8125H11.0922H8.52787H8.43151M11.1885 13.8125V14.0143C11.1885 13.9028 11.2789 13.8125 11.3904 13.8125H11.1885ZM8.43151 13.8125V13.7161V10.1216C8.43151 9.46484 8.92232 8.92236 9.57554 8.85687L9.57554 8.85689L9.57702 8.85673M8.43151 13.8125H8.22969C8.34118 13.8125 8.43151 13.9028 8.43151 14.0143V13.8125ZM12.5311 11.655L12.5311 11.655M11.4806 12.4058L11.4806 12.4058L11.4806 12.4058ZM9.55581 8.45302L9.555 8.45311L9.55581 8.45302Z" fill="#888C94" stroke="#888C94"/>
</svg>
