<?xml version="1.0" encoding="UTF-8"?>
<!DOCTYPE svg PUBLIC "-//W3C//DTD SVG 1.1//EN" "http://www.w3.org/Graphics/SVG/1.1/DTD/svg11.dtd">
<!-- Creator: CorelDRAW 2019 (64-Bit) -->
<svg xmlns="http://www.w3.org/2000/svg" xml:space="preserve" width="30px" height="30px" version="1.1" style="shape-rendering:geometricPrecision; text-rendering:geometricPrecision; image-rendering:optimizeQuality; fill-rule:evenodd; clip-rule:evenodd"
viewBox="0 0 30 30"
 xmlns:xlink="http://www.w3.org/1999/xlink">
 <defs>
  <style type="text/css">
   <![CDATA[
    .fil2 {fill:#F6CD46}
    .fil0 {fill:#123270;fill-rule:nonzero}
    .fil1 {fill:#265AAD;fill-rule:nonzero}
   ]]>
  </style>
 </defs>
 <g id="Layer_x0020_1">
  <metadata id="CorelCorpID_0Corel-Layer"/>
  <g id="_2654080075792">
   <path class="fil0" d="M14.89 15.86c-0.32,-0.29 -0.72,-0.66 -1.15,-1.05 -2.04,-1.85 -4.76,-4.32 -5.56,-5.98 -0.46,-0.98 -0.36,-2.01 0.11,-2.89 0.29,-0.54 0.72,-1.02 1.24,-1.4 0.52,-0.36 1.13,-0.62 1.77,-0.71 1.05,-0.15 2.18,0.14 3.16,1.09 0.22,0.21 0.39,0.37 0.54,0.46 0.07,0.05 0.12,0.07 0.16,0.09 0.04,-0.02 0.1,-0.04 0.16,-0.09 0.15,-0.09 0.33,-0.25 0.55,-0.46 0.98,-0.95 2.11,-1.24 3.16,-1.09 0.64,0.09 1.25,0.35 1.77,0.71 0.52,0.38 0.95,0.86 1.24,1.4 0.46,0.88 0.57,1.91 0.1,2.89 -0.39,0.81 -1.22,1.8 -2.21,2.82 -0.97,0.99 -2.08,2.01 -3.06,2.9l-0.97 -1.07c0.98,-0.88 2.07,-1.89 3,-2.83 0.89,-0.93 1.63,-1.8 1.94,-2.44 0.25,-0.52 0.19,-1.1 -0.08,-1.59 -0.18,-0.35 -0.46,-0.66 -0.8,-0.9 -0.33,-0.24 -0.72,-0.41 -1.13,-0.47 -0.64,-0.09 -1.34,0.1 -1.96,0.7 -0.28,0.27 -0.53,0.49 -0.77,0.64 -0.3,0.2 -0.59,0.31 -0.9,0.32l-0.08 0c-0.31,-0.01 -0.6,-0.12 -0.9,-0.32 -0.24,-0.15 -0.48,-0.37 -0.76,-0.64 -0.62,-0.6 -1.32,-0.79 -1.96,-0.7 -0.41,0.06 -0.8,0.23 -1.14,0.47 -0.33,0.24 -0.61,0.55 -0.8,0.9 -0.26,0.49 -0.33,1.07 -0.08,1.59 0.68,1.4 3.28,3.76 5.23,5.54 0.42,0.37 0.8,0.72 1.16,1.06l-0.98 1.05z"/>
   <path class="fil0" d="M4.21 15.88l0 -0.41c-0.01,-1.47 -0.01,-2.95 -0.02,-4.42 0,-0.9 0.28,-1.45 0.64,-1.71 0.16,-0.11 0.34,-0.16 0.52,-0.16 0.17,0 0.35,0.05 0.51,0.15 0.37,0.24 0.66,0.75 0.66,1.48l0.01 0.51c0.01,0.92 0.03,2.55 -0.07,2.84 -0.07,0.2 -0.22,0.35 -0.37,0.52 -0.32,0.32 -0.71,0.74 -0.35,1.67 0.02,0.04 0.67,0.9 1.4,1.67 0.33,0.35 0.67,0.68 0.98,0.89 0.22,0.16 0.4,0.24 0.48,0.21 0.06,-0.38 -0.5,-0.88 -0.92,-1.25 -0.13,-0.11 -0.24,-0.2 -0.33,-0.3 -0.1,-0.1 -0.22,-0.2 -0.33,-0.3 -0.53,-0.46 -1.07,-0.94 -0.96,-1.95l0 -0.1 0.08 -0.07c1.18,-1.03 1.76,-0.39 2.46,0.39l0.2 0.22c0.27,0.29 0.59,0.54 0.96,0.75 0.38,0.21 0.8,0.38 1.29,0.52l0.68 0.19c1.08,0.3 1.62,0.45 1.91,1 0.27,0.5 0.27,1.26 0.26,2.78 0,0.51 -0.01,1.02 0,1.53 0.01,0.6 0.05,2 -0.19,2.24l-0.04 0.03 -0.04 0.02c-0.27,0.13 -0.99,0.19 -1.74,0.19 -0.83,0.01 -1.73,-0.04 -2.12,-0.14l-0.19 -0.05 -0.05 -2.5 -0.83 -0.4c-2.63,-1.28 -4.49,-2.18 -4.49,-6.04zm0.51 -0.41l0 0.41c0.01,3.53 1.75,4.38 4.2,5.57 0.32,0.16 0.66,0.32 0.98,0.48l0.13 0.07 0.06 2.41c0.41,0.06 1.12,0.1 1.8,0.09 0.63,-0.01 1.22,-0.05 1.47,-0.13 0.07,-0.2 0.04,-1.32 0.02,-1.82 -0.01,-0.52 0,-1.04 0,-1.55 0.01,-1.43 0.02,-2.15 -0.19,-2.54 -0.19,-0.35 -0.66,-0.48 -1.59,-0.74l-0.69 -0.19c-0.53,-0.15 -0.99,-0.34 -1.4,-0.57 -0.41,-0.24 -0.78,-0.52 -1.09,-0.85l-0.2 -0.22c-0.5,-0.56 -0.91,-1.02 -1.66,-0.41 -0.03,0.68 0.39,1.04 0.8,1.4 0.11,0.1 0.23,0.21 0.35,0.33 0.07,0.07 0.18,0.17 0.31,0.28 0.54,0.48 1.29,1.14 1.06,1.85l-0.02 0.04 -0.02 0.03c-0.05,0.07 -0.11,0.12 -0.17,0.15 -0.28,0.17 -0.65,0.05 -1.05,-0.23 -0.33,-0.23 -0.7,-0.58 -1.05,-0.95 -0.78,-0.83 -1.5,-1.81 -1.51,-1.84 -0.47,-1.24 0.04,-1.79 0.45,-2.22 0.12,-0.13 0.23,-0.24 0.26,-0.34 0.08,-0.2 0.06,-1.77 0.04,-2.65l0 -0.52c0,-0.53 -0.19,-0.89 -0.43,-1.04 -0.07,-0.05 -0.15,-0.08 -0.23,-0.08 -0.08,0 -0.15,0.03 -0.23,0.08 -0.23,0.16 -0.42,0.57 -0.41,1.28 0.01,1.47 0.01,2.94 0.01,4.42zm4.54 9.72c0.22,0.24 0.99,0.21 1.76,0.18 0.24,-0.01 0.49,-0.02 0.73,-0.02 0.48,-0.01 0.88,0 1.21,0.01 0.79,0.03 1.17,0.04 1.3,-0.17 0.15,-0.26 0.14,-0.89 0.11,-2.1 -0.02,-0.6 -0.04,-1.34 -0.04,-2.26 0,-3.44 -0.96,-3.65 -2.31,-3.94 -0.65,-0.14 -1.38,-0.3 -2.15,-0.77 -0.52,-0.32 -0.83,-0.65 -1.12,-0.96 -0.41,-0.43 -0.77,-0.81 -1.66,-0.99l-0.2 -0.04 -0.01 -0.21c-0.01,-0.39 0,-0.87 0.02,-1.37 0.03,-0.87 0.06,-1.82 -0.04,-2.41 -0.01,-0.07 -0.03,-0.15 -0.06,-0.23 -0.11,-0.34 -0.33,-0.64 -0.62,-0.84 -0.29,-0.19 -0.65,-0.29 -1.06,-0.22 -0.08,0.01 -0.17,0.03 -0.25,0.06 -0.51,0.16 -0.77,0.42 -0.9,0.77 -0.15,0.4 -0.16,0.94 -0.16,1.62 0.01,0.81 0,1.54 -0.01,2.22 -0.06,4.64 -0.08,6.42 4.44,8.6l0.26 0.12c0.58,0.25 0.72,0.32 0.7,1.31 0,0.14 -0.01,0.28 -0.02,0.44 -0.03,0.44 -0.06,0.97 0.08,1.2zm1.78 0.69c-0.91,0.04 -1.81,0.08 -2.18,-0.36l-0.02 -0.02c-0.25,-0.37 -0.21,-1.01 -0.17,-1.55 0.01,-0.15 0.02,-0.3 0.02,-0.41 0.01,-0.65 -0.07,-0.68 -0.39,-0.83l-0.29 -0.12c-4.81,-2.33 -4.79,-4.2 -4.73,-9.08 0.01,-0.67 0.02,-1.41 0.02,-2.21 0,-0.73 0.01,-1.32 0.19,-1.79 0.18,-0.51 0.54,-0.87 1.22,-1.09 0.11,-0.03 0.22,-0.06 0.33,-0.08 0.54,-0.09 1.04,0.04 1.43,0.31 0.39,0.26 0.68,0.66 0.82,1.11 0.03,0.1 0.06,0.2 0.08,0.3 0.1,0.63 0.07,1.61 0.04,2.51 -0.01,0.41 -0.02,0.8 -0.02,1.14 0.91,0.22 1.3,0.64 1.73,1.1 0.27,0.28 0.56,0.59 1.02,0.87 0.69,0.42 1.38,0.57 1.99,0.7 1.58,0.35 2.71,0.59 2.72,4.45 0,0.9 0.02,1.65 0.03,2.25 0.03,1.31 0.05,1.98 -0.18,2.37 -0.28,0.48 -0.77,0.46 -1.76,0.43 -0.33,-0.01 -0.72,-0.02 -1.19,-0.02 -0.22,0 -0.47,0.01 -0.71,0.02z"/>
   <path class="fil0" d="M25.68 15.88l0 -0.55c0,-1.43 0.01,-2.85 0.02,-4.28 0,-0.71 -0.18,-1.12 -0.42,-1.28 -0.07,-0.05 -0.15,-0.08 -0.23,-0.08 -0.07,0 -0.15,0.03 -0.23,0.08 -0.24,0.15 -0.43,0.51 -0.43,1.04l0 0.52c-0.01,0.88 -0.04,2.45 0.04,2.65 0.04,0.1 0.14,0.21 0.26,0.34 0.41,0.43 0.93,0.98 0.46,2.22 -0.02,0.03 -0.74,1.01 -1.51,1.84 -0.36,0.37 -0.73,0.72 -1.06,0.95 -0.4,0.28 -0.76,0.39 -1.05,0.23 -0.06,-0.03 -0.12,-0.08 -0.17,-0.15l-0.02 -0.03 -0.02 -0.04c-0.23,-0.71 0.52,-1.37 1.07,-1.85 0.12,-0.11 0.23,-0.21 0.3,-0.28 0.12,-0.12 0.24,-0.22 0.36,-0.33 0.4,-0.36 0.82,-0.72 0.79,-1.4 -0.74,-0.61 -1.16,-0.15 -1.66,0.41l-0.2 0.22c-0.31,0.33 -0.67,0.61 -1.09,0.85 -0.41,0.23 -0.87,0.42 -1.4,0.57l-0.68 0.19c-0.94,0.26 -1.41,0.39 -1.6,0.74 -0.21,0.39 -0.2,1.11 -0.19,2.54 0,0.51 0.01,1.02 0,1.53 -0.01,0.49 -0.05,1.64 0.02,1.84 0.25,0.08 0.84,0.12 1.48,0.13 0.67,0.01 1.38,-0.03 1.8,-0.09l0.05 -2.41 0.14 -0.07c0.32,-0.16 0.65,-0.32 0.97,-0.48 2.46,-1.19 4.19,-2.04 4.2,-5.57zm0.52 -0.55l0 0.55c-0.01,3.86 -1.87,4.76 -4.5,6.04l-0.82 0.4 -0.06 2.5 -0.19 0.05c-0.39,0.1 -1.29,0.15 -2.12,0.14 -0.75,0 -1.47,-0.06 -1.74,-0.19l-0.04 -0.02 -0.03 -0.03c-0.25,-0.24 -0.21,-1.67 -0.2,-2.26 0.02,-0.5 0.01,-1.01 0,-1.51 -0.01,-1.52 -0.01,-2.28 0.26,-2.78 0.3,-0.55 0.83,-0.7 1.91,-1l0.68 -0.19c0.49,-0.14 0.91,-0.31 1.29,-0.52 0.37,-0.21 0.69,-0.46 0.97,-0.75l0.19 -0.22c0.7,-0.78 1.28,-1.42 2.46,-0.39l0.08 0.07 0.01 0.1c0.1,1.02 -0.44,1.49 -0.97,1.95 -0.11,0.1 -0.22,0.2 -0.32,0.3 -0.1,0.1 -0.21,0.19 -0.33,0.3 -0.42,0.37 -0.99,0.87 -0.93,1.25 0.09,0.03 0.26,-0.06 0.49,-0.21 0.3,-0.21 0.64,-0.54 0.97,-0.89 0.74,-0.78 1.4,-1.64 1.41,-1.66 0.35,-0.94 -0.04,-1.36 -0.35,-1.68 -0.16,-0.17 -0.3,-0.32 -0.37,-0.52 -0.11,-0.29 -0.09,-1.92 -0.08,-2.84l0.01 -0.51c0,-0.73 0.29,-1.24 0.66,-1.48 0.16,-0.1 0.34,-0.15 0.51,-0.15 0.19,0 0.36,0.05 0.52,0.16 0.37,0.26 0.64,0.81 0.64,1.71 -0.01,1.43 -0.01,2.85 -0.01,4.28zm-4.66 10.19c-0.37,0.44 -1.27,0.4 -2.18,0.36 -0.24,-0.01 -0.49,-0.02 -0.71,-0.02 -0.46,0 -0.86,0.01 -1.19,0.02 -0.99,0.03 -1.48,0.05 -1.76,-0.43 -0.23,-0.39 -0.21,-1.06 -0.18,-2.37 0.02,-0.6 0.04,-1.35 0.04,-2.25 0,-3.86 1.13,-4.1 2.72,-4.45 0.61,-0.13 1.29,-0.28 1.98,-0.7 0.47,-0.28 0.75,-0.59 1.02,-0.87 0.43,-0.46 0.82,-0.88 1.73,-1.1 0,-0.34 -0.01,-0.73 -0.02,-1.15 -0.03,-0.9 -0.06,-1.87 0.05,-2.5 0.01,-0.1 0.04,-0.2 0.07,-0.3 0.14,-0.45 0.43,-0.85 0.82,-1.11 0.39,-0.27 0.89,-0.4 1.43,-0.31 0.11,0.02 0.22,0.05 0.33,0.08 0.68,0.22 1.04,0.58 1.23,1.09 0.17,0.47 0.19,1.06 0.18,1.79 0,0.8 0.01,1.54 0.02,2.21 0.06,4.88 0.08,6.75 -4.73,9.08l-0.29 0.12c-0.32,0.15 -0.4,0.18 -0.39,0.83 0,0.11 0.01,0.26 0.02,0.41 0.04,0.54 0.08,1.18 -0.17,1.55l-0.02 0.02zm-2.16 -0.15c0.77,0.03 1.54,0.06 1.76,-0.17 0.15,-0.23 0.11,-0.76 0.08,-1.21 -0.01,-0.16 -0.02,-0.3 -0.02,-0.44 -0.02,-0.99 0.13,-1.06 0.7,-1.31l0.26 -0.12c4.52,-2.18 4.5,-3.96 4.44,-8.6 0,-0.68 -0.01,-1.41 -0.01,-2.22 0,-0.68 -0.01,-1.22 -0.16,-1.62 -0.13,-0.35 -0.39,-0.61 -0.89,-0.77 -0.09,-0.03 -0.17,-0.05 -0.26,-0.06 -0.4,-0.07 -0.77,0.03 -1.06,0.22 -0.29,0.2 -0.51,0.5 -0.62,0.84 -0.02,0.08 -0.04,0.16 -0.06,0.23 -0.09,0.59 -0.06,1.53 -0.04,2.41 0.02,0.5 0.03,0.98 0.02,1.37l0 0.21 -0.2 0.04c-0.9,0.18 -1.26,0.56 -1.66,0.99 -0.29,0.31 -0.61,0.64 -1.13,0.96 -0.77,0.47 -1.5,0.63 -2.14,0.77 -1.35,0.29 -2.32,0.5 -2.32,3.94 0,0.92 -0.02,1.66 -0.03,2.26 -0.03,1.21 -0.05,1.84 0.11,2.1 0.12,0.21 0.51,0.2 1.29,0.17 0.34,-0.01 0.73,-0.02 1.21,-0.01 0.24,0 0.49,0.01 0.73,0.02z"/>
   <path class="fil1" d="M15.2 0.08c4.14,0 7.89,1.68 10.61,4.39 2.71,2.72 4.39,6.47 4.39,10.61 0,4.14 -1.68,7.89 -4.39,10.61 -2.72,2.71 -6.47,4.39 -10.61,4.39 -4.14,0 -7.89,-1.68 -10.6,-4.39 -2.72,-2.72 -4.4,-6.47 -4.4,-10.61 0,-4.14 1.68,-7.89 4.4,-10.61 2.71,-2.71 6.46,-4.39 10.6,-4.39zm10.06 4.94c-2.57,-2.58 -6.13,-4.17 -10.06,-4.17 -3.93,0 -7.48,1.59 -10.06,4.17 -2.57,2.57 -4.16,6.13 -4.16,10.06 0,3.93 1.59,7.48 4.16,10.06 2.58,2.57 6.13,4.17 10.06,4.17 3.93,0 7.49,-1.6 10.06,-4.17 2.58,-2.58 4.17,-6.13 4.17,-10.06 0,-3.93 -1.59,-7.49 -4.17,-10.06z"/>
   <path class="fil2" d="M15.16 13.68c-1.25,-1.15 -3.06,-2.77 -4.27,-4.17 -0.24,-0.28 -0.56,-0.64 -0.79,-0.91 -1.26,-1.47 0.59,-3.58 2.43,-2.88 0.51,0.19 0.94,0.78 1.55,1.17 0.4,0.26 0.83,0.34 1.08,0.36 0.25,-0.02 0.68,-0.1 1.09,-0.36 0.6,-0.39 1.04,-0.98 1.55,-1.17 1.84,-0.7 3.69,1.41 2.43,2.88 -0.24,0.27 -0.55,0.63 -0.79,0.91 -1.22,1.4 -3.03,3.02 -4.28,4.17z"/>
  </g>
 </g>
</svg>
