<svg width="16" height="15" viewBox="0 0 16 15" fill="none" xmlns="http://www.w3.org/2000/svg">
<path d="M7.63334 7.48563C7.61227 7.46742 7.59128 7.44929 7.57038 7.43125L7.63334 7.35829L7.6963 7.43125C7.6754 7.44929 7.65442 7.46742 7.63334 7.48563ZM8.38281 6.84235L8.52168 7.00474L8.38282 6.84234C8.38282 6.84234 8.38282 6.84234 8.38281 6.84235Z" fill="#888C94" stroke="#888C94"/>
<path d="M3.42268 9.76958L3.42254 9.76943C3.42258 9.76948 3.42263 9.76953 3.42268 9.76958ZM3.42268 9.76958C3.4227 9.7696 3.42273 9.76963 3.42275 9.76965L3.42269 9.76959L3.42268 9.76958ZM5.68153 8.95277L5.69114 8.85688L5.68987 8.85675L5.68987 8.85674L5.66716 8.85429C5.33977 8.82116 4.9276 8.70041 4.55836 8.5477C4.1963 8.39797 3.79885 8.18625 3.54486 7.9323L3.47669 8.00045C4.15272 8.67649 5.612 8.9402 5.67913 8.95233C5.68065 8.9526 5.68146 8.95275 5.68153 8.95277ZM5.68153 8.95277C6.28426 9.01318 6.73877 9.5157 6.73877 10.1216V13.2161M5.68153 8.95277L6.73877 13.2161M6.73877 13.2161V13.7161H6.23877L6.73877 13.2161ZM5.71895 8.35698L5.70983 8.44793L5.74334 8.3596L5.71895 8.35698ZM5.71895 8.35698C5.19424 8.30438 4.26518 7.94549 3.89834 7.57868L3.83019 7.64685L3.83024 7.6469C4.08818 7.90484 4.5424 8.11339 4.99235 8.26022C5.34388 8.37494 5.57076 8.42019 5.7052 8.44701C5.70654 8.44727 5.70786 8.44754 5.70918 8.4478L5.71895 8.35698Z" fill="#888C94" stroke="#888C94"/>
<path d="M13.4845 10.9729C13.4845 10.8615 13.5749 10.7711 13.6863 10.7711C13.7978 10.7711 13.8882 10.8615 13.8882 10.9729C13.8882 11.0844 13.7978 11.1747 13.6863 11.1747C13.5749 11.1747 13.4845 11.0844 13.4845 10.9729Z" fill="#888C94" stroke="#888C94"/>
<path d="M9.57783 8.85664L9.57971 8.85643L9.59676 8.85457C9.597 8.85455 9.59724 8.85453 9.59747 8.8545L9.59756 8.85449C9.9259 8.82122 10.3384 8.70053 10.7079 8.54781C11.0703 8.39804 11.4677 8.18634 11.7217 7.93238C11.7217 7.93237 11.7218 7.93236 11.7218 7.93235C11.7218 7.93234 11.7218 7.93234 11.7218 7.93233L12.3507 11.7453C12.4003 11.8446 12.5213 11.8854 12.6212 11.8356L11.6455 12.3234L11.5922 12.35M9.57783 8.85664L9.55536 8.63251L9.53757 8.45502C9.53707 8.45507 9.53657 8.45512 9.53607 8.45517C9.53582 8.4552 9.53557 8.45522 9.53531 8.45525L9.53527 8.45525M9.57783 8.85664L9.57702 8.85673M9.57783 8.85664L9.57702 8.85673M9.53527 8.45525C8.67629 8.54252 8.02787 9.25915 8.02787 10.1216V13.7161V14.0143V14.2161H8.22969H8.52787H11.0922H11.3904H11.5922V14.0143V13.7161V12.4096V12.35M9.53527 8.45525L9.53338 8.45546L9.55784 8.68036L9.57702 8.85673M9.53527 8.45525L9.57702 8.85673M11.5922 12.35V12.2253C11.5922 12.3016 11.5491 12.3714 11.4809 12.4056M11.5922 12.35L11.4809 12.4056M11.4809 12.4056C11.4808 12.4057 11.4807 12.4058 11.4806 12.4058L11.4806 12.4058L11.4809 12.4056ZM9.57702 8.85673L9.57554 8.85689L9.57554 8.85687C8.92232 8.92236 8.43151 9.46484 8.43151 10.1216V13.7161V13.8125M9.57702 8.85673L12.3506 11.7452C12.3008 11.6456 12.3411 11.5245 12.4406 11.4746L11.465 11.9623L11.3001 12.0448L11.1885 12.1005V12.2253V12.4096V13.7161V13.8125M9.57702 8.85673L9.58744 8.95253L9.57702 8.85673ZM8.43151 13.8125H8.22969C8.34118 13.8125 8.43151 13.9028 8.43151 14.0143V13.8125ZM8.43151 13.8125H8.52787H11.0922H11.1885M11.1885 13.8125V14.0143C11.1885 13.9028 11.2789 13.8125 11.3904 13.8125H11.1885ZM11.9661 9.89175L11.9665 9.89207L11.9661 9.89175ZM11.9661 9.89175L11.966 9.89164L11.9661 9.89175ZM9.55581 8.45302L9.555 8.45311L9.55581 8.45302Z" fill="#888C94" stroke="#888C94"/>
</svg>
