<svg width="28" height="26" viewBox="0 0 28 26" fill="none" xmlns="http://www.w3.org/2000/svg">
<path d="M21.4172 4.98215C21.4172 3.19604 20.1951 0.28186 17.0929 0.28186C15.7768 0.28186 14.7428 0.939901 13.8027 2.06797C12.9566 0.939901 11.8286 0.28186 10.5125 0.28186C7.3163 0.28186 6.18823 3.10203 6.18823 4.98215C6.18823 8.08434 8.63238 10.0585 11.9226 12.8786C12.3926 13.2547 12.9566 13.7247 13.4267 14.1947C13.5207 14.2887 13.6147 14.2887 13.8027 14.2887C13.8967 14.2887 14.0847 14.2887 14.1787 14.1947C14.7428 13.7247 15.2128 13.2547 15.6828 12.8786C19.161 9.87045 21.4172 7.99034 21.4172 4.98215ZM13.8027 13.1607C13.4267 12.7846 12.9566 12.5026 12.5806 12.1266C9.10241 9.11841 7.2223 7.52031 7.2223 4.98215C7.2223 3.29005 8.35037 1.31592 10.5125 1.31592C11.6406 1.31592 12.5806 1.97396 13.3327 3.29005C13.4267 3.47806 13.6147 3.57206 13.8027 3.57206C13.9907 3.57206 14.1787 3.47806 14.2727 3.29005C15.0248 1.97396 15.9648 1.31592 17.0929 1.31592C19.255 1.31592 20.3831 3.19604 20.3831 4.98215C20.3831 7.52031 18.503 9.11841 15.0248 12.1266C14.5547 12.4086 14.1787 12.7846 13.8027 13.1607Z" fill="#3993D6"/>
<path d="M13.802 14.6649C13.614 14.6649 13.426 14.5709 13.238 14.4769C12.768 14.0069 12.2979 13.6308 11.8279 13.2548L11.3579 12.8788C8.16167 10.0586 5.81152 8.1785 5.81152 4.98231C5.81152 3.00819 7.1276 0 10.5118 0C11.8279 0 12.862 0.564035 13.802 1.5981C14.6481 0.564035 15.7761 0 17.0922 0C20.4764 0 21.7925 3.10219 21.7925 4.98231C21.7925 8.0845 19.5364 10.0586 16.1522 12.9728L15.9641 13.1608C15.4941 13.5368 14.9301 14.0069 14.4601 14.4769C14.178 14.5709 13.99 14.6649 13.802 14.6649ZM10.5118 0.658041C7.59763 0.658041 6.56357 3.2902 6.56357 4.98231C6.56357 7.80248 8.7257 9.6826 11.8279 12.3148L12.2979 12.6908C12.768 13.0668 13.238 13.5368 13.708 13.9129C13.802 14.0069 13.896 14.0069 13.896 13.9129C14.4601 13.4428 14.9301 12.9728 15.4001 12.5968L15.5881 12.4088C18.8783 9.58859 21.0405 7.80248 21.0405 4.98231C21.0405 3.2902 19.9124 0.658041 17.0922 0.658041C15.8701 0.658041 14.9301 1.22208 14.084 2.35014L13.802 2.72617L13.52 2.35014C12.6739 1.22208 11.7339 0.658041 10.5118 0.658041ZM13.802 13.5368L12.3919 12.3148C8.81971 9.30657 6.84559 7.61447 6.84559 4.98231C6.84559 3.10219 8.16167 1.03406 10.5118 1.03406C11.8279 1.03406 12.862 1.78611 13.614 3.1962C13.708 3.2902 13.802 3.2902 13.896 3.1962C14.7421 1.6921 15.6821 1.03406 16.9982 1.03406C19.3484 1.03406 20.6644 3.10219 20.6644 4.98231C20.6644 7.61447 18.6903 9.30657 15.1181 12.3148L13.802 13.5368ZM10.5118 1.6921C8.6317 1.6921 7.59763 3.38421 7.59763 4.98231C7.59763 7.33245 9.47775 8.93055 12.862 11.8447L13.802 12.6908L14.7421 11.8447C18.1263 8.93055 20.0064 7.33245 20.0064 4.98231C20.0064 3.38421 18.9723 1.6921 17.0922 1.6921C16.0582 1.6921 15.3061 2.25614 14.5541 3.47821C14.272 4.04225 13.332 4.04225 13.05 3.47821C12.3919 2.35014 11.5459 1.6921 10.5118 1.6921Z" fill="#3993D6"/>
<path d="M4.02539 20.7989L6.61328 22.045V24.9204C6.61328 25.2079 6.80498 25.4955 7.18837 25.4955H12.7475C13.0351 25.4955 13.3226 25.3038 13.3226 24.9204V18.0193C13.3226 16.3899 12.0766 15.0481 10.543 14.8564C9.58457 14.7605 7.95515 14.0896 7.28422 13.5145L6.13404 12.3643C5.75065 11.9809 5.17557 11.7892 4.60048 11.7892V7.47608C4.60048 6.32591 3.642 5.36743 2.49183 5.36743C1.34165 5.36743 0.383176 6.32591 0.383176 7.47608V14.6647C0.287328 17.2526 1.72505 19.5529 4.02539 20.7989ZM1.34165 7.47608C1.34165 6.901 1.82089 6.42176 2.39598 6.42176C2.97107 6.42176 3.45031 6.901 3.45031 7.47608V11.9809C2.77937 12.3643 2.39598 13.0353 2.39598 13.802C2.39598 14.3771 2.58768 14.8564 2.97107 15.3356L5.65481 18.0193C5.8465 18.211 6.22989 18.211 6.42159 18.0193C6.61328 17.7318 6.61328 17.4443 6.42159 17.2526L3.73785 14.5688C3.54615 14.3771 3.45031 14.0896 3.45031 13.802C3.45031 13.3228 3.73785 12.9394 4.12124 12.8436C4.50463 12.7477 4.88802 12.7477 5.17557 13.1311L6.32574 14.2813C7.57176 15.5273 10.2555 16.0065 10.2555 16.0065C11.3098 16.1024 12.1725 16.965 12.1725 18.1152V24.4411H7.66761V21.7574C7.66761 21.5657 7.57176 21.374 7.38007 21.2782L4.50463 19.8405C2.49183 18.882 1.24581 16.8692 1.24581 14.6647V7.47608H1.34165Z" fill="#3993D6"/>
<path d="M12.7478 25.6872H7.09274C6.70935 25.6872 6.32596 25.3038 6.32596 24.9204V22.2367L3.92976 20.9906C1.53356 19.7446 0 17.3484 0 14.6647V7.47609C0 6.13422 1.05433 5.0799 2.3962 5.0799C3.73806 5.0799 4.69654 6.13422 4.69654 7.47609V11.5017C5.27163 11.5975 5.75087 11.7892 6.13426 12.1726L7.28443 13.3228C7.85952 13.8979 9.48893 14.5688 10.3516 14.6647C12.1727 14.8564 13.4187 16.2941 13.4187 18.0193V24.9204C13.5145 25.3038 13.1312 25.6872 12.7478 25.6872ZM4.2173 20.5114L6.90104 21.8533V24.9204C6.90104 25.1121 6.99689 25.2079 7.18859 25.2079H12.7478C12.9395 25.2079 13.0353 25.1121 13.0353 24.9204V18.0193C13.0353 16.4858 11.8851 15.2398 10.4474 15.1439C9.39309 15.0481 7.76367 14.3771 6.99689 13.7062L5.84672 12.4602C5.46333 12.0768 4.98409 11.8851 4.50485 11.8851H4.2173V7.47609C4.2173 6.42176 3.35467 5.55913 2.30035 5.55913C1.24602 5.55913 0.383391 6.42176 0.383391 7.47609V14.6647C0.479239 17.1567 1.91696 19.4571 4.2173 20.5114ZM12.4602 24.6329H7.38028V21.7574C7.38028 21.6616 7.28443 21.5657 7.18859 21.4699L4.31315 20.0322C2.2045 18.9778 0.958478 16.965 0.958478 14.6647V7.47609C0.958478 6.80516 1.53357 6.13422 2.30035 6.13422C3.06713 6.13422 3.64222 6.70931 3.64222 7.47609V12.0768L3.54637 12.1726C2.97128 12.4602 2.58789 13.1311 2.58789 13.802C2.58789 14.2813 2.77959 14.7605 3.16298 15.1439L5.84672 17.8277C5.94256 17.9235 6.13426 17.9235 6.23011 17.8277C6.32596 17.7318 6.32596 17.7318 6.32596 17.636C6.32596 17.5401 6.32596 17.4443 6.23011 17.4443L3.54637 14.7605C3.25883 14.473 3.16298 14.1854 3.16298 13.802C3.16298 13.227 3.54637 12.7477 4.02561 12.556C4.50485 12.3643 4.98409 12.556 5.36748 12.8436L6.6135 14.0896C7.76367 15.2398 10.3516 15.719 10.3516 15.719C11.5017 15.8148 12.4602 16.8692 12.4602 18.0193V24.6329ZM7.85952 24.1536H11.8851V18.0193C11.8851 17.0609 11.2142 16.2941 10.2557 16.1982C10.2557 16.1982 7.47613 15.719 6.23011 14.473L5.07993 13.3228C4.88824 13.1311 4.50485 13.0353 4.2173 13.1311C3.92976 13.227 3.64222 13.5145 3.64222 13.8979C3.64222 14.0896 3.73806 14.2813 3.92976 14.473L6.6135 17.0609C6.80519 17.2526 6.80519 17.4443 6.80519 17.636C6.80519 17.8277 6.70935 18.0194 6.6135 18.211C6.32596 18.4986 5.84672 18.4986 5.55917 18.211L2.87543 15.5273C2.3962 15.0481 2.2045 14.473 2.2045 13.8979C2.2045 13.1311 2.58789 12.3643 3.25883 11.9809V7.47609C3.25883 6.99685 2.87543 6.61346 2.3962 6.61346C1.91696 6.61346 1.53357 6.99685 1.53357 7.47609V14.6647C1.53357 16.7733 2.68374 18.6903 4.6007 19.6488L7.47613 21.0865C7.76367 21.1823 7.85952 21.4699 7.85952 21.7574V24.1536Z" fill="#3993D6"/>
<path d="M24.5 20C24.75 20 25 19.8333 25 19.5C25 19.25 24.8333 19 24.5 19C24.25 19 24 19.1667 24 19.5C24 19.75 24.25 20 24.5 20Z" fill="#3993D6"/>
<path d="M25.208 5.36743C24.0578 5.36743 23.0993 6.32591 23.0993 7.47608V11.6934C22.5243 11.6934 22.045 11.8851 21.5658 12.2685L20.4156 13.4186C19.7447 14.0896 18.1153 14.6647 17.1568 14.7605C15.5274 14.9522 14.3772 16.2941 14.3772 17.9235V24.9204C14.3772 25.2079 14.5689 25.4955 14.9523 25.4955H20.5115C20.799 25.4955 21.0865 25.3038 21.0865 24.9204V22.045L22.8118 21.1823C23.0993 21.0865 23.1952 20.7031 23.0035 20.5114C22.9077 20.2238 22.5243 20.128 22.3326 20.3197L20.3198 21.374C20.1281 21.4699 20.0322 21.6616 20.0322 21.8533V24.537H15.5274V18.211C15.5274 17.1567 16.2942 16.2941 17.4443 16.1024C18.5945 16.0065 20.5115 15.2398 21.2782 14.3771L22.4284 13.227C22.716 12.9394 23.1952 12.8436 23.4827 12.9394C23.8661 13.1311 24.1537 13.5145 24.1537 13.8979C24.1537 14.1854 24.0578 14.473 23.8661 14.6647L21.0865 17.2526C20.8948 17.4443 20.8948 17.8276 21.0865 18.0193C21.2782 18.211 21.6616 18.211 21.8533 18.0193L24.5371 15.3356C24.9205 14.9522 25.1122 14.3771 25.1122 13.802C25.1122 13.0353 24.7288 12.3643 24.0578 11.9809V7.47608C24.0578 6.901 24.5371 6.42176 25.1122 6.42176C25.6872 6.42176 26.1665 6.901 26.1665 7.47608V14.6647C26.1665 15.6231 25.8789 16.5816 25.4955 17.4443C25.3997 17.7318 25.4955 18.0193 25.6872 18.1152C25.9748 18.211 26.2623 18.1152 26.3582 17.9235C26.9333 16.965 27.2208 15.8148 27.2208 14.6647V7.47608C27.3167 6.32591 26.3582 5.36743 25.208 5.36743Z" fill="#3993D6"/>
<path d="M20.4156 25.6872H14.8564C14.473 25.6872 14.0896 25.3038 14.0896 24.9204V18.0193C14.0896 16.2941 15.4315 14.8564 17.1567 14.6647C18.1152 14.5688 19.6488 13.9937 20.3197 13.3228L21.4699 12.1726C21.8533 11.7892 22.3325 11.5017 22.9076 11.5017V7.47609C22.9076 6.13422 23.9619 5.0799 25.3038 5.0799C26.6457 5.0799 27.7 6.13422 27.7 7.47609V14.6647C27.7 15.8149 27.4124 17.0609 26.8374 18.0193C26.6457 18.4027 26.1664 18.4986 25.783 18.3069C25.5913 18.211 25.4955 18.0194 25.3996 17.8277C25.3038 17.636 25.3996 17.4443 25.4955 17.2526C25.9747 16.4858 26.1664 15.5273 26.1664 14.5688V7.47609C26.1664 6.99685 25.783 6.61346 25.3038 6.61346C24.8246 6.61346 24.4412 6.99685 24.4412 7.47609V11.8851C25.1121 12.3643 25.4955 13.0353 25.4955 13.802C25.4955 14.473 25.2079 15.0481 24.8246 15.4315L22.1408 18.1152C21.8533 18.4027 21.374 18.4027 21.0865 18.1152C20.8948 17.9235 20.8948 17.7318 20.8948 17.5401C20.8948 17.3484 20.9906 17.1567 21.0865 16.965L23.7702 14.2813C23.9619 14.0896 23.9619 13.8979 23.9619 13.7062C23.9619 13.3228 23.7702 13.0353 23.3868 12.9394C23.0993 12.8436 22.7159 12.9394 22.5242 13.1311L21.2782 14.3771C20.4156 15.2398 18.4986 16.0065 17.2526 16.1024C16.2941 16.1982 15.5273 16.965 15.5273 17.9235V24.0578H19.5529V21.6616C19.5529 21.374 19.7446 21.0865 19.9363 20.9906L21.9491 19.9363C22.3325 19.7446 22.8118 19.9363 23.0034 20.3197C23.1951 20.7031 23.0034 21.1823 22.6201 21.374L20.9906 22.1408V24.9204C21.1823 25.3038 20.8948 25.6872 20.4156 25.6872ZM23.0993 11.8851C22.6201 11.8851 22.1408 12.0768 21.7574 12.4602L20.6073 13.6104C19.9363 14.2813 18.2111 14.9522 17.2526 15.0481C15.719 15.2398 14.5688 16.4858 14.5688 17.9235V24.9204C14.5688 25.1121 14.6647 25.2079 14.8564 25.2079H20.4156C20.6073 25.2079 20.7031 25.1121 20.7031 24.9204V21.9491L22.5242 20.9906C22.6201 20.8948 22.7159 20.7031 22.6201 20.6072C22.5242 20.5114 22.3325 20.4155 22.2367 20.5114L20.2239 21.5657C20.128 21.6616 20.0322 21.7574 20.0322 21.8533V24.7287H15.0481V18.1152C15.0481 16.8692 15.9107 15.9107 17.1567 15.8148C18.3069 15.719 20.128 14.9522 20.8948 14.1854L22.045 13.0353C22.4284 12.6519 22.9076 12.556 23.3868 12.7477C23.8661 12.9394 24.2495 13.4187 24.2495 13.9937C24.2495 14.3771 24.1536 14.6647 23.8661 14.9522L21.1823 17.636C21.0865 17.7318 21.0865 17.7318 21.0865 17.8277C21.0865 17.9235 21.0865 18.0193 21.1823 18.0193C21.2782 18.1152 21.4699 18.1152 21.5657 18.0193L24.2495 15.3356C24.6329 14.9522 24.8246 14.473 24.8246 13.9937C24.8246 13.3228 24.4412 12.7477 23.8661 12.3643V12.0768V7.47609C23.8661 6.80516 24.4412 6.13422 25.2079 6.13422C25.9747 6.13422 26.5498 6.70931 26.5498 7.47609V14.6647C26.5498 15.719 26.2623 16.6775 25.783 17.5401C25.783 17.636 25.783 17.7318 25.783 17.7318C25.783 17.8277 25.8789 17.8277 25.8789 17.9235C25.9747 18.0194 26.1664 17.9235 26.2623 17.8277C26.7415 16.8692 27.0291 15.719 27.0291 14.6647V7.47609C27.0291 6.42176 26.1664 5.55913 25.1121 5.55913C24.0578 5.55913 23.1951 6.42176 23.1951 7.47609V11.9809H23.0993V11.8851Z" fill="#3993D6"/>
</svg>
