<svg width="17" height="15" viewBox="0 0 17 15" fill="none" xmlns="http://www.w3.org/2000/svg">
<path d="M12.8779 3.37109C12.8779 2.33356 12.1989 0.6875 10.3771 0.6875C9.62851 0.6875 8.99885 1.04039 8.50003 1.73795C8.00121 1.04039 7.37152 0.6875 6.623 0.6875C4.80111 0.6875 4.12219 2.33356 4.12219 3.37109C4.12219 5.15995 5.51832 6.27892 7.42561 7.90986C7.70586 8.14947 7.99566 8.39729 8.30463 8.66535C8.36069 8.71398 8.43034 8.73828 8.50003 8.73828C8.56971 8.73828 8.63937 8.71398 8.69542 8.66535C9.00439 8.39729 9.29419 8.14947 9.57445 7.90986C11.5712 6.2024 12.8779 5.12214 12.8779 3.37109V3.37109ZM8.50003 8.04579C8.26175 7.84017 8.03451 7.64585 7.81318 7.45657C5.81772 5.75031 4.71855 4.81039 4.71855 3.37109C4.71855 2.39477 5.35727 1.28385 6.623 1.28385C7.28356 1.28385 7.81195 1.66314 8.23841 2.44335C8.29068 2.539 8.39101 2.59852 8.50003 2.59852C8.60904 2.59852 8.70938 2.539 8.76165 2.44335C9.1881 1.66314 9.7165 1.28385 10.3771 1.28385C11.6251 1.28385 12.2815 2.37828 12.2815 3.37109C12.2815 4.81039 11.1823 5.75031 9.18688 7.4566C8.96554 7.64585 8.7383 7.84017 8.50003 8.04579V8.04579Z" fill="#104E5B"/>
<path d="M3.00934 12.3795L4.44482 13.0971V14.7018C4.44482 14.8665 4.57835 15 4.743 15H7.90368C8.06833 15 8.20186 14.8665 8.20186 14.7018V10.8091C8.20186 9.89558 7.51656 9.138 6.61004 9.04711L6.58565 9.04449C6.06094 8.99189 5.13188 8.63301 4.76504 8.26619L4.09539 7.59681C3.87006 7.37151 3.5706 7.24741 3.25212 7.24741V4.86199C3.25212 4.20433 2.71707 3.66928 2.05941 3.66928C1.40175 3.66928 0.866699 4.20433 0.866699 4.86199V8.91243C0.866699 10.3799 1.69557 11.7224 3.00934 12.3795ZM1.46305 4.86199C1.46305 4.53316 1.73058 4.26564 2.05941 4.26564C2.38824 4.26564 2.65576 4.53316 2.65576 4.86199V7.40726C2.29211 7.61753 2.05941 8.00958 2.05941 8.44011C2.05941 8.7586 2.18351 9.05806 2.40884 9.28336L3.93581 10.8106C4.05221 10.9271 4.24102 10.9271 4.35749 10.8107C4.47393 10.6942 4.47396 10.5054 4.35752 10.389L2.83055 8.86168C2.71781 8.749 2.65576 8.59928 2.65576 8.44011C2.65576 8.18774 2.8155 7.96172 3.05329 7.87772C3.05332 7.87772 3.05338 7.87769 3.05341 7.87766C3.05347 7.87763 3.05356 7.87763 3.05362 7.8776C3.2593 7.80461 3.50327 7.84808 3.67374 8.01858L4.34338 8.68796C5.03474 9.37931 6.54521 9.63944 6.54823 9.64028C7.15096 9.70069 7.60547 10.2032 7.60547 10.8091V14.4037H5.04115V12.9128C5.04115 12.7998 4.97731 12.6966 4.87632 12.6461L3.27603 11.8461C2.15778 11.2868 1.46305 10.1627 1.46305 8.91243V4.86199Z" fill="#104E5B"/>
<path d="M14.553 11.9586C14.7177 11.9586 14.8512 11.8251 14.8512 11.6604C14.8512 11.4957 14.7177 11.3622 14.553 11.3622C14.3883 11.3622 14.2548 11.4957 14.2548 11.6604C14.2548 11.8251 14.3883 11.9586 14.553 11.9586Z" fill="#104E5B"/>
<path d="M14.9407 3.66928C14.283 3.66928 13.748 4.20433 13.748 4.86199V7.24741C13.4295 7.24741 13.13 7.37151 12.9047 7.59681L12.235 8.26625C11.8682 8.63304 10.9391 8.99192 10.4121 9.04473L10.3924 9.04688C9.48352 9.138 8.79822 9.89561 8.79822 10.8091V14.7018C8.79822 14.8665 8.93174 15 9.09639 15H12.2571C12.4217 15 12.5552 14.8665 12.5552 14.7018V13.0971L13.5312 12.6092C13.6785 12.5355 13.7382 12.3565 13.6646 12.2092C13.5909 12.0619 13.4118 12.0021 13.2645 12.0758L12.1237 12.6461C12.0227 12.6966 11.9589 12.7998 11.9589 12.9128V14.4037H9.39457V10.8091C9.39457 10.2032 9.84908 9.70069 10.4541 9.64004L10.4739 9.63789C11.1207 9.57304 12.1916 9.15303 12.6566 8.68799L13.3264 8.01855C13.4973 7.84755 13.7418 7.805 13.9464 7.8776C13.9465 7.87763 13.9466 7.87763 13.9466 7.87766C13.9467 7.87766 13.9467 7.87769 13.9468 7.87772C14.1846 7.96172 14.3443 8.18774 14.3443 8.44011C14.3443 8.59928 14.2823 8.749 14.1696 8.86174L12.6426 10.389C12.5261 10.5054 12.5262 10.6942 12.6426 10.8107C12.759 10.9271 12.9479 10.9271 13.0643 10.8107L14.5913 9.28342C14.8166 9.05806 14.9407 8.7586 14.9407 8.44011C14.9407 8.00958 14.708 7.61753 14.3443 7.40726V4.86199C14.3443 4.53316 14.6118 4.26564 14.9407 4.26564C15.2695 4.26564 15.537 4.53316 15.537 4.86199V8.91243C15.537 9.45797 15.3994 9.99958 15.1389 10.4787C15.0602 10.6234 15.1137 10.8044 15.2584 10.8831C15.403 10.9617 15.5842 10.9083 15.6628 10.7635C15.9707 10.1973 16.1334 9.55718 16.1334 8.91243V4.86199C16.1334 4.20433 15.5983 3.66928 14.9407 3.66928V3.66928Z" fill="#104E5B"/>
</svg>
