<?xml version="1.0" encoding="UTF-8"?>
<!DOCTYPE svg PUBLIC "-//W3C//DTD SVG 1.1//EN" "http://www.w3.org/Graphics/SVG/1.1/DTD/svg11.dtd">
<!-- Creator: CorelDRAW 2019 (64-Bit) -->
<svg xmlns="http://www.w3.org/2000/svg" xml:space="preserve" width="30px" height="30px" version="1.1" style="shape-rendering:geometricPrecision; text-rendering:geometricPrecision; image-rendering:optimizeQuality; fill-rule:evenodd; clip-rule:evenodd"
viewBox="0 0 30 30"
 xmlns:xlink="http://www.w3.org/1999/xlink">
 <defs>
  <style type="text/css">
   <![CDATA[
    .fil0 {fill:#123270}
    .fil1 {fill:#265AAD;fill-rule:nonzero}
   ]]>
  </style>
 </defs>
 <g id="Layer_x0020_1">
  <metadata id="CorelCorpID_0Corel-Layer"/>
  <g id="_2654079759840">
   <path class="fil0" d="M13.91 25.32c-0.37,-0.85 -0.17,-1.05 0.33,-1.55 0.29,-0.28 0.94,-0.86 1.5,-0.28 0.73,0.75 -0.59,2.33 -1.83,1.83zm-2.63 -1.48c-0.42,-0.57 -0.59,-0.89 0.03,-1.51 2.29,-2.31 2.52,1.78 -0.03,1.51zm-0.58 -2.98c-1.39,1.72 -2.5,0.53 -1.84,-0.48 0.99,-1.52 2.73,-0.62 1.84,0.48zm-1.9 -2.6c-0.94,1.68 -2.51,1.04 -2.08,-0.02 0.1,-0.27 0.83,-1.01 1.17,-1.09 0.72,-0.17 1.26,0.48 0.91,1.11zm5.73 -7.67c0.24,-0.65 2.4,-2.56 3.2,-2.99 1.62,-0.86 3.29,-0.81 4.78,0.08 3.43,2.07 3.16,6.29 0.94,8.11 -0.64,-0.24 -4.92,-5.04 -5.57,-5.27 -0.48,0.42 -0.8,0.9 -1.61,0.95 -0.88,0.05 -1.41,-0.41 -1.74,-0.88zm-7.72 5.23c-0.66,-0.95 -1.54,-2.01 -1.54,-3.75 0,-2.76 2.3,-5.14 5.32,-5.05 1.33,0.04 3.1,0.93 3.45,1.71 -0.31,0.75 -1.32,1.17 -1.6,1.86 0.35,0.44 1.61,1.68 2.2,2 1.5,0.81 2.61,0.07 3.24,-0.1l3.8 3.7c0.44,0.46 0.93,0.7 0.76,1.7 -0.51,0.32 -0.8,0.52 -1.38,0.04l-3.06 -3.08c-0.38,0.09 -0.88,0.55 -1.04,0.94 0.65,1.33 4.41,3.45 3.02,4.45 -0.65,0.48 -1.09,-0.08 -1.37,-0.36 -0.36,-0.36 -0.63,-0.63 -0.99,-0.99 -0.59,-0.59 -1.42,-1.54 -1.97,-1.86 -0.33,0.25 -0.55,0.51 -0.93,0.86 0.16,0.52 2.42,2.52 3.04,3.22 0.65,0.74 0.21,1.79 -0.8,1.43 -1.13,-0.41 0.02,-0.58 -2.38,-0.75 -0.63,-1.1 -0.83,-1.37 -2.23,-1.71 -0.44,-1.7 -1.1,-1.62 -1.96,-2.12 -0.42,-2.9 -2.34,-2.25 -3.58,-2.14zm-0.97 1.08c-0.34,0.68 -1.01,1.23 -0.48,2.5 0.31,0.74 0.9,1.16 1.81,1.41 0.32,2.52 1.59,1.95 2.2,2.62 0.73,0.81 0.08,1.77 2.93,1.92 0.5,0.91 1.2,2 2.94,1.51 0.68,-0.19 1.95,-1.27 2.11,-2.58 1.66,-0.81 1.72,-0.54 2.3,-2.37 2.05,-0.34 1.81,-1.57 2.17,-2.04 0.5,-0.4 0.77,-0.2 1.32,-0.68 1.26,-1.12 0.19,-1.11 1.49,-2.47 5.47,-5.74 -1.61,-14.38 -8.29,-10.02 -0.42,0.27 -0.77,0.74 -1.18,0.9 -1.22,-0.91 -2.35,-2.01 -4.58,-2.06 -5.4,-0.1 -8.07,5.46 -6.11,9.44 0.43,0.87 0.98,1.3 1.37,1.92z"/>
   <path class="fil1" d="M15.2 0.08c4.14,0 7.89,1.68 10.61,4.39 2.71,2.72 4.39,6.47 4.39,10.61 0,4.14 -1.68,7.89 -4.39,10.61 -2.72,2.71 -6.47,4.39 -10.61,4.39 -4.14,0 -7.89,-1.68 -10.6,-4.39 -2.72,-2.72 -4.4,-6.47 -4.4,-10.61 0,-4.14 1.68,-7.89 4.4,-10.61 2.71,-2.71 6.46,-4.39 10.6,-4.39zm10.06 4.94c-2.57,-2.58 -6.13,-4.17 -10.06,-4.17 -3.93,0 -7.48,1.59 -10.06,4.17 -2.57,2.57 -4.16,6.13 -4.16,10.06 0,3.93 1.59,7.48 4.16,10.06 2.58,2.57 6.13,4.17 10.06,4.17 3.93,0 7.49,-1.6 10.06,-4.17 2.58,-2.58 4.17,-6.13 4.17,-10.06 0,-3.93 -1.59,-7.49 -4.17,-10.06z"/>
  </g>
 </g>
</svg>
