<svg width="31" height="27" viewBox="0 0 31 27" fill="none" xmlns="http://www.w3.org/2000/svg">
<path d="M15.9538 25.356C12.6531 22.1052 9.35227 18.8044 5.85145 15.2536C4.65116 14.0533 3.00077 12.603 2.35062 11.3527C-1.00017 5.1012 6.5016 -1.40033 12.1529 2.85067C12.503 3.10073 12.8031 3.4008 13.1032 3.75088C13.3532 4.05095 13.6533 4.45105 14.0534 4.6511C16.804 6.15145 17.0041 1.75041 21.6052 1.50035C25.8562 1.25029 29.407 4.80113 28.6068 9.30219C28.2067 11.5027 26.8564 12.703 25.7561 13.8533C24.5058 15.1036 23.3556 16.2538 22.0553 17.5541C20.805 18.8544 19.6047 20.0047 18.3544 21.255" stroke="#0250B7" stroke-width="1.65635" stroke-miterlimit="22.9256"/>
<path d="M8.45199 4.00097C9.30219 4.00097 10.1024 4.30104 10.9026 4.85117C11.1526 5.05121 11.3027 5.20125 11.5527 5.45131C11.6027 5.50132 11.6027 5.55133 11.6527 5.55133V5.60134C11.9528 5.95142 12.4029 6.50155 13.1031 6.90165C13.8533 7.30174 14.6034 7.50179 15.3536 7.50179C17.154 7.50179 18.3043 6.35152 19.1045 5.55133C19.9547 4.70113 20.6049 4.10099 21.9552 4.05098C22.0552 4.05098 22.1552 4.05098 22.2052 4.05098C23.4555 4.05098 24.6058 4.55109 25.406 5.45131C26.2562 6.40153 26.5563 7.65183 26.3562 8.95213C26.1562 10.2024 25.406 10.9526 24.4558 11.9028L24.0057 12.3029C22.8054 13.5032 21.7051 14.6035 20.4048 15.9038C19.7046 16.6539 17.4541 18.8545 15.7037 20.6049L15.6037 20.7049L15.3036 21.005C13.0531 18.8045 10.5025 16.2038 7.80184 13.5032C7.50177 13.2031 7.2017 12.9031 6.85161 12.603C6.05142 11.8028 5.00118 10.8026 4.70111 10.2024C3.20075 7.40177 5.25124 5.45131 5.70134 5.10122C6.50153 4.40106 7.50177 4.00097 8.45199 4.00097Z" fill="#FFCC00"/>
</svg>
