<?xml version="1.0" encoding="UTF-8"?>
<!DOCTYPE svg PUBLIC "-//W3C//DTD SVG 1.1//EN" "http://www.w3.org/Graphics/SVG/1.1/DTD/svg11.dtd">
<!-- Creator: CorelDRAW 2019 (64-Bit) -->
<svg xmlns="http://www.w3.org/2000/svg" xml:space="preserve" width="30px" height="30px" version="1.1" style="shape-rendering:geometricPrecision; text-rendering:geometricPrecision; image-rendering:optimizeQuality; fill-rule:evenodd; clip-rule:evenodd"
viewBox="0 0 30 30"
 xmlns:xlink="http://www.w3.org/1999/xlink">
 <defs>
  <style type="text/css">
   <![CDATA[
    .fil0 {fill:#123270;fill-rule:nonzero}
    .fil1 {fill:#265AAD;fill-rule:nonzero}
   ]]>
  </style>
 </defs>
 <g id="Layer_x0020_1">
  <metadata id="CorelCorpID_0Corel-Layer"/>
  <g id="_2654077633280">
   <path class="fil0" d="M15.2 4.57c2.9,0 5.53,1.18 7.43,3.08 1.9,1.9 3.08,4.53 3.08,7.43 0,2.9 -1.18,5.53 -3.08,7.43 -1.9,1.9 -4.53,3.08 -7.43,3.08 -2.9,0 -5.53,-1.18 -7.43,-3.08 -1.9,-1.9 -3.08,-4.53 -3.08,-7.43 0,-2.9 1.18,-5.53 3.08,-7.43 1.9,-1.9 4.53,-3.08 7.43,-3.08zm6.37 4.14c-1.63,-1.63 -3.88,-2.64 -6.37,-2.64 -2.49,0 -4.74,1.01 -6.37,2.64 -1.63,1.63 -2.64,3.88 -2.64,6.37 0,2.49 1.01,4.74 2.64,6.37 1.63,1.63 3.88,2.64 6.37,2.64 2.49,0 4.74,-1.01 6.37,-2.64 1.63,-1.63 2.64,-3.88 2.64,-6.37 0,-2.49 -1.01,-4.74 -2.64,-6.37z"/>
   <path class="fil0" d="M16.5 13.04l0 4.65c0,0.37 0.02,0.64 0.06,0.81 0.05,0.17 0.13,0.32 0.26,0.47 0.1,0.12 0.17,0.22 0.21,0.3 0.03,0.08 0.05,0.19 0.05,0.32 0,0.68 -0.55,1.03 -1.65,1.03 -0.59,0 -1.05,-0.08 -1.4,-0.23 -0.12,-0.05 -0.21,-0.14 -0.28,-0.28 -0.08,-0.13 -0.11,-0.28 -0.11,-0.45 0,-0.15 0.02,-0.26 0.05,-0.34 0.04,-0.08 0.13,-0.21 0.29,-0.38 0.1,-0.13 0.17,-0.33 0.22,-0.6 0.04,-0.28 0.06,-0.69 0.06,-1.24 0,-0.18 -0.01,-0.51 -0.02,-0.99 -0.01,-0.48 -0.03,-0.76 -0.03,-0.84 -0.02,-0.22 -0.12,-0.39 -0.29,-0.51 -0.2,-0.14 -0.31,-0.35 -0.31,-0.64 0,-0.33 0.14,-0.58 0.41,-0.75 0.38,-0.23 0.78,-0.42 1.21,-0.58 0.43,-0.16 0.76,-0.24 0.99,-0.24 0.19,0 0.28,0.16 0.28,0.49zm-0.99 -3.5c0.29,0 0.52,0.09 0.69,0.26 0.17,0.18 0.26,0.41 0.26,0.7 0,0.41 -0.13,0.74 -0.39,0.98 -0.41,0.38 -0.9,0.56 -1.49,0.56 -0.24,0 -0.44,-0.07 -0.58,-0.22 -0.19,-0.19 -0.29,-0.46 -0.29,-0.8 0,-0.46 0.2,-0.82 0.62,-1.08 0.42,-0.26 0.81,-0.4 1.18,-0.4z"/>
   <path class="fil1" d="M15.2 0.08c4.14,0 7.89,1.68 10.61,4.39 2.71,2.72 4.39,6.47 4.39,10.61 0,4.14 -1.68,7.89 -4.39,10.61 -2.72,2.71 -6.47,4.39 -10.61,4.39 -4.14,0 -7.89,-1.68 -10.61,-4.39 -2.71,-2.72 -4.39,-6.47 -4.39,-10.61 0,-4.14 1.68,-7.89 4.39,-10.61 2.72,-2.71 6.47,-4.39 10.61,-4.39zm10.06 4.94c-2.57,-2.58 -6.13,-4.17 -10.06,-4.17 -3.93,0 -7.48,1.59 -10.06,4.17 -2.57,2.57 -4.17,6.13 -4.17,10.06 0,3.93 1.6,7.48 4.17,10.06 2.58,2.57 6.13,4.17 10.06,4.17 3.93,0 7.49,-1.6 10.06,-4.17 2.58,-2.58 4.17,-6.13 4.17,-10.06 0,-3.93 -1.59,-7.49 -4.17,-10.06z"/>
  </g>
 </g>
</svg>
