<svg width="26" height="25" viewBox="0 0 26 25" fill="none" xmlns="http://www.w3.org/2000/svg">
<path d="M12.9886 2.90739C10.4248 2.90739 7.96609 3.92584 6.15324 5.73869C4.34039 7.55154 3.32194 10.0103 3.32194 12.5741C3.32194 15.1378 4.34039 17.5966 6.15324 19.4094C7.96609 21.2223 10.4248 22.2407 12.9886 22.2407C15.5524 22.2407 18.0111 21.2223 19.824 19.4094C21.6368 17.5966 22.6553 15.1378 22.6553 12.5741C22.6553 10.0103 21.6368 7.55154 19.824 5.73869C18.0111 3.92584 15.5524 2.90739 12.9886 2.90739V2.90739ZM0.905273 12.5741C0.905273 5.90043 6.31498 0.490723 12.9886 0.490723C19.6622 0.490723 25.0719 5.90043 25.0719 12.5741C25.0719 19.2477 19.6622 24.6574 12.9886 24.6574C6.31498 24.6574 0.905273 19.2477 0.905273 12.5741ZM12.9886 18.6157C13.3091 18.6157 13.6164 18.4884 13.843 18.2618C14.0696 18.0352 14.1969 17.7279 14.1969 17.4074V12.5741C14.1969 12.2536 14.0696 11.9462 13.843 11.7196C13.6164 11.493 13.3091 11.3657 12.9886 11.3657C12.6681 11.3657 12.3608 11.493 12.1342 11.7196C11.9076 11.9462 11.7803 12.2536 11.7803 12.5741V17.4074C11.7803 17.7279 11.9076 18.0352 12.1342 18.2618C12.3608 18.4884 12.6681 18.6157 12.9886 18.6157ZM12.9886 6.53239C12.6681 6.53239 12.3608 6.6597 12.1342 6.8863C11.9076 7.11291 11.7803 7.42025 11.7803 7.74072C11.7803 8.06119 11.9076 8.36854 12.1342 8.59514C12.3608 8.82175 12.6681 8.94906 12.9886 8.94906H13.0007C13.3212 8.94906 13.6285 8.82175 13.8551 8.59514C14.0817 8.36854 14.209 8.06119 14.209 7.74072C14.209 7.42025 14.0817 7.11291 13.8551 6.8863C13.6285 6.6597 13.3212 6.53239 13.0007 6.53239H12.9886Z" fill="#3993D6"/>
</svg>
