<svg width="29" height="29" viewBox="0 0 29 29" fill="none" xmlns="http://www.w3.org/2000/svg">
<path d="M14.5 4.83335C11.9362 4.83335 9.47749 5.8518 7.66464 7.66466C5.85179 9.47751 4.83334 11.9363 4.83334 14.5C4.83334 17.0638 5.85179 19.5225 7.66464 21.3354C9.47749 23.1482 11.9362 24.1667 14.5 24.1667C17.0638 24.1667 19.5225 23.1482 21.3354 21.3354C23.1482 19.5225 24.1667 17.0638 24.1667 14.5C24.1667 11.9363 23.1482 9.47751 21.3354 7.66466C19.5225 5.8518 17.0638 4.83335 14.5 4.83335V4.83335ZM2.41667 14.5C2.41667 7.8264 7.82638 2.41669 14.5 2.41669C21.1736 2.41669 26.5833 7.8264 26.5833 14.5C26.5833 21.1736 21.1736 26.5834 14.5 26.5834C7.82638 26.5834 2.41667 21.1736 2.41667 14.5ZM14.5 20.5417C14.8205 20.5417 15.1278 20.4144 15.3544 20.1878C15.581 19.9612 15.7083 19.6538 15.7083 19.3334V14.5C15.7083 14.1796 15.581 13.8722 15.3544 13.6456C15.1278 13.419 14.8205 13.2917 14.5 13.2917C14.1795 13.2917 13.8722 13.419 13.6456 13.6456C13.419 13.8722 13.2917 14.1796 13.2917 14.5V19.3334C13.2917 19.6538 13.419 19.9612 13.6456 20.1878C13.8722 20.4144 14.1795 20.5417 14.5 20.5417ZM14.5 8.45835C14.1795 8.45835 13.8722 8.58566 13.6456 8.81227C13.419 9.03887 13.2917 9.34622 13.2917 9.66669C13.2917 9.98716 13.419 10.2945 13.6456 10.5211C13.8722 10.7477 14.1795 10.875 14.5 10.875H14.5121C14.8326 10.875 15.1399 10.7477 15.3665 10.5211C15.5931 10.2945 15.7204 9.98716 15.7204 9.66669C15.7204 9.34622 15.5931 9.03887 15.3665 8.81227C15.1399 8.58566 14.8326 8.45835 14.5121 8.45835H14.5Z" fill="#023273"/>
</svg>
