<svg width="16" height="16" viewBox="0 0 16 16" fill="none" xmlns="http://www.w3.org/2000/svg">
<path d="M14.8756 3.15625H11.5938V2.375C11.5932 1.91932 11.412 1.48245 11.0898 1.16023C10.7676 0.838015 10.3307 0.656767 9.875 0.65625H6.125C5.66932 0.656767 5.23245 0.838015 4.91023 1.16023C4.58802 1.48245 4.40677 1.91932 4.40625 2.375V3.15625H1.12563C0.835646 3.15658 0.557639 3.27192 0.352592 3.47697C0.147546 3.68201 0.0322058 3.96002 0.031875 4.25V10.4879C0.0317187 10.492 0.03125 10.4959 0.03125 10.5C0.03125 10.5041 0.0317187 10.508 0.031875 10.5121V14.25C0.0322058 14.54 0.147546 14.818 0.352592 15.023C0.557639 15.2281 0.835646 15.3434 1.12563 15.3438H14.8756C15.1656 15.3434 15.4436 15.2281 15.6487 15.023C15.8537 14.818 15.969 14.54 15.9694 14.25V4.25C15.969 3.96002 15.8537 3.68201 15.6487 3.47697C15.4436 3.27192 15.1656 3.15658 14.8756 3.15625ZM5.34375 2.375C5.34398 2.16787 5.42636 1.96929 5.57282 1.82282C5.71929 1.67636 5.91787 1.59398 6.125 1.59375H9.875C10.0821 1.59398 10.2807 1.67636 10.4272 1.82282C10.5736 1.96929 10.656 2.16787 10.6563 2.375V3.15625H5.34375V2.375ZM1.12563 4.09375H14.8756C14.917 4.09381 14.9568 4.11029 14.986 4.13958C15.0153 4.16887 15.0318 4.20858 15.0319 4.25V10.0312H0.969375V4.25C0.969437 4.20858 0.985919 4.16887 1.01521 4.13958C1.0445 4.11029 1.0842 4.09381 1.12563 4.09375ZM14.8756 14.4062H1.12563C1.0842 14.4062 1.0445 14.3897 1.01521 14.3604C0.985919 14.3311 0.969437 14.2914 0.969375 14.25V10.9688H15.0319V14.25C15.0318 14.2914 15.0153 14.3311 14.986 14.3604C14.9568 14.3897 14.917 14.4062 14.8756 14.4062Z" fill="#023374"/>
</svg>
