<svg width="33" height="22" viewBox="0 0 33 22" fill="none" xmlns="http://www.w3.org/2000/svg">
<path d="M0.742188 1.37092V20.3495C0.742188 21.0649 1.33132 21.654 2.0467 21.654H30.8723C31.5877 21.654 32.1768 21.0649 32.1768 20.3495V1.37092C32.1768 0.655542 31.5877 0.0664062 30.8723 0.0664062H2.0467C1.33132 0.0664062 0.742188 0.655542 0.742188 1.37092ZM15.5547 13.4903L5.03446 2.97C4.52949 2.46503 4.69781 2.04422 5.41319 2.04422H27.5479C28.2633 2.04422 28.4316 2.46503 27.9266 2.97L17.4063 13.4903C16.9013 13.9953 16.0597 13.9953 15.5547 13.4903ZM17.4063 16.2676L20.4362 13.2378C20.9411 12.7328 21.7828 12.7328 22.2877 13.2378L27.9266 18.8346C28.4316 19.3396 28.2633 19.7604 27.5479 19.7604H5.41319C4.69781 19.7604 4.52949 19.3396 5.03446 18.8346L10.6313 13.2378C11.1362 12.7328 11.9779 12.7328 12.4828 13.2378L15.5547 16.3097C16.0597 16.7726 16.9013 16.7726 17.4063 16.2676ZM30.2411 4.73741V17.0251C30.2411 17.7405 29.8203 17.9088 29.3153 17.4038L23.6764 11.807C23.1714 11.3021 23.1714 10.4604 23.6764 9.95547L29.3153 4.3166C29.8203 3.85371 30.2411 4.02203 30.2411 4.73741ZM9.24258 11.807L3.64579 17.4038C3.14081 17.9088 2.72 17.7405 2.72 17.0251V4.73741C2.72 4.02203 3.14081 3.85371 3.64579 4.35868L9.24258 9.95547C9.74755 10.4604 9.74755 11.3021 9.24258 11.807Z" fill="#023273"/>
</svg>
