<svg width="33" height="35" viewBox="0 0 33 35" fill="none" xmlns="http://www.w3.org/2000/svg">
<path d="M15.5516 0.441896L1.83319 12.2246C1.28613 12.6875 0.823242 13.6554 0.823242 14.3708V33.3493C0.823242 34.0647 1.41238 34.6539 2.12776 34.6539H30.9533C31.6687 34.6539 32.2579 34.0647 32.2579 33.3493V14.3708C32.2579 13.6554 31.795 12.6875 31.2479 12.2246L17.5295 0.441896C16.9824 -0.0209966 16.0987 -0.0209966 15.5516 0.441896ZM9.23947 24.891L3.72684 30.4037C3.22187 30.9086 2.80106 30.7403 2.80106 30.0249V17.8635C2.80106 17.1481 3.22187 16.9798 3.72684 17.4848L9.23947 23.0395C9.78652 23.5444 9.78652 24.344 9.23947 24.891ZM13.3634 24.849H19.6756C20.391 24.849 21.4009 25.2698 21.9059 25.7747L27.9656 31.7924C28.4706 32.2973 28.3022 32.7181 27.5868 32.7181H5.49425C4.77887 32.7181 4.61054 32.2973 5.11552 31.7924L11.1331 25.7747C11.6381 25.2698 12.606 24.849 13.3634 24.849ZM29.2701 14.7916L22.0321 21.9874C21.5272 22.4924 20.5172 22.9132 19.8018 22.9132H13.2372C12.5218 22.9132 11.5119 22.4924 11.0069 21.9874L3.85308 14.8336C3.34811 14.3287 3.39019 13.5291 3.93725 13.0662L15.5516 3.21925C16.0987 2.75636 16.9824 2.75636 17.5715 3.21925L29.228 13.0242C29.733 13.5291 29.7751 14.2866 29.2701 14.7916ZM30.3221 17.8635V30.0249C30.3221 30.7403 29.9013 30.9086 29.3963 30.4037L23.7995 24.891C23.2946 24.3861 23.2946 23.5444 23.7995 23.0395L29.3963 17.4848C29.9013 16.9798 30.3221 17.1481 30.3221 17.8635Z" fill="#023273"/>
</svg>
