<svg width="10" height="12" viewBox="0 0 10 12" fill="none" xmlns="http://www.w3.org/2000/svg">
<path d="M7.91634 3.6665V3.08317C7.91634 1.47492 6.60792 0.166504 4.99967 0.166504C3.39142 0.166504 2.08301 1.47492 2.08301 3.08317V4.83317H1.49967C0.856258 4.83317 0.333008 5.35642 0.333008 5.99984V10.6665C0.333008 11.3099 0.856258 11.8332 1.49967 11.8332H8.49967C9.14309 11.8332 9.66634 11.3099 9.66634 10.6665V5.99984C9.66634 5.35642 9.14309 4.83317 8.49967 4.83317H3.24967V3.08317C3.24967 2.11834 4.03484 1.33317 4.99967 1.33317C5.96451 1.33317 6.74967 2.11834 6.74967 3.08317V3.6665H7.91634ZM8.49967 5.99984L8.50084 10.6665H1.49967V5.99984H8.49967Z" fill="#243663"/>
</svg>
