<svg width="40" height="50" viewBox="0 0 40 50" fill="none" xmlns="http://www.w3.org/2000/svg">
<path d="M32.0837 15.333V12.9163C32.0837 6.25359 26.6631 0.833008 20.0003 0.833008C13.3376 0.833008 7.91699 6.25359 7.91699 12.9163V20.1663H5.50032C2.83474 20.1663 0.666992 22.3341 0.666992 24.9997V44.333C0.666992 46.9986 2.83474 49.1663 5.50032 49.1663H34.5003C37.1659 49.1663 39.3337 46.9986 39.3337 44.333V24.9997C39.3337 22.3341 37.1659 20.1663 34.5003 20.1663H12.7503V12.9163C12.7503 8.91917 16.0032 5.66634 20.0003 5.66634C23.9975 5.66634 27.2503 8.91917 27.2503 12.9163V15.333H32.0837ZM34.5003 24.9997L34.5052 44.333H5.50032V24.9997H34.5003Z" fill="#243663"/>
</svg>
