<svg width="20" height="20" viewBox="0 0 20 20" fill="none" xmlns="http://www.w3.org/2000/svg">
<path d="M13 9C13 9.79565 12.6839 10.5587 12.1213 11.1213C11.5587 11.6839 10.7956 12 10 12C9.20435 12 8.44129 11.6839 7.87868 11.1213C7.31607 10.5587 7 9.79565 7 9C7 8.20435 7.31607 7.44129 7.87868 6.87868C8.44129 6.31607 9.20435 6 10 6C10.7956 6 11.5587 6.31607 12.1213 6.87868C12.6839 7.44129 13 8.20435 13 9ZM12 9C12 8.46957 11.7893 7.96086 11.4142 7.58579C11.0391 7.21071 10.5304 7 10 7C9.46957 7 8.96086 7.21071 8.58579 7.58579C8.21071 7.96086 8 8.46957 8 9C8 9.53043 8.21071 10.0391 8.58579 10.4142C8.96086 10.7893 9.46957 11 10 11C10.5304 11 11.0391 10.7893 11.4142 10.4142C11.7893 10.0391 12 9.53043 12 9Z" fill="#1C76C2"/>
<path d="M14.9504 13.9548C16.2633 12.6413 17.0009 10.8601 17.0009 9.00285C17.0009 7.14563 16.2633 5.36443 14.9504 4.05085C14.3005 3.40052 13.5289 2.88463 12.6795 2.53265C11.8302 2.18068 10.9198 1.99951 10.0004 1.99951C9.08105 1.99951 8.17067 2.18068 7.32133 2.53265C6.47198 2.88463 5.70032 3.40052 5.05043 4.05085C3.73753 5.36443 3 7.14563 3 9.00285C3 10.8601 3.73753 12.6413 5.05043 13.9548L6.57143 15.4538L8.61443 17.4388L8.74743 17.5568C9.52243 18.1848 10.6574 18.1448 11.3874 17.4388L13.8224 15.0688L14.9504 13.9548ZM5.75543 4.75585C6.31281 4.19823 6.97458 3.75588 7.70295 3.45409C8.43132 3.15229 9.21202 2.99696 10.0004 2.99696C10.7889 2.99696 11.5695 3.15229 12.2979 3.45409C13.0263 3.75588 13.6881 4.19823 14.2454 4.75585C15.3401 5.8513 15.9696 7.32716 16.0024 8.8755C16.0352 10.4238 15.4688 11.925 14.4214 13.0658L14.2454 13.2498L12.9244 14.5538L10.6944 16.7218L10.6004 16.8018C10.4275 16.9321 10.2169 17.0026 10.0004 17.0026C9.78394 17.0026 9.57333 16.9321 9.40043 16.8018L9.30743 16.7218L6.32743 13.8168L5.75543 13.2498L5.57943 13.0668C4.53208 11.926 3.96571 10.4248 3.99851 8.8765C4.0313 7.32816 4.66072 5.8523 5.75543 4.75685V4.75585Z" fill="#1C76C2"/>
</svg>
