<svg width="16" height="22" viewBox="0 0 16 22" fill="none" xmlns="http://www.w3.org/2000/svg">
<path d="M8 0.666016C3.86453 0.666016 0.5 3.9406 0.5 7.96551C0.5 13.0244 8.00737 21.666 8.00737 21.666C8.00737 21.666 15.5 12.7756 15.5 7.96551C15.5 3.9406 12.1356 0.666016 8 0.666016ZM10.2629 10.1028C9.63894 10.71 8.81953 11.0136 8 11.0136C7.1806 11.0136 6.36093 10.71 5.73723 10.1028C4.48942 8.88849 4.48942 6.91257 5.73723 5.69812C6.34144 5.1098 7.14517 4.78578 8 4.78578C8.85483 4.78578 9.65843 5.10993 10.2629 5.69812C11.5107 6.91257 11.5107 8.88849 10.2629 10.1028Z" fill="#243663"/>
</svg>
