<svg width="12" height="14" viewBox="0 0 12 14" fill="none" xmlns="http://www.w3.org/2000/svg">
<path d="M5.99978 6.55572C6.6151 6.55572 7.2166 6.37326 7.72822 6.0314C8.23984 5.68955 8.6386 5.20366 8.87408 4.63518C9.10955 4.0667 9.17116 3.44116 9.05112 2.83766C8.93107 2.23416 8.63477 1.67982 8.19967 1.24472C7.76457 0.809624 7.21023 0.51332 6.60673 0.393277C6.00323 0.273234 5.37769 0.334844 4.80921 0.570317C4.24073 0.805789 3.75484 1.20455 3.41299 1.71617C3.07114 2.22779 2.88867 2.82929 2.88867 3.44461C2.88867 4.26973 3.21645 5.06105 3.7999 5.6445C4.38334 6.22794 5.17466 6.55572 5.99978 6.55572ZM5.99978 1.22239C6.4393 1.22239 6.86894 1.35272 7.23438 1.5969C7.59983 1.84108 7.88465 2.18814 8.05285 2.5942C8.22104 3.00026 8.26505 3.44707 8.17931 3.87814C8.09356 4.30921 7.88191 4.70517 7.57113 5.01596C7.26035 5.32674 6.86439 5.53839 6.43332 5.62413C6.00225 5.70988 5.55543 5.66587 5.14938 5.49768C4.74332 5.32948 4.39625 5.04465 4.15207 4.67921C3.90789 4.31377 3.77756 3.88412 3.77756 3.44461C3.77756 2.85524 4.01169 2.29001 4.42843 1.87326C4.84518 1.45651 5.41041 1.22239 5.99978 1.22239Z" fill="#243663"/>
<path d="M11.5427 9.83135C10.8299 9.07802 9.971 8.47797 9.01845 8.06788C8.06591 7.6578 7.03973 7.44629 6.00266 7.44629C4.96558 7.44629 3.93941 7.6578 2.98686 8.06788C2.03431 8.47797 1.17541 9.07802 0.462657 9.83135C0.308129 9.9964 0.222307 10.2141 0.222657 10.4402V12.778C0.222657 13.0138 0.316308 13.2399 0.483007 13.4066C0.649706 13.5733 0.875798 13.6669 1.11155 13.6669H10.8893C11.1251 13.6669 11.3512 13.5733 11.5179 13.4066C11.6846 13.2399 11.7782 13.0138 11.7782 12.778V10.4402C11.7798 10.2147 11.6956 9.99709 11.5427 9.83135ZM10.8893 12.778H1.11155V10.4358C1.74143 9.77254 2.49967 9.24439 3.34015 8.88348C4.18062 8.52257 5.08575 8.33645 6.00043 8.33645C6.91512 8.33645 7.82024 8.52257 8.66072 8.88348C9.50119 9.24439 10.2594 9.77254 10.8893 10.4358V12.778Z" fill="#243663"/>
</svg>
