<svg width="10" height="17" viewBox="0 0 10 17" fill="none" xmlns="http://www.w3.org/2000/svg">
<path d="M0.789474 17H9.21053C9.64579 17 10 16.6425 10 16.2031V0.796875C10 0.357531 9.64579 0 9.21053 0H0.789474C0.354211 0 0 0.357531 0 0.796875V16.2031C0 16.6425 0.354211 17 0.789474 17ZM0.526316 0.796875C0.526316 0.726427 0.554041 0.658864 0.603393 0.60905C0.652745 0.559235 0.71968 0.53125 0.789474 0.53125H9.21053C9.28032 0.53125 9.34726 0.559235 9.39661 0.60905C9.44596 0.658864 9.47368 0.726427 9.47368 0.796875V16.2031C9.47368 16.2736 9.44596 16.3411 9.39661 16.391C9.34726 16.4408 9.28032 16.4688 9.21053 16.4688H0.789474C0.71968 16.4688 0.652745 16.4408 0.603393 16.391C0.554041 16.3411 0.526316 16.2736 0.526316 16.2031V0.796875Z" fill="#243663"/>
<path d="M1.31582 14.3438H8.68424C8.75403 14.3438 8.82097 14.3158 8.87032 14.266C8.91967 14.2161 8.9474 14.1486 8.9474 14.0781V2.92188C8.9474 2.85143 8.91967 2.78386 8.87032 2.73405C8.82097 2.68424 8.75403 2.65625 8.68424 2.65625H1.31582C1.24603 2.65625 1.17909 2.68424 1.12974 2.73405C1.08039 2.78386 1.05266 2.85143 1.05266 2.92188V14.0781C1.05266 14.1486 1.08039 14.2161 1.12974 14.266C1.17909 14.3158 1.24603 14.3438 1.31582 14.3438ZM1.57898 3.1875H8.42108V13.8125H1.57898V3.1875Z" fill="#243663"/>
<path d="M5.2632 15.9375C5.55388 15.9375 5.78952 15.6997 5.78952 15.4062C5.78952 15.1128 5.55388 14.875 5.2632 14.875C4.97253 14.875 4.73689 15.1128 4.73689 15.4062C4.73689 15.6997 4.97253 15.9375 5.2632 15.9375Z" fill="#243663"/>
<path d="M3.94745 2.125H6.05271C6.1225 2.125 6.18944 2.09701 6.23879 2.0472C6.28814 1.99739 6.31587 1.92982 6.31587 1.85938C6.31587 1.78893 6.28814 1.72136 6.23879 1.67155C6.18944 1.62174 6.1225 1.59375 6.05271 1.59375H3.94745C3.87765 1.59375 3.81072 1.62174 3.76137 1.67155C3.71201 1.72136 3.68429 1.78893 3.68429 1.85938C3.68429 1.92982 3.71201 1.99739 3.76137 2.0472C3.81072 2.09701 3.87765 2.125 3.94745 2.125V2.125Z" fill="#243663"/>
</svg>
