<svg width="16" height="19" viewBox="0 0 16 19" fill="none" xmlns="http://www.w3.org/2000/svg">
<path d="M7.79405 5.27084C7.0647 5.27084 6.36523 5.56057 5.8495 6.07629C5.33378 6.59202 5.04405 7.29149 5.04405 8.02084C5.04405 8.75018 5.33378 9.44966 5.8495 9.96538C6.36523 10.4811 7.0647 10.7708 7.79405 10.7708C8.52339 10.7708 9.22287 10.4811 9.73859 9.96538C10.2543 9.44966 10.544 8.75018 10.544 8.02084C10.544 7.29149 10.2543 6.59202 9.73859 6.07629C9.22287 5.56057 8.52339 5.27084 7.79405 5.27084V5.27084ZM6.18988 8.02084C6.18988 7.59538 6.35889 7.18736 6.65973 6.88652C6.96057 6.58568 7.36859 6.41667 7.79405 6.41667C8.2195 6.41667 8.62752 6.58568 8.92836 6.88652C9.2292 7.18736 9.39821 7.59538 9.39821 8.02084C9.39821 8.44629 9.2292 8.85431 8.92836 9.15515C8.62752 9.45599 8.2195 9.625 7.79405 9.625C7.36859 9.625 6.96057 9.45599 6.65973 9.15515C6.35889 8.85431 6.18988 8.44629 6.18988 8.02084Z" fill="#243663"/>
<path d="M13.75 12.8333L9.12635 17.7421C8.95494 17.9241 8.74812 18.0691 8.51859 18.1683C8.28907 18.2674 8.04169 18.3185 7.79168 18.3185C7.54166 18.3185 7.29429 18.2674 7.06476 18.1683C6.83524 18.0691 6.62842 17.9241 6.45701 17.7421L1.83334 12.8333H1.85076L1.84297 12.8242L1.83334 12.8127C0.64658 11.4091 -0.00314265 9.62971 1.14298e-05 7.79167C1.14298e-05 3.48837 3.48839 0 7.79168 0C12.095 0 15.5833 3.48837 15.5833 7.79167C15.5865 9.62971 14.9368 11.4091 13.75 12.8127L13.7404 12.8242L13.7326 12.8333H13.75V12.8333ZM12.8595 12.0913C13.8807 10.8917 14.4403 9.36706 14.4375 7.79167C14.4375 4.12133 11.462 1.14583 7.79168 1.14583C4.12134 1.14583 1.14584 4.12133 1.14584 7.79167C1.14584 9.4325 1.73893 10.9322 2.72389 12.0913L2.86505 12.2577L7.29118 16.956C7.35546 17.0243 7.43301 17.0787 7.51909 17.1159C7.60516 17.153 7.69792 17.1722 7.79168 17.1722C7.88543 17.1722 7.9782 17.153 8.06427 17.1159C8.15034 17.0787 8.2279 17.0243 8.29218 16.956L12.7183 12.2577L12.8595 12.0913Z" fill="#243663"/>
</svg>
