<svg width="15" height="21" viewBox="0 0 15 21" fill="none" xmlns="http://www.w3.org/2000/svg">
<path d="M7.5 0C3.36453 0 0 3.27458 0 7.2995C0 12.3584 7.50737 21 7.50737 21C7.50737 21 15 12.1096 15 7.2995C15 3.27458 11.6356 0 7.5 0ZM9.76291 9.4368C9.13894 10.044 8.31953 10.3476 7.5 10.3476C6.6806 10.3476 5.86093 10.044 5.23723 9.4368C3.98942 8.22248 3.98942 6.24655 5.23723 5.0321C5.84144 4.44379 6.64517 4.11976 7.5 4.11976C8.35483 4.11976 9.15843 4.44391 9.76291 5.0321C11.0107 6.24655 11.0107 8.22248 9.76291 9.4368Z" fill="#243663"/>
</svg>
