<svg width="375" height="171" viewBox="0 0 375 171" fill="none" xmlns="http://www.w3.org/2000/svg">
<g filter="url(#filter0_d)">
<rect x="74" y="98" width="228" height="52" rx="26" fill="#FECB07"/>
<rect x="75" y="99" width="226" height="50" rx="25" stroke="white" stroke-width="2"/>
</g>
<path d="M168.176 131.228C167.34 131.228 166.523 131.076 165.725 130.772C164.927 130.455 164.224 130.006 163.616 129.423L165.117 127.637C165.573 128.042 166.073 128.365 166.618 128.606C167.175 128.847 167.713 128.967 168.233 128.967C168.841 128.967 169.303 128.853 169.62 128.625C169.949 128.384 170.114 128.055 170.114 127.637C170.114 127.371 170.038 127.149 169.886 126.972C169.746 126.795 169.563 126.649 169.335 126.535C169.119 126.421 168.765 126.263 168.271 126.06L166.637 125.357C165.902 125.053 165.3 124.629 164.832 124.084C164.363 123.527 164.129 122.83 164.129 121.994C164.129 121.323 164.312 120.715 164.68 120.17C165.06 119.613 165.579 119.176 166.238 118.859C166.896 118.53 167.637 118.365 168.461 118.365C169.183 118.365 169.892 118.511 170.589 118.802C171.285 119.081 171.887 119.473 172.394 119.98L171.083 121.633C170.652 121.291 170.228 121.038 169.81 120.873C169.392 120.708 168.942 120.626 168.461 120.626C167.941 120.626 167.53 120.734 167.226 120.949C166.922 121.164 166.77 121.462 166.77 121.842C166.77 122.108 166.846 122.33 166.998 122.507C167.162 122.684 167.359 122.83 167.587 122.944C167.827 123.058 168.195 123.216 168.689 123.419L170.285 124.065C171.083 124.394 171.697 124.831 172.128 125.376C172.558 125.908 172.774 126.592 172.774 127.428C172.774 128.125 172.59 128.764 172.223 129.347C171.855 129.917 171.323 130.373 170.627 130.715C169.93 131.057 169.113 131.228 168.176 131.228ZM182.497 125.87C182.497 126.351 182.459 126.744 182.383 127.048H176.569C176.696 127.795 177 128.346 177.481 128.701C177.975 129.056 178.545 129.233 179.191 129.233C179.862 129.233 180.559 129.024 181.281 128.606L182.136 130.183C181.667 130.512 181.142 130.772 180.559 130.962C179.989 131.139 179.419 131.228 178.849 131.228C177.962 131.228 177.158 131.032 176.436 130.639C175.727 130.246 175.163 129.676 174.745 128.929C174.34 128.182 174.137 127.308 174.137 126.307C174.137 125.319 174.34 124.451 174.745 123.704C175.163 122.957 175.708 122.38 176.379 121.975C177.05 121.57 177.766 121.367 178.526 121.367C179.805 121.367 180.787 121.785 181.471 122.621C182.155 123.444 182.497 124.527 182.497 125.87ZM180.274 125.319C180.274 124.711 180.135 124.236 179.856 123.894C179.577 123.539 179.153 123.362 178.583 123.362C178.114 123.362 177.696 123.527 177.329 123.856C176.974 124.173 176.734 124.66 176.607 125.319H180.274ZM186.88 131.228C186.031 131.228 185.417 130.968 185.037 130.449C184.657 129.93 184.467 129.195 184.467 128.245V117.643H187.051V128.359C187.051 128.625 187.101 128.821 187.203 128.948C187.304 129.062 187.418 129.119 187.545 129.119C187.671 129.119 187.785 129.106 187.887 129.081L188.21 131.019C187.842 131.158 187.399 131.228 186.88 131.228ZM197.601 125.87C197.601 126.351 197.563 126.744 197.487 127.048H191.673C191.799 127.795 192.103 128.346 192.585 128.701C193.079 129.056 193.649 129.233 194.295 129.233C194.966 129.233 195.663 129.024 196.385 128.606L197.24 130.183C196.771 130.512 196.245 130.772 195.663 130.962C195.093 131.139 194.523 131.228 193.953 131.228C193.066 131.228 192.262 131.032 191.54 130.639C190.83 130.246 190.267 129.676 189.849 128.929C189.443 128.182 189.241 127.308 189.241 126.307C189.241 125.319 189.443 124.451 189.849 123.704C190.267 122.957 190.811 122.38 191.483 121.975C192.154 121.57 192.87 121.367 193.63 121.367C194.909 121.367 195.891 121.785 196.575 122.621C197.259 123.444 197.601 124.527 197.601 125.87ZM195.378 125.319C195.378 124.711 195.238 124.236 194.96 123.894C194.681 123.539 194.257 123.362 193.687 123.362C193.218 123.362 192.8 123.527 192.433 123.856C192.078 124.173 191.837 124.66 191.711 125.319H195.378ZM203.598 131.228C202.724 131.228 201.939 131.032 201.242 130.639C200.546 130.246 199.995 129.683 199.589 128.948C199.197 128.201 199 127.32 199 126.307C199 125.294 199.216 124.413 199.646 123.666C200.09 122.919 200.679 122.349 201.413 121.956C202.148 121.563 202.952 121.367 203.826 121.367C204.852 121.367 205.771 121.709 206.581 122.393L205.346 124.065C205.106 123.862 204.878 123.717 204.662 123.628C204.447 123.527 204.219 123.476 203.978 123.476C203.282 123.476 202.718 123.736 202.287 124.255C201.869 124.762 201.66 125.446 201.66 126.307C201.66 127.156 201.863 127.84 202.268 128.359C202.686 128.866 203.225 129.119 203.883 129.119C204.453 129.119 205.049 128.878 205.669 128.397L206.695 130.088C206.252 130.468 205.758 130.753 205.213 130.943C204.681 131.133 204.143 131.228 203.598 131.228ZM211.732 131.228C210.642 131.228 209.844 130.918 209.338 130.297C208.831 129.664 208.578 128.783 208.578 127.656V123.647H207.267V121.709L208.711 121.595L209.015 119.087H211.162V121.595H213.461V123.647H211.162V127.637C211.162 128.663 211.58 129.176 212.416 129.176C212.682 129.176 212.992 129.113 213.347 128.986L213.765 130.886C213.081 131.114 212.403 131.228 211.732 131.228Z" fill="#104E5B"/>
<g filter="url(#filter1_d)">
<path d="M15 43C15 34.1634 22.1634 27 31 27H102V80H31C22.1634 80 15 72.8366 15 64V43Z" fill="#3993D6"/>
<path d="M15.5 43C15.5 34.4396 22.4396 27.5 31 27.5H101.5V79.5H31C22.4396 79.5 15.5 72.5604 15.5 64V43Z" stroke="#243663"/>
</g>
<g filter="url(#filter2_d)">
<path d="M101 27H188V80H101V27Z" fill="white"/>
<path d="M101.5 27.5H187.5V79.5H101.5V27.5Z" stroke="#243663"/>
</g>
<g filter="url(#filter3_d)">
<path d="M187 27H274V80H187V27Z" fill="white"/>
<path d="M187.5 27.5H273.5V79.5H187.5V27.5Z" stroke="#243663"/>
</g>
<g filter="url(#filter4_d)">
<path d="M273 27H345C353.837 27 361 34.1634 361 43V64C361 72.8366 353.837 80 345 80H273V27Z" fill="white"/>
<path d="M273.5 27.5H345C353.56 27.5 360.5 34.4396 360.5 43V64C360.5 72.5604 353.56 79.5 345 79.5H273.5V27.5Z" stroke="#243663"/>
</g>
<path d="M49.1702 61.216C48.1742 61.216 47.2802 60.976 46.4882 60.496C45.6962 60.016 45.0722 59.32 44.6162 58.408C44.1602 57.484 43.9322 56.392 43.9322 55.132C43.9322 53.884 44.1662 52.798 44.6342 51.874C45.1022 50.95 45.7382 50.242 46.5422 49.75C47.3582 49.246 48.2642 48.994 49.2602 48.994C49.9442 48.994 50.5682 49.132 51.1322 49.408C51.7082 49.684 52.1942 50.038 52.5902 50.47L51.6002 51.658C50.9162 50.95 50.1482 50.596 49.2962 50.596C48.6122 50.596 48.0062 50.782 47.4782 51.154C46.9622 51.514 46.5542 52.03 46.2542 52.702C45.9662 53.374 45.8222 54.166 45.8222 55.078C45.8222 56.482 46.1282 57.592 46.7402 58.408C47.3642 59.212 48.1982 59.614 49.2422 59.614C50.2262 59.614 51.0962 59.194 51.8522 58.354L52.8422 59.506C51.8702 60.646 50.6462 61.216 49.1702 61.216ZM54.7542 52.198H56.5722V61H54.7542V52.198ZM55.6722 50.542C55.3482 50.542 55.0782 50.44 54.8622 50.236C54.6582 50.032 54.5562 49.768 54.5562 49.444C54.5562 49.132 54.6582 48.874 54.8622 48.67C55.0782 48.466 55.3482 48.364 55.6722 48.364C55.9962 48.364 56.2602 48.466 56.4642 48.67C56.6802 48.874 56.7882 49.132 56.7882 49.444C56.7882 49.768 56.6802 50.032 56.4642 50.236C56.2602 50.44 55.9962 50.542 55.6722 50.542ZM62.2941 61.216C60.5181 61.216 59.6301 60.19 59.6301 58.138V53.656H58.3521V52.288L59.7201 52.198L59.9361 49.768H61.4481V52.198H63.7521V53.656H61.4481V58.138C61.4481 58.678 61.5501 59.086 61.7541 59.362C61.9581 59.626 62.2881 59.758 62.7441 59.758C63.0201 59.758 63.3381 59.686 63.6981 59.542L64.0221 60.892C63.3741 61.108 62.7981 61.216 62.2941 61.216ZM66.0486 64.69C65.6526 64.69 65.2866 64.63 64.9506 64.51L65.2926 63.088C65.5686 63.172 65.7846 63.214 65.9406 63.214C66.8046 63.214 67.4226 62.656 67.7946 61.54L67.9746 60.946L64.4826 52.198H66.3366L67.9746 56.752L68.5146 58.39L68.7846 59.236H68.8566C68.9886 58.804 69.0906 58.432 69.1626 58.12L69.5586 56.752L70.9806 52.198H72.7446L69.5046 61.54C69.1326 62.572 68.6826 63.352 68.1546 63.88C67.6266 64.42 66.9246 64.69 66.0486 64.69Z" fill="white"/>
<path d="M130.309 61.216C129.457 61.216 128.719 61.072 128.095 60.784C127.483 60.496 126.937 60.112 126.457 59.632L127.321 58.462C127.717 58.846 128.137 59.152 128.581 59.38C129.025 59.608 129.529 59.722 130.093 59.722C130.777 59.722 131.335 59.506 131.767 59.074C132.211 58.642 132.433 58.066 132.433 57.346C132.433 56.626 132.229 56.062 131.821 55.654C131.413 55.246 130.867 55.042 130.183 55.042C129.823 55.042 129.511 55.096 129.247 55.204C128.983 55.3 128.665 55.468 128.293 55.708L127.393 55.132L127.753 49.534H133.711V51.082H129.337L129.067 54.124C129.583 53.848 130.123 53.71 130.687 53.71C131.731 53.71 132.589 54.016 133.261 54.628C133.933 55.228 134.269 56.116 134.269 57.292C134.269 58.096 134.083 58.798 133.711 59.398C133.351 59.986 132.871 60.436 132.271 60.748C131.671 61.06 131.017 61.216 130.309 61.216ZM140.12 48.238H141.902V56.5H141.956L145.43 52.198H147.428L144.44 55.762L147.77 61H145.79L143.396 57.004L141.902 58.732V61H140.12V48.238ZM149.296 52.198H150.79L150.934 53.422H150.988C151.42 52.978 151.852 52.63 152.284 52.378C152.728 52.114 153.202 51.982 153.706 51.982C154.918 51.982 155.728 52.522 156.136 53.602C156.628 53.074 157.096 52.672 157.54 52.396C157.996 52.12 158.482 51.982 158.998 51.982C159.898 51.982 160.57 52.282 161.014 52.882C161.47 53.47 161.698 54.328 161.698 55.456V61H159.88V55.69C159.88 54.934 159.76 54.388 159.52 54.052C159.292 53.716 158.92 53.548 158.404 53.548C157.804 53.548 157.138 53.95 156.406 54.754V61H154.588V55.69C154.588 54.934 154.468 54.388 154.228 54.052C154 53.716 153.628 53.548 153.112 53.548C152.512 53.548 151.846 53.95 151.114 54.754V61H149.296V52.198Z" fill="black"/>
<path d="M208.169 59.506H210.761V51.586H208.655V50.434C209.675 50.254 210.527 49.954 211.211 49.534H212.579V59.506H214.883V61H208.169V59.506ZM220.245 61.216C219.057 61.216 218.127 60.694 217.455 59.65C216.783 58.606 216.447 57.13 216.447 55.222C216.447 53.314 216.783 51.856 217.455 50.848C218.127 49.828 219.057 49.318 220.245 49.318C221.433 49.318 222.363 49.828 223.035 50.848C223.707 51.868 224.043 53.326 224.043 55.222C224.043 57.13 223.707 58.606 223.035 59.65C222.363 60.694 221.433 61.216 220.245 61.216ZM220.245 59.776C220.881 59.776 221.379 59.41 221.739 58.678C222.111 57.946 222.297 56.794 222.297 55.222C222.297 52.246 221.613 50.758 220.245 50.758C218.877 50.758 218.193 52.246 218.193 55.222C218.193 56.794 218.373 57.946 218.733 58.678C219.105 59.41 219.609 59.776 220.245 59.776ZM229.786 48.238H231.568V56.5H231.622L235.096 52.198H237.094L234.106 55.762L237.436 61H235.456L233.062 57.004L231.568 58.732V61H229.786V48.238ZM238.962 52.198H240.456L240.6 53.422H240.654C241.086 52.978 241.518 52.63 241.95 52.378C242.394 52.114 242.868 51.982 243.372 51.982C244.584 51.982 245.394 52.522 245.802 53.602C246.294 53.074 246.762 52.672 247.206 52.396C247.662 52.12 248.148 51.982 248.664 51.982C249.564 51.982 250.236 52.282 250.68 52.882C251.136 53.47 251.364 54.328 251.364 55.456V61H249.546V55.69C249.546 54.934 249.426 54.388 249.186 54.052C248.958 53.716 248.586 53.548 248.07 53.548C247.47 53.548 246.804 53.95 246.072 54.754V61H244.254V55.69C244.254 54.934 244.134 54.388 243.894 54.052C243.666 53.716 243.294 53.548 242.778 53.548C242.178 53.548 241.512 53.95 240.78 54.754V61H238.962V52.198Z" fill="black"/>
<path d="M297.757 61.216C296.905 61.216 296.167 61.072 295.543 60.784C294.931 60.496 294.385 60.112 293.905 59.632L294.769 58.462C295.165 58.846 295.585 59.152 296.029 59.38C296.473 59.608 296.977 59.722 297.541 59.722C298.225 59.722 298.783 59.506 299.215 59.074C299.659 58.642 299.881 58.066 299.881 57.346C299.881 56.626 299.677 56.062 299.269 55.654C298.861 55.246 298.315 55.042 297.631 55.042C297.271 55.042 296.959 55.096 296.695 55.204C296.431 55.3 296.113 55.468 295.741 55.708L294.841 55.132L295.201 49.534H301.159V51.082H296.785L296.515 54.124C297.031 53.848 297.571 53.71 298.135 53.71C299.179 53.71 300.037 54.016 300.709 54.628C301.381 55.228 301.717 56.116 301.717 57.292C301.717 58.096 301.531 58.798 301.159 59.398C300.799 59.986 300.319 60.436 299.719 60.748C299.119 61.06 298.465 61.216 297.757 61.216ZM307.132 61.216C305.944 61.216 305.014 60.694 304.342 59.65C303.67 58.606 303.334 57.13 303.334 55.222C303.334 53.314 303.67 51.856 304.342 50.848C305.014 49.828 305.944 49.318 307.132 49.318C308.32 49.318 309.25 49.828 309.922 50.848C310.594 51.868 310.93 53.326 310.93 55.222C310.93 57.13 310.594 58.606 309.922 59.65C309.25 60.694 308.32 61.216 307.132 61.216ZM307.132 59.776C307.768 59.776 308.266 59.41 308.626 58.678C308.998 57.946 309.184 56.794 309.184 55.222C309.184 52.246 308.5 50.758 307.132 50.758C305.764 50.758 305.08 52.246 305.08 55.222C305.08 56.794 305.26 57.946 305.62 58.678C305.992 59.41 306.496 59.776 307.132 59.776ZM316.673 48.238H318.455V56.5H318.509L321.983 52.198H323.981L320.993 55.762L324.323 61H322.343L319.949 57.004L318.455 58.732V61H316.673V48.238ZM325.849 52.198H327.343L327.487 53.422H327.541C327.973 52.978 328.405 52.63 328.837 52.378C329.281 52.114 329.755 51.982 330.259 51.982C331.471 51.982 332.281 52.522 332.689 53.602C333.181 53.074 333.649 52.672 334.093 52.396C334.549 52.12 335.035 51.982 335.551 51.982C336.451 51.982 337.123 52.282 337.567 52.882C338.023 53.47 338.251 54.328 338.251 55.456V61H336.433V55.69C336.433 54.934 336.313 54.388 336.073 54.052C335.845 53.716 335.473 53.548 334.957 53.548C334.357 53.548 333.691 53.95 332.959 54.754V61H331.141V55.69C331.141 54.934 331.021 54.388 330.781 54.052C330.553 53.716 330.181 53.548 329.665 53.548C329.065 53.548 328.399 53.95 327.667 54.754V61H325.849V52.198Z" fill="black"/>
<path d="M96.5435 4.116H98.7275C99.6635 4.116 100.383 4.296 100.887 4.656C101.399 5.008 101.655 5.592 101.655 6.408C101.655 7.2 101.399 7.8 100.887 8.208C100.375 8.608 99.6715 8.808 98.7755 8.808H97.4315V12H96.5435V4.116ZM98.6435 8.076C99.3715 8.076 99.9075 7.944 100.251 7.68C100.595 7.408 100.767 6.984 100.767 6.408C100.767 5.832 100.591 5.428 100.239 5.196C99.8875 4.956 99.3395 4.836 98.5955 4.836H97.4315V8.076H98.6435ZM104.146 12.144C103.818 12.144 103.578 12.044 103.426 11.844C103.274 11.636 103.198 11.332 103.198 10.932V3.432H104.062V11.004C104.062 11.14 104.086 11.244 104.134 11.316C104.19 11.38 104.258 11.412 104.338 11.412C104.402 11.412 104.474 11.404 104.554 11.388L104.674 12.06C104.522 12.116 104.346 12.144 104.146 12.144ZM110.638 8.76C110.638 8.968 110.626 9.144 110.602 9.288H106.582C106.622 9.968 106.83 10.496 107.206 10.872C107.59 11.248 108.058 11.436 108.61 11.436C109.122 11.436 109.614 11.28 110.086 10.968L110.41 11.544C110.122 11.728 109.826 11.876 109.522 11.988C109.218 12.092 108.878 12.144 108.502 12.144C107.99 12.144 107.522 12.024 107.098 11.784C106.682 11.536 106.35 11.18 106.102 10.716C105.862 10.252 105.742 9.712 105.742 9.096C105.742 8.488 105.862 7.952 106.102 7.488C106.35 7.024 106.674 6.668 107.074 6.42C107.474 6.164 107.898 6.036 108.346 6.036C109.066 6.036 109.626 6.28 110.026 6.768C110.434 7.248 110.638 7.912 110.638 8.76ZM109.858 8.652C109.858 8.036 109.726 7.564 109.462 7.236C109.198 6.908 108.83 6.744 108.358 6.744C107.926 6.744 107.542 6.908 107.206 7.236C106.87 7.564 106.67 8.036 106.606 8.652H109.858ZM113.26 12.144C112.764 12.144 112.356 12 112.036 11.712C111.716 11.424 111.556 11.02 111.556 10.5C111.556 9.868 111.844 9.384 112.42 9.048C112.996 8.704 113.916 8.464 115.18 8.328C115.18 7.872 115.084 7.5 114.892 7.212C114.708 6.916 114.388 6.768 113.932 6.768C113.38 6.768 112.792 6.98 112.168 7.404L111.82 6.804C112.588 6.292 113.34 6.036 114.076 6.036C114.748 6.036 115.244 6.248 115.564 6.672C115.884 7.088 116.044 7.664 116.044 8.4V12H115.324L115.252 11.292H115.216C114.528 11.86 113.876 12.144 113.26 12.144ZM113.488 11.436C113.768 11.436 114.04 11.372 114.304 11.244C114.576 11.108 114.868 10.9 115.18 10.62V8.916C114.18 9.036 113.468 9.22 113.044 9.468C112.628 9.716 112.42 10.044 112.42 10.452C112.42 10.78 112.52 11.028 112.72 11.196C112.92 11.356 113.176 11.436 113.488 11.436ZM119.44 12.144C119.04 12.144 118.652 12.072 118.276 11.928C117.9 11.776 117.568 11.58 117.28 11.34L117.724 10.752C118.012 10.984 118.292 11.16 118.564 11.28C118.836 11.4 119.14 11.46 119.476 11.46C119.86 11.46 120.156 11.368 120.364 11.184C120.572 11 120.676 10.768 120.676 10.488C120.676 10.208 120.556 9.984 120.316 9.816C120.084 9.648 119.752 9.488 119.32 9.336C118.768 9.136 118.336 8.92 118.024 8.688C117.712 8.448 117.556 8.108 117.556 7.668C117.556 7.196 117.732 6.808 118.084 6.504C118.444 6.192 118.928 6.036 119.536 6.036C119.864 6.036 120.18 6.096 120.484 6.216C120.788 6.336 121.06 6.492 121.3 6.684L120.88 7.248C120.648 7.08 120.428 6.952 120.22 6.864C120.012 6.776 119.784 6.732 119.536 6.732C119.168 6.732 118.888 6.82 118.696 6.996C118.504 7.164 118.408 7.372 118.408 7.62C118.408 7.796 118.464 7.948 118.576 8.076C118.696 8.204 118.84 8.308 119.008 8.388C119.176 8.46 119.412 8.556 119.716 8.676C120.124 8.828 120.444 8.964 120.676 9.084C120.908 9.204 121.108 9.376 121.276 9.6C121.444 9.816 121.528 10.096 121.528 10.44C121.528 10.752 121.444 11.04 121.276 11.304C121.116 11.56 120.876 11.764 120.556 11.916C120.244 12.068 119.872 12.144 119.44 12.144ZM127.384 8.76C127.384 8.968 127.372 9.144 127.348 9.288H123.328C123.368 9.968 123.576 10.496 123.952 10.872C124.336 11.248 124.804 11.436 125.356 11.436C125.868 11.436 126.36 11.28 126.832 10.968L127.156 11.544C126.868 11.728 126.572 11.876 126.268 11.988C125.964 12.092 125.624 12.144 125.248 12.144C124.736 12.144 124.268 12.024 123.844 11.784C123.428 11.536 123.096 11.18 122.848 10.716C122.608 10.252 122.488 9.712 122.488 9.096C122.488 8.488 122.608 7.952 122.848 7.488C123.096 7.024 123.42 6.668 123.82 6.42C124.22 6.164 124.644 6.036 125.092 6.036C125.812 6.036 126.372 6.28 126.772 6.768C127.18 7.248 127.384 7.912 127.384 8.76ZM126.604 8.652C126.604 8.036 126.472 7.564 126.208 7.236C125.944 6.908 125.576 6.744 125.104 6.744C124.672 6.744 124.288 6.908 123.952 7.236C123.616 7.564 123.416 8.036 123.352 8.652H126.604ZM133.508 12.144C132.996 12.144 132.532 12.024 132.116 11.784C131.708 11.536 131.384 11.184 131.144 10.728C130.912 10.272 130.796 9.728 130.796 9.096C130.796 8.472 130.92 7.928 131.168 7.464C131.424 7 131.764 6.648 132.188 6.408C132.612 6.16 133.072 6.036 133.568 6.036C134.2 6.036 134.764 6.268 135.26 6.732L134.804 7.308C134.612 7.132 134.42 7 134.228 6.912C134.036 6.816 133.828 6.768 133.604 6.768C133.244 6.768 132.92 6.868 132.632 7.068C132.344 7.26 132.116 7.532 131.948 7.884C131.788 8.236 131.708 8.64 131.708 9.096C131.708 9.792 131.88 10.352 132.224 10.776C132.568 11.2 133.02 11.412 133.58 11.412C134.084 11.412 134.556 11.212 134.996 10.812L135.38 11.4C135.116 11.632 134.824 11.816 134.504 11.952C134.184 12.08 133.852 12.144 133.508 12.144ZM136.702 3.432H137.566V5.808L137.542 7.032C137.862 6.712 138.174 6.468 138.478 6.3C138.782 6.124 139.118 6.036 139.486 6.036C140.094 6.036 140.542 6.228 140.83 6.612C141.118 6.988 141.262 7.552 141.262 8.304V12H140.386V8.412C140.386 7.852 140.294 7.444 140.11 7.188C139.934 6.932 139.642 6.804 139.234 6.804C138.946 6.804 138.678 6.88 138.43 7.032C138.182 7.176 137.894 7.412 137.566 7.74V12H136.702V3.432ZM145.402 12.144C144.922 12.144 144.478 12.024 144.07 11.784C143.662 11.536 143.334 11.184 143.086 10.728C142.846 10.264 142.726 9.72 142.726 9.096C142.726 8.472 142.846 7.928 143.086 7.464C143.334 7 143.662 6.648 144.07 6.408C144.478 6.16 144.922 6.036 145.402 6.036C145.882 6.036 146.326 6.16 146.734 6.408C147.142 6.648 147.466 7 147.706 7.464C147.954 7.928 148.078 8.472 148.078 9.096C148.078 9.72 147.954 10.264 147.706 10.728C147.466 11.184 147.142 11.536 146.734 11.784C146.326 12.024 145.882 12.144 145.402 12.144ZM145.402 11.412C145.746 11.412 146.05 11.316 146.314 11.124C146.586 10.932 146.798 10.66 146.95 10.308C147.102 9.956 147.178 9.552 147.178 9.096C147.178 8.64 147.102 8.236 146.95 7.884C146.798 7.532 146.586 7.26 146.314 7.068C146.05 6.868 145.746 6.768 145.402 6.768C145.058 6.768 144.75 6.868 144.478 7.068C144.214 7.26 144.006 7.532 143.854 7.884C143.71 8.236 143.638 8.64 143.638 9.096C143.638 9.792 143.802 10.352 144.13 10.776C144.458 11.2 144.882 11.412 145.402 11.412ZM151.883 12.144C151.403 12.144 150.959 12.024 150.551 11.784C150.143 11.536 149.815 11.184 149.567 10.728C149.327 10.264 149.207 9.72 149.207 9.096C149.207 8.472 149.327 7.928 149.567 7.464C149.815 7 150.143 6.648 150.551 6.408C150.959 6.16 151.403 6.036 151.883 6.036C152.363 6.036 152.807 6.16 153.215 6.408C153.623 6.648 153.947 7 154.187 7.464C154.435 7.928 154.559 8.472 154.559 9.096C154.559 9.72 154.435 10.264 154.187 10.728C153.947 11.184 153.623 11.536 153.215 11.784C152.807 12.024 152.363 12.144 151.883 12.144ZM151.883 11.412C152.227 11.412 152.531 11.316 152.795 11.124C153.067 10.932 153.279 10.66 153.431 10.308C153.583 9.956 153.659 9.552 153.659 9.096C153.659 8.64 153.583 8.236 153.431 7.884C153.279 7.532 153.067 7.26 152.795 7.068C152.531 6.868 152.227 6.768 151.883 6.768C151.539 6.768 151.231 6.868 150.959 7.068C150.695 7.26 150.487 7.532 150.335 7.884C150.191 8.236 150.119 8.64 150.119 9.096C150.119 9.792 150.283 10.352 150.611 10.776C150.939 11.2 151.363 11.412 151.883 11.412ZM157.608 12.144C157.208 12.144 156.82 12.072 156.444 11.928C156.068 11.776 155.736 11.58 155.448 11.34L155.892 10.752C156.18 10.984 156.46 11.16 156.732 11.28C157.004 11.4 157.308 11.46 157.644 11.46C158.028 11.46 158.324 11.368 158.532 11.184C158.74 11 158.844 10.768 158.844 10.488C158.844 10.208 158.724 9.984 158.484 9.816C158.252 9.648 157.92 9.488 157.488 9.336C156.936 9.136 156.504 8.92 156.192 8.688C155.88 8.448 155.724 8.108 155.724 7.668C155.724 7.196 155.9 6.808 156.252 6.504C156.612 6.192 157.096 6.036 157.704 6.036C158.032 6.036 158.348 6.096 158.652 6.216C158.956 6.336 159.228 6.492 159.468 6.684L159.048 7.248C158.816 7.08 158.596 6.952 158.388 6.864C158.18 6.776 157.952 6.732 157.704 6.732C157.336 6.732 157.056 6.82 156.864 6.996C156.672 7.164 156.576 7.372 156.576 7.62C156.576 7.796 156.632 7.948 156.744 8.076C156.864 8.204 157.008 8.308 157.176 8.388C157.344 8.46 157.58 8.556 157.884 8.676C158.292 8.828 158.612 8.964 158.844 9.084C159.076 9.204 159.276 9.376 159.444 9.6C159.612 9.816 159.696 10.096 159.696 10.44C159.696 10.752 159.612 11.04 159.444 11.304C159.284 11.56 159.044 11.764 158.724 11.916C158.412 12.068 158.04 12.144 157.608 12.144ZM165.552 8.76C165.552 8.968 165.54 9.144 165.516 9.288H161.496C161.536 9.968 161.744 10.496 162.12 10.872C162.504 11.248 162.972 11.436 163.524 11.436C164.036 11.436 164.528 11.28 165 10.968L165.324 11.544C165.036 11.728 164.74 11.876 164.436 11.988C164.132 12.092 163.792 12.144 163.416 12.144C162.904 12.144 162.436 12.024 162.012 11.784C161.596 11.536 161.264 11.18 161.016 10.716C160.776 10.252 160.656 9.712 160.656 9.096C160.656 8.488 160.776 7.952 161.016 7.488C161.264 7.024 161.588 6.668 161.988 6.42C162.388 6.164 162.812 6.036 163.26 6.036C163.98 6.036 164.54 6.28 164.94 6.768C165.348 7.248 165.552 7.912 165.552 8.76ZM164.772 8.652C164.772 8.036 164.64 7.564 164.376 7.236C164.112 6.908 163.744 6.744 163.272 6.744C162.84 6.744 162.456 6.908 162.12 7.236C161.784 7.564 161.584 8.036 161.52 8.652H164.772ZM169.432 14.544C169.192 14.544 168.972 14.504 168.772 14.424L168.94 13.716C169.1 13.78 169.252 13.812 169.396 13.812C169.716 13.812 169.988 13.692 170.212 13.452C170.436 13.212 170.616 12.888 170.752 12.48L170.896 12.036L168.544 6.18H169.444L170.692 9.516L171.268 11.148H171.316C171.428 10.812 171.544 10.444 171.664 10.044L171.82 9.516L172.912 6.18H173.764L171.556 12.54C171.332 13.164 171.052 13.652 170.716 14.004C170.388 14.364 169.96 14.544 169.432 14.544ZM177.113 12.144C176.633 12.144 176.189 12.024 175.781 11.784C175.373 11.536 175.045 11.184 174.797 10.728C174.557 10.264 174.437 9.72 174.437 9.096C174.437 8.472 174.557 7.928 174.797 7.464C175.045 7 175.373 6.648 175.781 6.408C176.189 6.16 176.633 6.036 177.113 6.036C177.593 6.036 178.037 6.16 178.445 6.408C178.853 6.648 179.177 7 179.417 7.464C179.665 7.928 179.789 8.472 179.789 9.096C179.789 9.72 179.665 10.264 179.417 10.728C179.177 11.184 178.853 11.536 178.445 11.784C178.037 12.024 177.593 12.144 177.113 12.144ZM177.113 11.412C177.457 11.412 177.761 11.316 178.025 11.124C178.297 10.932 178.509 10.66 178.661 10.308C178.813 9.956 178.889 9.552 178.889 9.096C178.889 8.64 178.813 8.236 178.661 7.884C178.509 7.532 178.297 7.26 178.025 7.068C177.761 6.868 177.457 6.768 177.113 6.768C176.769 6.768 176.461 6.868 176.189 7.068C175.925 7.26 175.717 7.532 175.565 7.884C175.421 8.236 175.349 8.64 175.349 9.096C175.349 9.792 175.513 10.352 175.841 10.776C176.169 11.2 176.593 11.412 177.113 11.412ZM183.054 12.144C182.454 12.144 182.01 11.956 181.722 11.58C181.434 11.196 181.29 10.628 181.29 9.876V6.18H182.154V9.768C182.154 10.328 182.246 10.74 182.43 11.004C182.614 11.26 182.91 11.388 183.318 11.388C183.614 11.388 183.882 11.308 184.122 11.148C184.37 10.988 184.646 10.724 184.95 10.356V6.18H185.826V12H185.094L185.022 11.076H184.986C184.69 11.42 184.386 11.684 184.074 11.868C183.77 12.052 183.43 12.144 183.054 12.144ZM187.854 6.18H188.574L188.646 7.248H188.682C188.882 6.872 189.126 6.576 189.414 6.36C189.702 6.144 190.01 6.036 190.338 6.036C190.57 6.036 190.77 6.076 190.938 6.156L190.77 6.924C190.562 6.86 190.378 6.828 190.218 6.828C189.946 6.828 189.674 6.94 189.402 7.164C189.138 7.388 188.91 7.736 188.718 8.208V12H187.854V6.18ZM194.334 6.18H195.054L195.126 7.248H195.162C195.362 6.872 195.606 6.576 195.894 6.36C196.182 6.144 196.49 6.036 196.818 6.036C197.05 6.036 197.25 6.076 197.418 6.156L197.25 6.924C197.042 6.86 196.858 6.828 196.698 6.828C196.426 6.828 196.154 6.94 195.882 7.164C195.618 7.388 195.39 7.736 195.198 8.208V12H194.334V6.18ZM199.451 12.144C198.955 12.144 198.547 12 198.227 11.712C197.907 11.424 197.747 11.02 197.747 10.5C197.747 9.868 198.035 9.384 198.611 9.048C199.187 8.704 200.107 8.464 201.371 8.328C201.371 7.872 201.275 7.5 201.083 7.212C200.899 6.916 200.579 6.768 200.123 6.768C199.571 6.768 198.983 6.98 198.359 7.404L198.011 6.804C198.779 6.292 199.531 6.036 200.267 6.036C200.939 6.036 201.435 6.248 201.755 6.672C202.075 7.088 202.235 7.664 202.235 8.4V12H201.515L201.443 11.292H201.407C200.719 11.86 200.067 12.144 199.451 12.144ZM199.679 11.436C199.959 11.436 200.231 11.372 200.495 11.244C200.767 11.108 201.059 10.9 201.371 10.62V8.916C200.371 9.036 199.659 9.22 199.235 9.468C198.819 9.716 198.611 10.044 198.611 10.452C198.611 10.78 198.711 11.028 198.911 11.196C199.111 11.356 199.367 11.436 199.679 11.436ZM206.099 12.144C205.363 12.144 204.779 11.876 204.347 11.34C203.923 10.804 203.711 10.056 203.711 9.096C203.711 8.488 203.827 7.952 204.059 7.488C204.291 7.024 204.599 6.668 204.983 6.42C205.375 6.164 205.795 6.036 206.243 6.036C206.555 6.036 206.835 6.092 207.083 6.204C207.331 6.316 207.603 6.488 207.899 6.72L207.863 5.712V3.432H208.727V12H208.007L207.935 11.292H207.899C207.651 11.548 207.371 11.756 207.059 11.916C206.755 12.068 206.435 12.144 206.099 12.144ZM206.291 11.4C206.571 11.4 206.835 11.332 207.083 11.196C207.339 11.06 207.599 10.852 207.863 10.572V7.416C207.607 7.192 207.359 7.032 207.119 6.936C206.879 6.832 206.631 6.78 206.375 6.78C206.047 6.78 205.747 6.88 205.475 7.08C205.211 7.28 204.999 7.556 204.839 7.908C204.687 8.26 204.611 8.656 204.611 9.096C204.611 9.816 204.755 10.38 205.043 10.788C205.339 11.196 205.755 11.4 206.291 11.4ZM210.764 6.18H211.628V12H210.764V6.18ZM211.208 4.932C211.032 4.932 210.888 4.876 210.776 4.764C210.664 4.652 210.608 4.504 210.608 4.32C210.608 4.144 210.664 4.004 210.776 3.9C210.888 3.788 211.032 3.732 211.208 3.732C211.384 3.732 211.528 3.788 211.64 3.9C211.752 4.004 211.808 4.144 211.808 4.32C211.808 4.504 211.752 4.652 211.64 4.764C211.528 4.876 211.384 4.932 211.208 4.932ZM215.35 12.144C214.75 12.144 214.306 11.956 214.018 11.58C213.73 11.196 213.586 10.628 213.586 9.876V6.18H214.45V9.768C214.45 10.328 214.542 10.74 214.726 11.004C214.91 11.26 215.206 11.388 215.614 11.388C215.91 11.388 216.178 11.308 216.418 11.148C216.666 10.988 216.942 10.724 217.246 10.356V6.18H218.122V12H217.39L217.318 11.076H217.282C216.986 11.42 216.682 11.684 216.37 11.868C216.066 12.052 215.726 12.144 215.35 12.144ZM221.639 12.144C221.239 12.144 220.851 12.072 220.475 11.928C220.099 11.776 219.767 11.58 219.479 11.34L219.923 10.752C220.211 10.984 220.491 11.16 220.763 11.28C221.035 11.4 221.339 11.46 221.675 11.46C222.059 11.46 222.355 11.368 222.563 11.184C222.771 11 222.875 10.768 222.875 10.488C222.875 10.208 222.755 9.984 222.515 9.816C222.283 9.648 221.951 9.488 221.519 9.336C220.967 9.136 220.535 8.92 220.223 8.688C219.911 8.448 219.755 8.108 219.755 7.668C219.755 7.196 219.931 6.808 220.283 6.504C220.643 6.192 221.127 6.036 221.735 6.036C222.063 6.036 222.379 6.096 222.683 6.216C222.987 6.336 223.259 6.492 223.499 6.684L223.079 7.248C222.847 7.08 222.627 6.952 222.419 6.864C222.211 6.776 221.983 6.732 221.735 6.732C221.367 6.732 221.087 6.82 220.895 6.996C220.703 7.164 220.607 7.372 220.607 7.62C220.607 7.796 220.663 7.948 220.775 8.076C220.895 8.204 221.039 8.308 221.207 8.388C221.375 8.46 221.611 8.556 221.915 8.676C222.323 8.828 222.643 8.964 222.875 9.084C223.107 9.204 223.307 9.376 223.475 9.6C223.643 9.816 223.727 10.096 223.727 10.44C223.727 10.752 223.643 11.04 223.475 11.304C223.315 11.56 223.075 11.764 222.755 11.916C222.443 12.068 222.071 12.144 221.639 12.144ZM229.765 12.144C229.285 12.144 228.841 12.024 228.433 11.784C228.025 11.536 227.697 11.184 227.449 10.728C227.209 10.264 227.089 9.72 227.089 9.096C227.089 8.472 227.209 7.928 227.449 7.464C227.697 7 228.025 6.648 228.433 6.408C228.841 6.16 229.285 6.036 229.765 6.036C230.245 6.036 230.689 6.16 231.097 6.408C231.505 6.648 231.829 7 232.069 7.464C232.317 7.928 232.441 8.472 232.441 9.096C232.441 9.72 232.317 10.264 232.069 10.728C231.829 11.184 231.505 11.536 231.097 11.784C230.689 12.024 230.245 12.144 229.765 12.144ZM229.765 11.412C230.109 11.412 230.413 11.316 230.677 11.124C230.949 10.932 231.161 10.66 231.313 10.308C231.465 9.956 231.541 9.552 231.541 9.096C231.541 8.64 231.465 8.236 231.313 7.884C231.161 7.532 230.949 7.26 230.677 7.068C230.413 6.868 230.109 6.768 229.765 6.768C229.421 6.768 229.113 6.868 228.841 7.068C228.577 7.26 228.369 7.532 228.217 7.884C228.073 8.236 228.001 8.64 228.001 9.096C228.001 9.792 228.165 10.352 228.493 10.776C228.821 11.2 229.245 11.412 229.765 11.412ZM235.85 4.008C235.29 4.008 235.01 4.4 235.01 5.184V6.18H236.27V6.9H235.01V12H234.134V6.9H233.342V6.24L234.134 6.18V5.172C234.134 4.572 234.27 4.108 234.542 3.78C234.822 3.452 235.234 3.288 235.778 3.288C236.09 3.288 236.402 3.352 236.714 3.48L236.522 4.152C236.298 4.056 236.074 4.008 235.85 4.008ZM241.771 12.144C241.035 12.144 240.451 11.876 240.019 11.34C239.595 10.804 239.383 10.056 239.383 9.096C239.383 8.488 239.499 7.952 239.731 7.488C239.963 7.024 240.271 6.668 240.655 6.42C241.047 6.164 241.467 6.036 241.915 6.036C242.227 6.036 242.507 6.092 242.755 6.204C243.003 6.316 243.275 6.488 243.571 6.72L243.535 5.712V3.432H244.399V12H243.679L243.607 11.292H243.571C243.323 11.548 243.043 11.756 242.731 11.916C242.427 12.068 242.107 12.144 241.771 12.144ZM241.963 11.4C242.243 11.4 242.507 11.332 242.755 11.196C243.011 11.06 243.271 10.852 243.535 10.572V7.416C243.279 7.192 243.031 7.032 242.791 6.936C242.551 6.832 242.303 6.78 242.047 6.78C241.719 6.78 241.419 6.88 241.147 7.08C240.883 7.28 240.671 7.556 240.511 7.908C240.359 8.26 240.283 8.656 240.283 9.096C240.283 9.816 240.427 10.38 240.715 10.788C241.011 11.196 241.427 11.4 241.963 11.4ZM246.436 6.18H247.3V12H246.436V6.18ZM246.88 4.932C246.704 4.932 246.56 4.876 246.448 4.764C246.336 4.652 246.28 4.504 246.28 4.32C246.28 4.144 246.336 4.004 246.448 3.9C246.56 3.788 246.704 3.732 246.88 3.732C247.056 3.732 247.2 3.788 247.312 3.9C247.424 4.004 247.48 4.144 247.48 4.32C247.48 4.504 247.424 4.652 247.312 4.764C247.2 4.876 247.056 4.932 246.88 4.932ZM250.83 12.144C250.43 12.144 250.042 12.072 249.666 11.928C249.29 11.776 248.958 11.58 248.67 11.34L249.114 10.752C249.402 10.984 249.682 11.16 249.954 11.28C250.226 11.4 250.53 11.46 250.866 11.46C251.25 11.46 251.546 11.368 251.754 11.184C251.962 11 252.066 10.768 252.066 10.488C252.066 10.208 251.946 9.984 251.706 9.816C251.474 9.648 251.142 9.488 250.71 9.336C250.158 9.136 249.726 8.92 249.414 8.688C249.102 8.448 248.946 8.108 248.946 7.668C248.946 7.196 249.122 6.808 249.474 6.504C249.834 6.192 250.318 6.036 250.926 6.036C251.254 6.036 251.57 6.096 251.874 6.216C252.178 6.336 252.45 6.492 252.69 6.684L252.27 7.248C252.038 7.08 251.818 6.952 251.61 6.864C251.402 6.776 251.174 6.732 250.926 6.732C250.558 6.732 250.278 6.82 250.086 6.996C249.894 7.164 249.798 7.372 249.798 7.62C249.798 7.796 249.854 7.948 249.966 8.076C250.086 8.204 250.23 8.308 250.398 8.388C250.566 8.46 250.802 8.556 251.106 8.676C251.514 8.828 251.834 8.964 252.066 9.084C252.298 9.204 252.498 9.376 252.666 9.6C252.834 9.816 252.918 10.096 252.918 10.44C252.918 10.752 252.834 11.04 252.666 11.304C252.506 11.56 252.266 11.764 251.946 11.916C251.634 12.068 251.262 12.144 250.83 12.144ZM255.981 12.144C255.405 12.144 254.993 11.98 254.745 11.652C254.497 11.324 254.373 10.856 254.373 10.248V6.9H253.497V6.24L254.409 6.18L254.517 4.536H255.249V6.18H256.845V6.9H255.249V10.272C255.249 10.656 255.317 10.944 255.453 11.136C255.597 11.328 255.837 11.424 256.173 11.424C256.341 11.424 256.565 11.372 256.845 11.268L257.025 11.928C256.593 12.072 256.245 12.144 255.981 12.144ZM259.252 12.144C258.756 12.144 258.348 12 258.028 11.712C257.708 11.424 257.548 11.02 257.548 10.5C257.548 9.868 257.836 9.384 258.412 9.048C258.988 8.704 259.908 8.464 261.172 8.328C261.172 7.872 261.076 7.5 260.884 7.212C260.7 6.916 260.38 6.768 259.924 6.768C259.372 6.768 258.784 6.98 258.16 7.404L257.812 6.804C258.58 6.292 259.332 6.036 260.068 6.036C260.74 6.036 261.236 6.248 261.556 6.672C261.876 7.088 262.036 7.664 262.036 8.4V12H261.316L261.244 11.292H261.208C260.52 11.86 259.868 12.144 259.252 12.144ZM259.48 11.436C259.76 11.436 260.032 11.372 260.296 11.244C260.568 11.108 260.86 10.9 261.172 10.62V8.916C260.172 9.036 259.46 9.22 259.036 9.468C258.62 9.716 258.412 10.044 258.412 10.452C258.412 10.78 258.512 11.028 258.712 11.196C258.912 11.356 259.168 11.436 259.48 11.436ZM263.944 6.18H264.664L264.736 7.044H264.772C265.092 6.724 265.404 6.476 265.708 6.3C266.02 6.124 266.36 6.036 266.728 6.036C267.336 6.036 267.784 6.228 268.072 6.612C268.36 6.988 268.504 7.552 268.504 8.304V12H267.628V8.412C267.628 7.852 267.536 7.444 267.352 7.188C267.176 6.932 266.884 6.804 266.476 6.804C266.188 6.804 265.92 6.88 265.672 7.032C265.424 7.176 265.136 7.412 264.808 7.74V12H263.944V6.18ZM272.715 12.144C272.203 12.144 271.739 12.024 271.323 11.784C270.915 11.536 270.591 11.184 270.351 10.728C270.119 10.272 270.003 9.728 270.003 9.096C270.003 8.472 270.127 7.928 270.375 7.464C270.631 7 270.971 6.648 271.395 6.408C271.819 6.16 272.279 6.036 272.775 6.036C273.407 6.036 273.971 6.268 274.467 6.732L274.011 7.308C273.819 7.132 273.627 7 273.435 6.912C273.243 6.816 273.035 6.768 272.811 6.768C272.451 6.768 272.127 6.868 271.839 7.068C271.551 7.26 271.323 7.532 271.155 7.884C270.995 8.236 270.915 8.64 270.915 9.096C270.915 9.792 271.087 10.352 271.431 10.776C271.775 11.2 272.227 11.412 272.787 11.412C273.291 11.412 273.763 11.212 274.203 10.812L274.587 11.4C274.323 11.632 274.031 11.816 273.711 11.952C273.391 12.08 273.059 12.144 272.715 12.144ZM280.114 8.76C280.114 8.968 280.102 9.144 280.078 9.288H276.058C276.098 9.968 276.306 10.496 276.682 10.872C277.066 11.248 277.534 11.436 278.086 11.436C278.598 11.436 279.09 11.28 279.562 10.968L279.886 11.544C279.598 11.728 279.302 11.876 278.998 11.988C278.694 12.092 278.354 12.144 277.978 12.144C277.466 12.144 276.998 12.024 276.574 11.784C276.158 11.536 275.826 11.18 275.578 10.716C275.338 10.252 275.218 9.712 275.218 9.096C275.218 8.488 275.338 7.952 275.578 7.488C275.826 7.024 276.15 6.668 276.55 6.42C276.95 6.164 277.374 6.036 277.822 6.036C278.542 6.036 279.102 6.28 279.502 6.768C279.91 7.248 280.114 7.912 280.114 8.76ZM279.334 8.652C279.334 8.036 279.202 7.564 278.938 7.236C278.674 6.908 278.306 6.744 277.834 6.744C277.402 6.744 277.018 6.908 276.682 7.236C276.346 7.564 276.146 8.036 276.082 8.652H279.334Z" fill="#B4B4B4"/>
<defs>
<filter id="filter0_d" x="54" y="79" width="268" height="92" filterUnits="userSpaceOnUse" color-interpolation-filters="sRGB">
<feFlood flood-opacity="0" result="BackgroundImageFix"/>
<feColorMatrix in="SourceAlpha" type="matrix" values="0 0 0 0 0 0 0 0 0 0 0 0 0 0 0 0 0 0 127 0" result="hardAlpha"/>
<feOffset dy="1"/>
<feGaussianBlur stdDeviation="10"/>
<feColorMatrix type="matrix" values="0 0 0 0 0 0 0 0 0 0 0 0 0 0 0 0 0 0 0.15 0"/>
<feBlend mode="normal" in2="BackgroundImageFix" result="effect1_dropShadow"/>
<feBlend mode="normal" in="SourceGraphic" in2="effect1_dropShadow" result="shape"/>
</filter>
<filter id="filter1_d" x="0" y="12" width="117" height="83" filterUnits="userSpaceOnUse" color-interpolation-filters="sRGB">
<feFlood flood-opacity="0" result="BackgroundImageFix"/>
<feColorMatrix in="SourceAlpha" type="matrix" values="0 0 0 0 0 0 0 0 0 0 0 0 0 0 0 0 0 0 127 0" result="hardAlpha"/>
<feOffset/>
<feGaussianBlur stdDeviation="7.5"/>
<feColorMatrix type="matrix" values="0 0 0 0 0 0 0 0 0 0 0 0 0 0 0 0 0 0 0.1 0"/>
<feBlend mode="normal" in2="BackgroundImageFix" result="effect1_dropShadow"/>
<feBlend mode="normal" in="SourceGraphic" in2="effect1_dropShadow" result="shape"/>
</filter>
<filter id="filter2_d" x="86" y="12" width="117" height="83" filterUnits="userSpaceOnUse" color-interpolation-filters="sRGB">
<feFlood flood-opacity="0" result="BackgroundImageFix"/>
<feColorMatrix in="SourceAlpha" type="matrix" values="0 0 0 0 0 0 0 0 0 0 0 0 0 0 0 0 0 0 127 0" result="hardAlpha"/>
<feOffset/>
<feGaussianBlur stdDeviation="7.5"/>
<feColorMatrix type="matrix" values="0 0 0 0 0 0 0 0 0 0 0 0 0 0 0 0 0 0 0.1 0"/>
<feBlend mode="normal" in2="BackgroundImageFix" result="effect1_dropShadow"/>
<feBlend mode="normal" in="SourceGraphic" in2="effect1_dropShadow" result="shape"/>
</filter>
<filter id="filter3_d" x="172" y="12" width="117" height="83" filterUnits="userSpaceOnUse" color-interpolation-filters="sRGB">
<feFlood flood-opacity="0" result="BackgroundImageFix"/>
<feColorMatrix in="SourceAlpha" type="matrix" values="0 0 0 0 0 0 0 0 0 0 0 0 0 0 0 0 0 0 127 0" result="hardAlpha"/>
<feOffset/>
<feGaussianBlur stdDeviation="7.5"/>
<feColorMatrix type="matrix" values="0 0 0 0 0 0 0 0 0 0 0 0 0 0 0 0 0 0 0.1 0"/>
<feBlend mode="normal" in2="BackgroundImageFix" result="effect1_dropShadow"/>
<feBlend mode="normal" in="SourceGraphic" in2="effect1_dropShadow" result="shape"/>
</filter>
<filter id="filter4_d" x="258" y="12" width="118" height="83" filterUnits="userSpaceOnUse" color-interpolation-filters="sRGB">
<feFlood flood-opacity="0" result="BackgroundImageFix"/>
<feColorMatrix in="SourceAlpha" type="matrix" values="0 0 0 0 0 0 0 0 0 0 0 0 0 0 0 0 0 0 127 0" result="hardAlpha"/>
<feOffset/>
<feGaussianBlur stdDeviation="7.5"/>
<feColorMatrix type="matrix" values="0 0 0 0 0 0 0 0 0 0 0 0 0 0 0 0 0 0 0.1 0"/>
<feBlend mode="normal" in2="BackgroundImageFix" result="effect1_dropShadow"/>
<feBlend mode="normal" in="SourceGraphic" in2="effect1_dropShadow" result="shape"/>
</filter>
</defs>
</svg>
