<svg width="23" height="26" viewBox="0 0 23 26" fill="none" xmlns="http://www.w3.org/2000/svg">
<path d="M11.676 11.9873C12.8442 11.9873 13.9862 11.6409 14.9575 10.9918C15.9288 10.3428 16.6858 9.42037 17.1329 8.3411C17.5799 7.26184 17.6969 6.07424 17.469 4.9285C17.2411 3.78275 16.6785 2.73032 15.8525 1.90429C15.0265 1.07825 13.974 0.515713 12.8283 0.28781C11.6826 0.0599077 10.495 0.176876 9.41569 0.623923C8.33643 1.07097 7.41396 1.82802 6.76495 2.79933C6.11594 3.77065 5.76953 4.9126 5.76953 6.08079C5.76953 7.64729 6.39182 9.14962 7.4995 10.2573C8.60718 11.365 10.1095 11.9873 11.676 11.9873ZM11.676 1.86188C12.5104 1.86188 13.3261 2.10932 14.0199 2.5729C14.7137 3.03648 15.2544 3.69538 15.5738 4.46629C15.8931 5.23719 15.9766 6.08547 15.8138 6.90386C15.6511 7.72225 15.2492 8.47399 14.6592 9.06401C14.0692 9.65404 13.3175 10.0559 12.4991 10.2186C11.6807 10.3814 10.8324 10.2979 10.0615 9.97856C9.29059 9.65924 8.63169 9.11849 8.16811 8.42469C7.70453 7.7309 7.45709 6.91521 7.45709 6.08079C7.45709 4.96187 7.90159 3.88877 8.69278 3.09757C9.48398 2.30637 10.5571 1.86188 11.676 1.86188V1.86188Z" fill="#3993D6"/>
<path d="M22.1982 18.2063C20.845 16.7761 19.2144 15.6369 17.4059 14.8583C15.5975 14.0798 13.6493 13.6782 11.6804 13.6782C9.71153 13.6782 7.76332 14.0798 5.9549 14.8583C4.14648 15.6369 2.51584 16.7761 1.16268 18.2063C0.869303 18.5196 0.706367 18.933 0.707033 19.3623V23.8006C0.707033 24.2481 0.88483 24.6774 1.20131 24.9938C1.51779 25.3103 1.94703 25.4881 2.3946 25.4881H20.9578C21.4054 25.4881 21.8346 25.3103 22.1511 24.9938C22.4676 24.6774 22.6454 24.2481 22.6454 23.8006V19.3623C22.6483 18.9342 22.4885 18.5209 22.1982 18.2063V18.2063ZM20.9578 23.8006H2.3946V19.3538C3.59043 18.0946 5.02997 17.0919 6.62562 16.4067C8.22127 15.7215 9.93965 15.3682 11.6762 15.3682C13.4127 15.3682 15.1311 15.7215 16.7268 16.4067C18.3224 17.0919 19.762 18.0946 20.9578 19.3538V23.8006Z" fill="#3993D6"/>
</svg>
