<?xml version="1.0" encoding="UTF-8"?>
<!DOCTYPE svg PUBLIC "-//W3C//DTD SVG 1.1//EN" "http://www.w3.org/Graphics/SVG/1.1/DTD/svg11.dtd">
<!-- Creator: CorelDRAW 2019 (64-Bit) -->
<svg xmlns="http://www.w3.org/2000/svg" xml:space="preserve" width="118px" height="118px" version="1.1" style="shape-rendering:geometricPrecision; text-rendering:geometricPrecision; image-rendering:optimizeQuality; fill-rule:evenodd; clip-rule:evenodd"
viewBox="0 0 118 118"
 xmlns:xlink="http://www.w3.org/1999/xlink">
 <defs>
  <style type="text/css">
   <![CDATA[
    .fil0 {fill:#123270}
    .fil1 {fill:#123270;fill-rule:nonzero}
    .fil2 {fill:#265AAD;fill-rule:nonzero}
   ]]>
  </style>
 </defs>
 <g id="Layer_x0020_1">
  <metadata id="CorelCorpID_0Corel-Layer"/>
  <g id="_2653999053296">
   <path class="fil0" d="M28.99 92.78l55.01 -0.01 1.96 0.02c1.4,-0.01 1.46,-0.36 1.43,-2.99 -0.01,-1.66 0,-3.06 0,-4.25 0.02,-3.03 0.03,-4.72 -0.38,-5.96 -0.52,-1.52 -1.76,-2.49 -4.57,-4.69l-0.03 -0.03c-2.54,-1.98 -5.56,-3.73 -8.95,-5.1 -3.2,-1.3 -6.75,-2.26 -10.54,-2.77 -6.29,-0.85 -11.91,-0.14 -17.04,1.61 -5.14,1.75 -9.8,4.55 -14.18,7.87 -3.12,2.37 -3.08,3.52 -2.94,7.08 0.04,0.93 0.08,2.01 0.08,3.27l0.15 5.95zm7.5 -26.9c4.84,-2.43 10.19,-4.15 15.28,-4.98 7.68,-1.25 14.92,-0.26 21.25,1.94 7.89,2.75 14.39,7.39 18.65,11.96 2.23,2.38 2.1,5.62 1.97,9.2 -0.04,0.93 -0.07,1.88 -0.07,2.83 0.05,10.75 -0.31,12.36 -11.03,12.41 -1.83,0.01 -3.98,-0.03 -6.48,-0.08 -3.06,-0.05 -6.68,-0.12 -11.04,-0.12l-27.25 0c-1.49,0 -2.72,0.02 -3.84,0.04 -10.11,0.15 -11.38,0.16 -11.34,-12.73 0,-0.95 -0.02,-1.84 -0.04,-2.67 -0.09,-3.87 -0.15,-6.56 2.28,-9.27 3.02,-3.36 7.11,-6.26 11.66,-8.53z"/>
   <path class="fil1" d="M58.14 18.32c5.03,0 9.59,2.04 12.89,5.34 3.29,3.31 5.34,7.86 5.34,12.89 0,5.02 -2.05,9.58 -5.34,12.88l-0.02 0.01c-3.29,3.3 -7.85,5.34 -12.87,5.34 -5.03,0 -9.58,-2.04 -12.88,-5.34 -3.31,-3.3 -5.35,-7.86 -5.35,-12.89 0,-5.04 2.04,-9.59 5.33,-12.89 3.3,-3.3 7.86,-5.34 12.9,-5.34zm8.88 9.35c-2.28,-2.27 -5.42,-3.67 -8.88,-3.67 -3.47,0 -6.61,1.4 -8.88,3.67 -2.27,2.27 -3.68,5.41 -3.68,8.88 0,3.46 1.41,6.6 3.68,8.87 2.26,2.28 5.4,3.68 8.88,3.68 3.47,0 6.61,-1.4 8.88,-3.67 2.26,-2.27 3.67,-5.41 3.67,-8.88 0,-3.47 -1.41,-6.61 -3.67,-8.88z"/>
   <path class="fil2" d="M58.11 0.98c16.29,0 31.04,6.61 41.72,17.28 10.67,10.68 17.28,25.43 17.28,41.72 0,16.29 -6.61,31.04 -17.28,41.72 -10.68,10.68 -25.43,17.28 -41.72,17.28 -16.29,0 -31.04,-6.6 -41.72,-17.28 -10.68,-10.68 -17.28,-25.43 -17.28,-41.72 0,-16.29 6.6,-31.04 17.28,-41.72 10.68,-10.67 25.43,-17.28 41.72,-17.28zm39.57 19.43c-10.13,-10.12 -24.12,-16.39 -39.57,-16.39 -15.45,0 -29.45,6.27 -39.57,16.39 -10.13,10.13 -16.39,24.12 -16.39,39.57 0,15.45 6.26,29.45 16.39,39.57 10.12,10.13 24.12,16.39 39.57,16.39 15.45,0 29.44,-6.26 39.57,-16.39 10.12,-10.12 16.39,-24.12 16.39,-39.57 0,-15.45 -6.27,-29.44 -16.39,-39.57z"/>
  </g>
 </g>
</svg>
