<svg width="31" height="31" viewBox="0 0 31 31" fill="none" xmlns="http://www.w3.org/2000/svg">
<path d="M15.1876 14.9132C16.3558 14.9132 17.4977 14.5668 18.4691 13.9178C19.4404 13.2687 20.1974 12.3463 20.6445 11.267C21.0915 10.1877 21.2085 9.00014 20.9806 7.8544C20.7527 6.70866 20.1901 5.65622 19.3641 4.83019C18.5381 4.00415 17.4856 3.44162 16.3399 3.21371C15.1942 2.98581 14.0066 3.10278 12.9273 3.54983C11.848 3.99687 10.9256 4.75392 10.2765 5.72524C9.62754 6.69655 9.28113 7.83851 9.28113 9.0067C9.28113 10.5732 9.90342 12.0755 11.0111 13.1832C12.1188 14.2909 13.6211 14.9132 15.1876 14.9132ZM15.1876 4.78779C16.022 4.78779 16.8377 5.03522 17.5315 5.4988C18.2253 5.96238 18.766 6.62128 19.0854 7.39219C19.4047 8.16309 19.4882 9.01138 19.3254 9.82976C19.1627 10.6482 18.7608 11.3999 18.1708 11.9899C17.5808 12.5799 16.8291 12.9818 16.0107 13.1445C15.1923 13.3073 14.344 13.2238 13.5731 12.9045C12.8022 12.5851 12.1433 12.0444 11.6797 11.3506C11.2161 10.6568 10.9687 9.84112 10.9687 9.0067C10.9687 7.88777 11.4132 6.81468 12.2044 6.02348C12.9956 5.23228 14.0687 4.78779 15.1876 4.78779V4.78779Z" fill="#023273"/>
<path d="M25.7096 21.1318C24.3564 19.7016 22.7258 18.5624 20.9173 17.7839C19.1089 17.0053 17.1607 16.6038 15.1918 16.6038C13.2229 16.6038 11.2747 17.0053 9.46631 17.7839C7.65789 18.5624 6.02726 19.7016 4.67409 21.1318C4.38072 21.4452 4.21778 21.8585 4.21845 22.2878V26.7261C4.21845 27.1737 4.39624 27.6029 4.71272 27.9194C5.0292 28.2359 5.45844 28.4137 5.90601 28.4137H24.4692C24.9168 28.4137 25.346 28.2359 25.6625 27.9194C25.979 27.6029 26.1568 27.1737 26.1568 26.7261V22.2878C26.1597 21.8597 25.9999 21.4465 25.7096 21.1318V21.1318ZM24.4692 26.7261H5.90601V22.2794C7.10184 21.0202 8.54139 20.0175 10.137 19.3323C11.7327 18.6471 13.4511 18.2937 15.1876 18.2937C16.9242 18.2937 18.6425 18.6471 20.2382 19.3323C21.8338 20.0175 23.2734 21.0202 24.4692 22.2794V26.7261Z" fill="#023273"/>
</svg>
