<?xml version="1.0" encoding="UTF-8"?>
<!DOCTYPE svg PUBLIC "-//W3C//DTD SVG 1.1//EN" "http://www.w3.org/Graphics/SVG/1.1/DTD/svg11.dtd">
<!-- Creator: CorelDRAW 2019 (64-Bit) -->
<svg xmlns="http://www.w3.org/2000/svg" xml:space="preserve" width="30px" height="30px" version="1.1" style="shape-rendering:geometricPrecision; text-rendering:geometricPrecision; image-rendering:optimizeQuality; fill-rule:evenodd; clip-rule:evenodd"
viewBox="0 0 30 30"
 xmlns:xlink="http://www.w3.org/1999/xlink">
 <defs>
  <style type="text/css">
   <![CDATA[
    .fil0 {fill:#123270}
    .fil1 {fill:#123270;fill-rule:nonzero}
    .fil2 {fill:#265AAD;fill-rule:nonzero}
   ]]>
  </style>
 </defs>
 <g id="Layer_x0020_1">
  <metadata id="CorelCorpID_0Corel-Layer"/>
  <path class="fil0" d="M7.8 23.42l13.98 -0.01 0.5 0.01c0.36,0 0.37,-0.09 0.37,-0.76 -0.01,-0.42 0,-0.78 0,-1.08 0,-0.77 0,-1.2 -0.1,-1.52 -0.13,-0.38 -0.45,-0.63 -1.16,-1.19l-0.01 0c-0.65,-0.51 -1.41,-0.95 -2.28,-1.3 -0.81,-0.33 -1.71,-0.58 -2.68,-0.71 -1.59,-0.21 -3.02,-0.03 -4.33,0.41 -1.3,0.45 -2.49,1.16 -3.6,2 -0.8,0.61 -0.78,0.9 -0.75,1.8 0.01,0.24 0.02,0.51 0.02,0.83l0.04 1.52zm1.91 -6.84c1.23,-0.62 2.59,-1.06 3.88,-1.27 1.95,-0.31 3.79,-0.06 5.4,0.5 2.01,0.69 3.66,1.87 4.74,3.04 0.57,0.6 0.54,1.43 0.51,2.34 -0.01,0.23 -0.02,0.47 -0.02,0.71 0.01,2.74 -0.08,3.15 -2.81,3.16 -0.46,0 -1.01,-0.01 -1.64,-0.02 -0.78,-0.01 -1.7,-0.03 -2.81,-0.03l-6.93 0c-0.38,0 -0.69,0 -0.98,0.01 -2.56,0.04 -2.89,0.04 -2.88,-3.24 0,-0.24 0,-0.46 -0.01,-0.67 -0.02,-0.99 -0.04,-1.67 0.58,-2.36 0.77,-0.86 1.81,-1.59 2.97,-2.17z"/>
  <path class="fil1" d="M15.21 4.49c1.28,0 2.44,0.52 3.28,1.35 0.83,0.85 1.35,2 1.35,3.28 0,1.28 -0.52,2.44 -1.35,3.28l-0.01 0c-0.84,0.84 -1.99,1.36 -3.27,1.36 -1.28,0 -2.44,-0.52 -3.28,-1.36 -0.84,-0.84 -1.36,-2 -1.36,-3.28 0,-1.28 0.52,-2.44 1.36,-3.28 0.84,-0.83 2,-1.35 3.28,-1.35zm2.26 2.37c-0.58,-0.57 -1.38,-0.93 -2.26,-0.93 -0.88,0 -1.68,0.36 -2.26,0.93 -0.57,0.58 -0.93,1.38 -0.93,2.26 0,0.88 0.36,1.68 0.93,2.26 0.58,0.58 1.38,0.93 2.26,0.93 0.88,0 1.68,-0.35 2.26,-0.93 0.57,-0.58 0.93,-1.38 0.93,-2.26 0,-0.88 -0.36,-1.68 -0.93,-2.26z"/>
  <path class="fil2" d="M15.2 0.08c4.14,0 7.89,1.68 10.61,4.39 2.71,2.72 4.39,6.47 4.39,10.61 0,4.14 -1.68,7.89 -4.39,10.61 -2.72,2.71 -6.47,4.39 -10.61,4.39 -4.14,0 -7.89,-1.68 -10.6,-4.39 -2.72,-2.72 -4.4,-6.47 -4.4,-10.61 0,-4.14 1.68,-7.89 4.4,-10.61 2.71,-2.71 6.46,-4.39 10.6,-4.39zm10.06 4.94c-2.57,-2.58 -6.13,-4.17 -10.06,-4.17 -3.93,0 -7.48,1.59 -10.06,4.17 -2.57,2.57 -4.16,6.13 -4.16,10.06 0,3.93 1.59,7.48 4.16,10.06 2.58,2.57 6.13,4.17 10.06,4.17 3.93,0 7.49,-1.6 10.06,-4.17 2.58,-2.58 4.17,-6.13 4.17,-10.06 0,-3.93 -1.59,-7.49 -4.17,-10.06z"/>
 </g>
</svg>
