<?xml version="1.0" encoding="UTF-8"?>
<!DOCTYPE svg PUBLIC "-//W3C//DTD SVG 1.1//EN" "http://www.w3.org/Graphics/SVG/1.1/DTD/svg11.dtd">
<!-- Creator: CorelDRAW 2019 (64-Bit) -->
<svg xmlns="http://www.w3.org/2000/svg" xml:space="preserve" width="2480px" height="3508px" version="1.1" style="shape-rendering:geometricPrecision; text-rendering:geometricPrecision; image-rendering:optimizeQuality; fill-rule:evenodd; clip-rule:evenodd"
viewBox="0 0 2480 3507.43"
 xmlns:xlink="http://www.w3.org/1999/xlink">
 <defs>
  <style type="text/css">
   <![CDATA[
    .str1 {stroke:#123270;stroke-width:5.83;stroke-miterlimit:22.9256}
    .str2 {stroke:#265AAD;stroke-width:3.12;stroke-miterlimit:22.9256}
    .str0 {stroke:#123270;stroke-width:0.9;stroke-miterlimit:22.9256}
    .fil1 {fill:none}
    .fil0 {fill:#123270}
   ]]>
  </style>
 </defs>
 <g id="Layer_x0020_1">
  <metadata id="CorelCorpID_0Corel-Layer"/>
  <g id="_2653993252672">
   <g>
    <path class="fil0 str0" d="M108.79 109.92l-56.94 0.01 -0.17 -6.56c0,-6.65 -1.11,-7.78 3.12,-10.99 9.06,-6.86 19.33,-11.59 32.4,-9.83 8.11,1.1 15.1,4.17 20.23,8.18 6.26,4.9 5.19,4.04 5.3,15.69 0.04,3.97 -0.1,3.52 -3.94,3.5zm-33.03 -32.74c-10.06,1.64 -21.09,6.69 -27.42,13.73 -2.91,3.24 -2.17,6.53 -2.19,11.96 -0.04,14.32 1.54,12.59 15.15,12.6 9.33,0 18.66,0 27.99,0 28.23,0 28.96,2.77 28.89,-12.1 -0.03,-4.71 0.9,-9.12 -1.84,-12.06 -7.8,-8.37 -23.04,-16.99 -40.58,-14.13z"/>
    <circle class="fil1 str1" cx="82.22" cy="51.72" r="15.81"/>
   </g>
   <circle class="fil1 str2" cx="82.2" cy="75.79" r="59.05"/>
  </g>
 </g>
</svg>
