<svg width="17" height="16" viewBox="0 0 17 16" fill="none" xmlns="http://www.w3.org/2000/svg">
<path d="M7.99995 7.55555C8.61527 7.55555 9.21677 7.37308 9.72839 7.03123C10.24 6.68938 10.6388 6.20349 10.8742 5.63501C11.1097 5.06653 11.1713 4.44099 11.0513 3.83749C10.9312 3.23399 10.6349 2.67965 10.1998 2.24455C9.76474 1.80945 9.2104 1.51315 8.6069 1.3931C8.0034 1.27306 7.37786 1.33467 6.80938 1.57014C6.2409 1.80562 5.75501 2.20438 5.41316 2.716C5.0713 3.22762 4.88884 3.82912 4.88884 4.44444C4.88884 5.26955 5.21662 6.06088 5.80006 6.64432C6.38351 7.22777 7.17483 7.55555 7.99995 7.55555ZM7.99995 2.22221C8.43946 2.22221 8.86911 2.35254 9.23455 2.59673C9.59999 2.84091 9.88482 3.18797 10.053 3.59403C10.2212 4.00009 10.2652 4.4469 10.1795 4.87797C10.0937 5.30904 9.88208 5.705 9.5713 6.01579C9.26052 6.32657 8.86455 6.53822 8.43349 6.62396C8.00242 6.7097 7.5556 6.6657 7.14954 6.4975C6.74348 6.32931 6.39642 6.04448 6.15224 5.67904C5.90806 5.31359 5.77773 4.88395 5.77773 4.44444C5.77773 3.85507 6.01185 3.28984 6.4286 2.87309C6.84535 2.45634 7.41058 2.22221 7.99995 2.22221V2.22221Z" fill="#243663"/>
<path d="M13.5422 10.8311C12.8294 10.0778 11.9705 9.47775 11.018 9.06766C10.0654 8.65757 9.03926 8.44606 8.00219 8.44606C6.96512 8.44606 5.93894 8.65757 4.9864 9.06766C4.03385 9.47775 3.17494 10.0778 2.46219 10.8311C2.30766 10.9962 2.22184 11.2139 2.22219 11.44V13.7778C2.22219 14.0135 2.31584 14.2396 2.48254 14.4063C2.64924 14.573 2.87533 14.6667 3.11108 14.6667H12.8889C13.1246 14.6667 13.3507 14.573 13.5174 14.4063C13.6841 14.2396 13.7777 14.0135 13.7777 13.7778V11.44C13.7793 11.2145 13.6951 10.9969 13.5422 10.8311V10.8311ZM12.8889 13.7778H3.11108V11.4356C3.74096 10.7723 4.49921 10.2442 5.33968 9.88325C6.18016 9.52234 7.08528 9.33622 7.99997 9.33622C8.91466 9.33622 9.81978 9.52234 10.6603 9.88325C11.5007 10.2442 12.259 10.7723 12.8889 11.4356V13.7778Z" fill="#243663"/>
<path d="M14 5V7M14 7V9M14 7H16M14 7H12" stroke="#243663" stroke-linecap="round" stroke-linejoin="round"/>
</svg>
