<svg width="66" height="64" viewBox="0 0 66 64" fill="none" xmlns="http://www.w3.org/2000/svg">
<path d="M31.9991 30.2229C34.4604 30.2229 36.8664 29.493 38.9129 28.1256C40.9594 26.7582 42.5544 24.8146 43.4963 22.5407C44.4382 20.2668 44.6846 17.7646 44.2045 15.3506C43.7243 12.9367 42.5391 10.7193 40.7987 8.97888C39.0583 7.2385 36.8409 6.05328 34.4269 5.57311C32.0129 5.09293 29.5108 5.33938 27.2368 6.28127C24.9629 7.22316 23.0194 8.81819 21.652 10.8647C20.2845 12.9112 19.5547 15.3172 19.5547 17.7784C19.5547 21.0789 20.8658 24.2442 23.1996 26.578C25.5334 28.9118 28.6987 30.2229 31.9991 30.2229ZM31.9991 8.88955C33.7572 8.88955 35.4758 9.41087 36.9375 10.3876C38.3993 11.3643 39.5386 12.7526 40.2114 14.3768C40.8842 16.001 41.0602 17.7883 40.7172 19.5126C40.3742 21.2368 39.5277 22.8207 38.2845 24.0638C37.0414 25.307 35.4575 26.1536 33.7333 26.4965C32.009 26.8395 30.2217 26.6635 28.5975 25.9907C26.9733 25.3179 25.585 24.1786 24.6083 22.7168C23.6316 21.2551 23.1102 19.5365 23.1102 17.7784C23.1102 15.421 24.0467 13.16 25.7137 11.493C27.3807 9.82605 29.6417 8.88955 31.9991 8.88955Z" fill="#243663"/>
<path d="M54.1706 43.3254C51.3196 40.3121 47.884 37.9119 44.0738 36.2715C40.2636 34.6312 36.1589 33.7852 32.0106 33.7852C27.8623 33.7852 23.7576 34.6312 19.9474 36.2715C16.1373 37.9119 12.7016 40.3121 9.85063 43.3254C9.23252 43.9856 8.88923 44.8566 8.89063 45.761V55.1121C8.89063 56.0551 9.26523 56.9594 9.93203 57.6262C10.5988 58.293 11.5032 58.6676 12.4462 58.6676H51.5573C52.5003 58.6676 53.4047 58.293 54.0714 57.6262C54.7382 56.9594 55.1128 56.0551 55.1128 55.1121V45.761C55.1191 44.859 54.7823 43.9883 54.1706 43.3254ZM51.5573 55.1121H12.4462V45.7432C14.9657 43.0902 17.9987 40.9775 21.3606 39.5339C24.7225 38.0903 28.343 37.3458 32.0017 37.3458C35.6605 37.3458 39.281 38.0903 42.6429 39.5339C46.0048 40.9775 49.0378 43.0902 51.5573 45.7432V55.1121Z" fill="#243663"/>
<path d="M56 20V28M56 28V36M56 28H64M56 28H48" stroke="#243663" stroke-width="4" stroke-linecap="round" stroke-linejoin="round"/>
</svg>
