<svg width="36" height="36" viewBox="0 0 36 36" fill="none" xmlns="http://www.w3.org/2000/svg">
<path d="M12.9375 31.5H10.6875V30.375H15.1875C15.3367 30.375 15.4798 30.3157 15.5852 30.2102C15.6907 30.1048 15.75 29.9617 15.75 29.8125V21.9375C15.75 21.7883 15.6907 21.6452 15.5852 21.5398C15.4798 21.4343 15.3367 21.375 15.1875 21.375H1.6875C1.53832 21.375 1.39525 21.4343 1.28976 21.5398C1.18427 21.6452 1.12501 21.7883 1.125 21.9375V29.8125C1.12501 29.9617 1.18427 30.1048 1.28976 30.2102C1.39525 30.3157 1.53832 30.375 1.6875 30.375H6.1875V31.5H3.9375C3.78832 31.5 3.64525 31.5593 3.53976 31.6648C3.43427 31.7702 3.37501 31.9133 3.375 32.0625V34.3125C3.37501 34.4617 3.43427 34.6048 3.53976 34.7102C3.64525 34.8157 3.78832 34.875 3.9375 34.875H12.9375C13.0867 34.875 13.2298 34.8157 13.3352 34.7102C13.4407 34.6048 13.5 34.4617 13.5 34.3125V32.0625C13.5 31.9133 13.4407 31.7702 13.3352 31.6648C13.2298 31.5593 13.0867 31.5 12.9375 31.5ZM2.25 22.5H14.625V29.25H2.25V22.5ZM7.3125 30.375H9.5625V31.5H7.3125V30.375ZM12.375 33.75H4.5V32.625H12.375V33.75Z" fill="#104E5B"/>
<path d="M14.625 33.75H18V34.875H14.625V33.75Z" fill="#104E5B"/>
<path d="M21.9375 12.9375H23.0625V14.625H21.9375V12.9375Z" fill="#104E5B"/>
<path d="M7.3125 11.25H20.8125V10.125H7.3125V2.25H21.9375V2.8125H23.0625V1.6875C23.0625 1.53832 23.0032 1.39525 22.8977 1.28976C22.7923 1.18427 22.6492 1.12501 22.5 1.125H6.75C6.60082 1.12501 6.45775 1.18427 6.35226 1.28976C6.24677 1.39525 6.18751 1.53832 6.1875 1.6875V20.25H7.3125V11.25Z" fill="#104E5B"/>
<path d="M8.4375 4.5H9.5625V7.875H8.4375V4.5Z" fill="#104E5B"/>
<path d="M8.4375 12.9375H9.5625V16.875H8.4375V12.9375Z" fill="#104E5B"/>
<path d="M33.1875 15.75H19.6875C19.5383 15.75 19.3952 15.8093 19.2898 15.9148C19.1843 16.0202 19.125 16.1633 19.125 16.3125V34.3125C19.125 34.4617 19.1843 34.6048 19.2898 34.7102C19.3952 34.8157 19.5383 34.875 19.6875 34.875H33.1875C33.3367 34.875 33.4798 34.8157 33.5852 34.7102C33.6907 34.6048 33.75 34.4617 33.75 34.3125V16.3125C33.75 16.1633 33.6907 16.0202 33.5852 15.9148C33.4798 15.8093 33.3367 15.75 33.1875 15.75ZM32.625 18.5625H30.9375V16.875H32.625V18.5625ZM21.9375 16.875V18.5625H20.25V16.875H21.9375ZM20.25 19.6875H22.5C22.6492 19.6875 22.7923 19.6282 22.8977 19.5227C23.0032 19.4173 23.0625 19.2742 23.0625 19.125V16.875H29.8125V19.125C29.8125 19.2742 29.8718 19.4173 29.9773 19.5227C30.0827 19.6282 30.2258 19.6875 30.375 19.6875H32.625V30.9375H30.375C30.2258 30.9375 30.0827 30.9968 29.9773 31.1023C29.8718 31.2077 29.8125 31.3508 29.8125 31.5V33.75H20.25V19.6875ZM30.9375 33.75V32.0625H32.625V33.75H30.9375Z" fill="#104E5B"/>
<path d="M32.0625 25.3125C32.0625 24.2 31.7326 23.1124 31.1145 22.1874C30.4964 21.2624 29.6179 20.5414 28.5901 20.1157C27.5623 19.6899 26.4313 19.5785 25.3401 19.7956C24.249 20.0126 23.2467 20.5484 22.46 21.335C21.6734 22.1217 21.1376 23.124 20.9206 24.2151C20.7035 25.3063 20.8149 26.4373 21.2407 27.4651C21.6664 28.4929 22.3874 29.3714 23.3124 29.9895C24.2374 30.6076 25.325 30.9375 26.4375 30.9375C27.9288 30.9358 29.3586 30.3426 30.4131 29.2881C31.4676 28.2336 32.0608 26.8038 32.0625 25.3125ZM21.9375 25.3125C21.9375 24.4225 22.2014 23.5525 22.6959 22.8124C23.1904 22.0724 23.8932 21.4956 24.7154 21.155C25.5377 20.8145 26.4425 20.7253 27.3154 20.899C28.1883 21.0726 28.9901 21.5012 29.6195 22.1305C30.2488 22.7599 30.6774 23.5617 30.851 24.4346C31.0247 25.3075 30.9356 26.2123 30.595 27.0346C30.2544 27.8568 29.6776 28.5596 28.9376 29.0541C28.1975 29.5486 27.3275 29.8125 26.4375 29.8125C25.2444 29.8112 24.1006 29.3366 23.257 28.493C22.4134 27.6494 21.9388 26.5056 21.9375 25.3125Z" fill="#104E5B"/>
<path d="M30.375 25.3125C30.375 24.5337 30.1441 23.7725 29.7114 23.1249C29.2788 22.4774 28.6638 21.9727 27.9443 21.6747C27.2248 21.3767 26.4331 21.2987 25.6693 21.4507C24.9055 21.6026 24.2039 21.9776 23.6533 22.5283C23.1026 23.0789 22.7276 23.7805 22.5757 24.5443C22.4237 25.3081 22.5017 26.0998 22.7997 26.8193C23.0977 27.5388 23.6024 28.1538 24.2499 28.5864C24.8975 29.0191 25.6587 29.25 26.4375 29.25C27.4814 29.2488 28.4823 28.8336 29.2204 28.0954C29.9586 27.3573 30.3738 26.3564 30.375 25.3125ZM29.25 25.3125C29.2504 25.8064 29.1206 26.2916 28.8738 26.7194C28.6269 27.1471 28.2717 27.5022 27.8439 27.749C27.4161 27.9958 26.9309 28.1255 26.437 28.125C25.9431 28.1245 25.4581 27.9939 25.0308 27.7464C25.5776 27.0529 25.875 26.1956 25.875 25.3125C25.875 24.4294 25.5776 23.5721 25.0308 22.8787C25.4581 22.6311 25.9431 22.5005 26.437 22.5C26.9309 22.4995 27.4161 22.6292 27.8439 22.876C28.2717 23.1228 28.6269 23.4779 28.8738 23.9056C29.1206 24.3334 29.2504 24.8186 29.25 25.3125ZM23.625 25.3125C23.6244 24.7044 23.8219 24.1127 24.1876 23.6269C24.5526 24.113 24.75 24.7046 24.75 25.3125C24.75 25.9205 24.5526 26.512 24.1876 26.9981C23.8219 26.5123 23.6244 25.9206 23.625 25.3125Z" fill="#104E5B"/>
<path d="M28.125 14.625C29.46 14.625 30.7651 14.2291 31.8751 13.4874C32.9851 12.7457 33.8503 11.6915 34.3612 10.4581C34.8721 9.22472 35.0058 7.86752 34.7453 6.55814C34.4849 5.24877 33.842 4.04604 32.898 3.10203C31.954 2.15803 30.7512 1.51515 29.4419 1.2547C28.1325 0.994252 26.7753 1.12792 25.5419 1.63882C24.3085 2.14971 23.2543 3.01487 22.5126 4.1249C21.7709 5.23494 21.375 6.53998 21.375 7.875C21.377 9.66459 22.0888 11.3803 23.3543 12.6457C24.6197 13.9112 26.3354 14.623 28.125 14.625ZM28.125 2.25C29.2375 2.25 30.3251 2.5799 31.2501 3.19799C32.1751 3.81607 32.8961 4.69457 33.3218 5.72241C33.7476 6.75024 33.859 7.88124 33.6419 8.97239C33.4249 10.0635 32.8891 11.0658 32.1025 11.8525C31.3158 12.6392 30.3135 13.1749 29.2224 13.3919C28.1312 13.609 27.0002 13.4976 25.9724 13.0718C24.9446 12.6461 24.0661 11.9251 23.448 11.0001C22.8299 10.0751 22.5 8.98752 22.5 7.875C22.5017 6.38368 23.0949 4.95391 24.1494 3.89939C25.2039 2.84486 26.6337 2.25169 28.125 2.25Z" fill="#104E5B"/>
<path d="M26.4378 10.6878C26.5117 10.6879 26.5849 10.6734 26.6531 10.6451C26.7214 10.6169 26.7834 10.5754 26.8356 10.5231L31.8981 5.46059L31.1025 4.66504L26.4378 9.32983L25.1481 8.04004L24.3525 8.83559L26.04 10.5231C26.0922 10.5754 26.1542 10.6169 26.2225 10.6451C26.2908 10.6734 26.3639 10.6879 26.4378 10.6878Z" fill="#104E5B"/>
</svg>
