<svg width="27" height="25" viewBox="0 0 27 25" fill="none" xmlns="http://www.w3.org/2000/svg">
<path d="M23.8343 2.44603C20.8289 -0.576343 15.8689 -0.426101 13.0075 2.71554C10.1458 -0.425989 5.18598 -0.576399 2.18056 2.44609C-0.80806 5.42236 -0.706248 10.3234 2.37307 13.196C0.797683 14.7006 1.7002 17.4043 3.84447 17.6679C3.71602 19.1362 4.96573 20.4826 6.44397 20.4577C6.53461 22.074 8.15692 23.231 9.71228 22.8039C10.2226 24.7296 12.6755 25.3876 14.0828 23.9703C14.8821 23.1758 15.5177 22.6748 15.5582 21.4716C16.8789 21.4347 18.0216 20.2766 18.0417 18.9567C19.375 18.9361 20.5367 17.774 20.5572 16.4411C21.9405 16.4201 23.1398 15.1716 23.0754 13.7623L23.8342 13.0035C26.745 10.0928 26.745 5.3567 23.8343 2.44603ZM3.51724 14.4109L4.22997 13.6982C4.41419 13.514 4.65607 13.4219 4.89806 13.4219C5.72779 13.4164 6.16089 14.4422 5.56603 15.0342L4.8533 15.747C3.93071 16.5963 2.66777 15.3339 3.51724 14.4109ZM5.50459 17.8462C5.50459 17.5938 5.6029 17.3565 5.78133 17.1781L6.49446 16.465C6.67284 16.2868 6.90993 16.1886 7.1621 16.1886C7.99889 16.1872 8.42304 17.2106 7.83013 17.8014L7.20125 18.4303C7.00902 18.6482 6.74496 18.7956 6.44931 18.7909C5.94159 18.8013 5.49408 18.354 5.50459 17.8462ZM8.38078 20.9459C8.01429 20.5942 8.01429 19.9615 8.38078 19.6099L9.00967 18.9809C9.37632 18.5457 10.02 18.489 10.4296 18.8971C10.798 19.2655 10.798 19.8647 10.4296 20.2331L9.71684 20.9459C9.34852 21.3144 8.74916 21.3144 8.38078 20.9459ZM13.6161 22.078L12.9034 22.7908C12.7249 22.9692 12.4877 23.0675 12.2353 23.0675C11.9829 23.0675 11.7457 22.9692 11.5672 22.7908C11.2008 22.4391 11.2006 21.8064 11.5673 21.4547L12.28 20.742C12.6483 20.3736 13.2477 20.3736 13.616 20.7419C13.9826 21.0936 13.9826 21.7263 13.6161 22.078ZM21.1315 14.4997C20.7798 14.8662 20.1471 14.8663 19.7955 14.4997L16.0835 10.7877L14.9039 11.9673L18.6159 15.6793C18.9843 16.0476 18.9843 16.6469 18.6159 17.0153C18.2476 17.3838 17.6482 17.3837 17.2799 17.0153L13.6308 13.3663L13.5679 13.3033L12.3884 14.4829L12.4513 14.5458L16.1003 18.1948C16.4687 18.5632 16.4687 19.1626 16.1003 19.531C15.732 19.8993 15.1326 19.8993 14.7642 19.531L14.7635 19.5317C14.0857 18.8764 13.1385 18.6607 12.283 18.8845C12.0106 17.7716 10.8919 16.9291 9.76694 16.9536C9.71239 15.7558 8.69973 14.6737 7.50301 14.5444C7.66093 12.4893 5.40384 11.074 3.62261 12.0864C1.14187 9.87043 0.989073 5.98041 3.36021 3.62557C5.71772 1.25154 9.61303 1.40884 11.828 3.89508L9.76589 5.95722L11.4183 7.60962C12.6876 8.87901 14.6435 9.05366 16.1018 8.13374L21.1317 13.1637C21.4998 13.532 21.4998 14.1313 21.1315 14.4997ZM22.6548 11.824L22.4006 12.0781C22.3717 12.0462 22.3418 12.0148 22.3111 11.9841L16.1674 5.84034L15.5776 6.43008C14.7561 7.25158 13.4194 7.25169 12.5977 6.43008L12.1248 5.95722L14.4565 3.62557C20.1204 -1.58751 27.8668 6.16374 22.6548 11.824Z" fill="#3993D6"/>
</svg>
