<svg width="27" height="26" viewBox="0 0 27 26" fill="none" xmlns="http://www.w3.org/2000/svg">
<path d="M23.8343 2.9055C20.8289 -0.116871 15.8689 0.033372 13.0075 3.17502C10.1458 0.0334832 5.18598 -0.116926 2.18056 2.90556C-0.80806 5.88184 -0.706248 10.7829 2.37307 13.6555C0.797683 15.1601 1.7002 17.8638 3.84447 18.1274C3.71602 19.5956 4.96573 20.9421 6.44397 20.9171C6.53461 22.5335 8.15692 23.6905 9.71228 23.2634C10.2226 25.1891 12.6755 25.8471 14.0828 24.4298C14.8821 23.6353 15.5177 23.1343 15.5582 21.931C16.8789 21.8942 18.0216 20.736 18.0417 19.4162C19.375 19.3956 20.5367 18.2335 20.5572 16.9006C21.9405 16.8795 23.1398 15.6311 23.0754 14.2218L23.8342 13.463C26.745 10.5523 26.745 5.81617 23.8343 2.9055ZM3.51724 14.8704L4.22997 14.1577C4.41419 13.9734 4.65607 13.8814 4.89806 13.8814C5.72779 13.8759 6.16089 14.9017 5.56603 15.4937L4.8533 16.2065C3.93071 17.0558 2.66777 15.7934 3.51724 14.8704ZM5.50459 18.3056C5.50459 18.0532 5.6029 17.816 5.78133 17.6375L6.49446 16.9245C6.67284 16.7463 6.90993 16.6481 7.1621 16.6481C7.99889 16.6467 8.42304 17.6701 7.83013 18.2609L7.20125 18.8898C7.00902 19.1077 6.74496 19.2551 6.44931 19.2503C5.94159 19.2608 5.49408 18.8135 5.50459 18.3056ZM8.38078 21.4053C8.01429 21.0537 8.01429 20.421 8.38078 20.0693L9.00967 19.4404C9.37632 19.0051 10.02 18.9485 10.4296 19.3565C10.798 19.7249 10.798 20.3242 10.4296 20.6926L9.71684 21.4054C9.34852 21.7739 8.74916 21.7738 8.38078 21.4053ZM13.6161 22.5375L12.9034 23.2502C12.7249 23.4287 12.4877 23.527 12.2353 23.527C11.9829 23.527 11.7457 23.4287 11.5672 23.2502C11.2008 22.8985 11.2006 22.2658 11.5673 21.9142L12.28 21.2014C12.6483 20.8331 13.2477 20.8331 13.616 21.2014C13.9826 21.5531 13.9826 22.1858 13.6161 22.5375ZM21.1315 14.9592C20.7798 15.3257 20.1471 15.3257 19.7955 14.9592L16.0835 11.2472L14.9039 12.4267L18.6159 16.1387C18.9843 16.5071 18.9843 17.1064 18.6159 17.4748C18.2476 17.8433 17.6482 17.8432 17.2799 17.4748L13.6308 13.8258L13.5679 13.7628L12.3884 14.9423L12.4513 15.0053L16.1003 18.6543C16.4687 19.0227 16.4687 19.6221 16.1003 19.9904C15.732 20.3588 15.1326 20.3588 14.7642 19.9904L14.7635 19.9912C14.0857 19.3359 13.1385 19.1202 12.283 19.3439C12.0106 18.2311 10.8919 17.3885 9.76694 17.4131C9.71239 16.2152 8.69973 15.1332 7.50301 15.0039C7.66093 12.9488 5.40384 11.5335 3.62261 12.5459C1.14187 10.3299 0.989073 6.43988 3.36021 4.08504C5.71772 1.71101 9.61303 1.86832 11.828 4.35455L9.76589 6.4167L11.4183 8.06909C12.6876 9.33848 14.6435 9.51313 16.1018 8.59322L21.1317 13.6231C21.4998 13.9915 21.4998 14.5908 21.1315 14.9592ZM22.6548 12.2835L22.4006 12.5376C22.3717 12.5056 22.3418 12.4743 22.3111 12.4436L16.1674 6.29981L15.5776 6.88955C14.7561 7.71105 13.4194 7.71116 12.5977 6.88955L12.1248 6.4167L14.4565 4.08504C20.1204 -1.12804 27.8668 6.62321 22.6548 12.2835Z" fill="#023273"/>
</svg>
