<svg width="376" height="372" viewBox="0 0 376 372" fill="none" xmlns="http://www.w3.org/2000/svg">
<g filter="url(#filter0_d)">
<rect x="15" y="15" width="346" height="53" rx="16" fill="white"/>
<rect x="15.5" y="15.5" width="345" height="52" rx="15.5" stroke="#243663"/>
</g>
<path d="M33.5 39L43 48.5L52.5 39" stroke="#1C76C2" stroke-width="2"/>
<path d="M245.427 48.204C244.498 48.204 243.665 47.9717 242.928 47.507C242.203 47.0423 241.63 46.3737 241.211 45.501C240.803 44.6283 240.599 43.6027 240.599 42.424C240.599 41.2567 240.809 40.2367 241.228 39.364C241.647 38.48 242.231 37.8057 242.979 37.341C243.727 36.865 244.571 36.627 245.512 36.627C246.135 36.627 246.708 36.7573 247.229 37.018C247.75 37.2787 248.187 37.6017 248.538 37.987L247.841 38.82C247.195 38.0947 246.424 37.732 245.529 37.732C244.804 37.732 244.169 37.9247 243.625 38.31C243.081 38.684 242.656 39.2223 242.35 39.925C242.055 40.6163 241.908 41.438 241.908 42.39C241.908 43.342 242.05 44.175 242.333 44.889C242.628 45.5917 243.041 46.1357 243.574 46.521C244.118 46.9063 244.753 47.099 245.478 47.099C245.999 47.099 246.47 46.9913 246.889 46.776C247.32 46.5607 247.733 46.2377 248.13 45.807L248.827 46.589C248.374 47.1217 247.869 47.524 247.314 47.796C246.759 48.068 246.13 48.204 245.427 48.204ZM252.709 48.204C252.006 48.204 251.428 48 250.975 47.592C250.521 47.184 250.295 46.6117 250.295 45.875C250.295 44.9797 250.703 44.294 251.519 43.818C252.335 43.3307 253.638 42.9907 255.429 42.798C255.429 42.152 255.293 41.625 255.021 41.217C254.76 40.7977 254.307 40.588 253.661 40.588C252.879 40.588 252.046 40.8883 251.162 41.489L250.669 40.639C251.757 39.9137 252.822 39.551 253.865 39.551C254.817 39.551 255.519 39.8513 255.973 40.452C256.426 41.0413 256.653 41.8573 256.653 42.9V48H255.633L255.531 46.997H255.48C254.505 47.8017 253.581 48.204 252.709 48.204ZM253.032 47.201C253.428 47.201 253.814 47.1103 254.188 46.929C254.573 46.7363 254.987 46.4417 255.429 46.045V43.631C254.012 43.801 253.003 44.0617 252.403 44.413C251.813 44.7643 251.519 45.229 251.519 45.807C251.519 46.2717 251.66 46.623 251.944 46.861C252.227 47.0877 252.59 47.201 253.032 47.201ZM261.638 48.204C260.822 48.204 260.239 47.9717 259.887 47.507C259.536 47.0423 259.36 46.3793 259.36 45.518V40.775H258.119V39.84L259.411 39.755L259.564 37.426H260.601V39.755H262.862V40.775H260.601V45.552C260.601 46.096 260.698 46.504 260.89 46.776C261.094 47.048 261.434 47.184 261.91 47.184C262.148 47.184 262.466 47.1103 262.862 46.963L263.117 47.898C262.505 48.102 262.012 48.204 261.638 48.204ZM270.841 43.41C270.841 43.7047 270.824 43.954 270.79 44.158H265.095C265.152 45.1213 265.447 45.8693 265.979 46.402C266.523 46.9347 267.186 47.201 267.968 47.201C268.694 47.201 269.391 46.98 270.059 46.538L270.518 47.354C270.11 47.6147 269.691 47.8243 269.26 47.983C268.83 48.1303 268.348 48.204 267.815 48.204C267.09 48.204 266.427 48.034 265.826 47.694C265.237 47.3427 264.767 46.8383 264.415 46.181C264.075 45.5237 263.905 44.7587 263.905 43.886C263.905 43.0247 264.075 42.2653 264.415 41.608C264.767 40.9507 265.226 40.4463 265.792 40.095C266.359 39.7323 266.96 39.551 267.594 39.551C268.614 39.551 269.408 39.8967 269.974 40.588C270.552 41.268 270.841 42.2087 270.841 43.41ZM269.736 43.257C269.736 42.3843 269.549 41.7157 269.175 41.251C268.801 40.7863 268.28 40.554 267.611 40.554C266.999 40.554 266.455 40.7863 265.979 41.251C265.503 41.7157 265.22 42.3843 265.129 43.257H269.736ZM275.673 51.842C274.641 51.842 273.814 51.6437 273.191 51.247C272.579 50.8503 272.273 50.3063 272.273 49.615C272.273 49.2637 272.375 48.9237 272.579 48.595C272.794 48.2663 273.094 47.9717 273.48 47.711V47.643C273.264 47.507 273.089 47.3257 272.953 47.099C272.817 46.8723 272.749 46.606 272.749 46.3C272.749 45.9827 272.834 45.6937 273.004 45.433C273.185 45.161 273.4 44.94 273.65 44.77V44.702C273.355 44.464 273.106 44.1523 272.902 43.767C272.698 43.3817 272.596 42.9567 272.596 42.492C272.596 41.914 272.732 41.404 273.004 40.962C273.276 40.5087 273.644 40.163 274.109 39.925C274.573 39.6757 275.083 39.551 275.639 39.551C276.013 39.551 276.392 39.619 276.778 39.755H279.634V40.724H277.883C278.098 40.928 278.274 41.1887 278.41 41.506C278.546 41.8233 278.614 42.1577 278.614 42.509C278.614 43.0757 278.483 43.58 278.223 44.022C277.962 44.4527 277.605 44.787 277.152 45.025C276.698 45.263 276.194 45.382 275.639 45.382C275.185 45.382 274.766 45.2857 274.381 45.093C274.199 45.2403 274.058 45.3933 273.956 45.552C273.865 45.6993 273.82 45.8863 273.82 46.113C273.82 46.4077 273.927 46.64 274.143 46.81C274.369 46.9687 274.749 47.048 275.282 47.048H276.931C277.894 47.048 278.608 47.2067 279.073 47.524C279.537 47.8413 279.77 48.3343 279.77 49.003C279.77 49.5017 279.6 49.9663 279.26 50.397C278.92 50.839 278.438 51.1903 277.815 51.451C277.191 51.7117 276.477 51.842 275.673 51.842ZM275.639 44.532C276.149 44.532 276.579 44.345 276.931 43.971C277.293 43.5857 277.475 43.0927 277.475 42.492C277.475 41.88 277.299 41.3927 276.948 41.03C276.596 40.656 276.16 40.469 275.639 40.469C275.117 40.469 274.675 40.656 274.313 41.03C273.961 41.3927 273.786 41.88 273.786 42.492C273.786 43.0927 273.961 43.5857 274.313 43.971C274.675 44.345 275.117 44.532 275.639 44.532ZM275.843 50.958C276.364 50.958 276.829 50.873 277.237 50.703C277.656 50.5443 277.979 50.3233 278.206 50.04C278.432 49.768 278.546 49.479 278.546 49.173C278.546 48.7877 278.404 48.51 278.121 48.34C277.837 48.1813 277.407 48.102 276.829 48.102H275.316C274.964 48.102 274.613 48.0567 274.262 47.966C273.661 48.3853 273.361 48.8783 273.361 49.445C273.361 49.9097 273.582 50.278 274.024 50.55C274.466 50.822 275.072 50.958 275.843 50.958ZM284.348 48.204C283.668 48.204 283.039 48.034 282.461 47.694C281.883 47.3427 281.418 46.844 281.067 46.198C280.727 45.5407 280.557 44.77 280.557 43.886C280.557 43.002 280.727 42.2313 281.067 41.574C281.418 40.9167 281.883 40.418 282.461 40.078C283.039 39.7267 283.668 39.551 284.348 39.551C285.028 39.551 285.657 39.7267 286.235 40.078C286.813 40.418 287.272 40.9167 287.612 41.574C287.963 42.2313 288.139 43.002 288.139 43.886C288.139 44.77 287.963 45.5407 287.612 46.198C287.272 46.844 286.813 47.3427 286.235 47.694C285.657 48.034 285.028 48.204 284.348 48.204ZM284.348 47.167C284.835 47.167 285.266 47.031 285.64 46.759C286.025 46.487 286.325 46.1017 286.541 45.603C286.756 45.1043 286.864 44.532 286.864 43.886C286.864 43.24 286.756 42.6677 286.541 42.169C286.325 41.6703 286.025 41.285 285.64 41.013C285.266 40.7297 284.835 40.588 284.348 40.588C283.86 40.588 283.424 40.7297 283.039 41.013C282.665 41.285 282.37 41.6703 282.155 42.169C281.951 42.6677 281.849 43.24 281.849 43.886C281.849 44.872 282.081 45.6653 282.546 46.266C283.01 46.8667 283.611 47.167 284.348 47.167ZM290.383 39.755H291.403L291.505 41.268H291.556C291.84 40.7353 292.185 40.316 292.593 40.01C293.001 39.704 293.438 39.551 293.902 39.551C294.231 39.551 294.514 39.6077 294.752 39.721L294.514 40.809C294.22 40.7183 293.959 40.673 293.732 40.673C293.347 40.673 292.962 40.8317 292.576 41.149C292.202 41.4663 291.879 41.9593 291.607 42.628V48H290.383V39.755ZM296.659 51.604C296.319 51.604 296.008 51.5473 295.724 51.434L295.962 50.431C296.189 50.5217 296.404 50.567 296.608 50.567C297.062 50.567 297.447 50.397 297.764 50.057C298.082 49.717 298.337 49.258 298.529 48.68L298.733 48.051L295.401 39.755H296.676L298.444 44.481L299.26 46.793H299.328C299.487 46.317 299.651 45.7957 299.821 45.229L300.042 44.481L301.589 39.755H302.796L299.668 48.765C299.351 49.649 298.954 50.3403 298.478 50.839C298.014 51.349 297.407 51.604 296.659 51.604Z" fill="#888C94"/>
<g filter="url(#filter1_d)">
<circle cx="330.5" cy="41.5" r="15.5" fill="white"/>
</g>
<path d="M337.75 48.625L334.385 45.0672L337.75 48.625ZM336.25 40.3125C336.25 42.0972 335.578 43.8088 334.383 45.0707C333.187 46.3327 331.566 47.0417 329.875 47.0417C328.184 47.0417 326.563 46.3327 325.367 45.0707C324.171 43.8088 323.5 42.0972 323.5 40.3125C323.5 38.5278 324.171 36.8162 325.367 35.5543C326.563 34.2923 328.184 33.5833 329.875 33.5833C331.566 33.5833 333.187 34.2923 334.383 35.5543C335.578 36.8162 336.25 38.5278 336.25 40.3125V40.3125Z" stroke="#023273" stroke-width="0.84" stroke-linecap="round" stroke-linejoin="round"/>
<g filter="url(#filter2_d)">
<rect x="15" y="79" width="346" height="53" rx="16" fill="white"/>
<rect x="15.5" y="79.5" width="345" height="52" rx="15.5" stroke="#243663"/>
</g>
<path d="M33.5 103L43 112.5L52.5 103" stroke="#1C76C2" stroke-width="2"/>
<path d="M211.57 112.204C210.369 112.204 209.411 111.836 208.697 111.099C207.983 110.351 207.626 109.144 207.626 107.478V100.831H208.884V107.478C208.884 108.77 209.128 109.699 209.615 110.266C210.103 110.821 210.754 111.099 211.57 111.099C212.409 111.099 213.078 110.821 213.576 110.266C214.075 109.699 214.324 108.77 214.324 107.478V100.831H215.531V107.478C215.531 109.144 215.169 110.351 214.443 111.099C213.729 111.836 212.772 112.204 211.57 112.204ZM218.482 103.755H219.502L219.604 104.979H219.655C220.108 104.526 220.55 104.174 220.981 103.925C221.423 103.676 221.905 103.551 222.426 103.551C223.287 103.551 223.922 103.823 224.33 104.367C224.738 104.9 224.942 105.699 224.942 106.764V112H223.701V106.917C223.701 106.124 223.571 105.546 223.31 105.183C223.061 104.82 222.647 104.639 222.069 104.639C221.661 104.639 221.281 104.747 220.93 104.962C220.579 105.166 220.171 105.5 219.706 105.965V112H218.482V103.755ZM230.484 112.204C229.441 112.204 228.614 111.824 228.002 111.065C227.401 110.306 227.101 109.246 227.101 107.886C227.101 107.025 227.265 106.265 227.594 105.608C227.922 104.951 228.359 104.446 228.903 104.095C229.458 103.732 230.053 103.551 230.688 103.551C231.13 103.551 231.526 103.63 231.878 103.789C232.229 103.948 232.614 104.191 233.034 104.52L232.983 103.092V99.862H234.207V112H233.187L233.085 110.997H233.034C232.682 111.36 232.286 111.654 231.844 111.881C231.413 112.096 230.96 112.204 230.484 112.204ZM230.756 111.15C231.152 111.15 231.526 111.054 231.878 110.861C232.24 110.668 232.609 110.374 232.983 109.977V105.506C232.62 105.189 232.269 104.962 231.929 104.826C231.589 104.679 231.237 104.605 230.875 104.605C230.41 104.605 229.985 104.747 229.6 105.03C229.226 105.313 228.925 105.704 228.699 106.203C228.483 106.702 228.376 107.263 228.376 107.886C228.376 108.906 228.58 109.705 228.988 110.283C229.407 110.861 229.996 111.15 230.756 111.15ZM243.382 107.41C243.382 107.705 243.365 107.954 243.331 108.158H237.636C237.693 109.121 237.988 109.869 238.52 110.402C239.064 110.935 239.727 111.201 240.509 111.201C241.235 111.201 241.932 110.98 242.6 110.538L243.059 111.354C242.651 111.615 242.232 111.824 241.801 111.983C241.371 112.13 240.889 112.204 240.356 112.204C239.631 112.204 238.968 112.034 238.367 111.694C237.778 111.343 237.308 110.838 236.956 110.181C236.616 109.524 236.446 108.759 236.446 107.886C236.446 107.025 236.616 106.265 236.956 105.608C237.308 104.951 237.767 104.446 238.333 104.095C238.9 103.732 239.501 103.551 240.135 103.551C241.155 103.551 241.949 103.897 242.515 104.588C243.093 105.268 243.382 106.209 243.382 107.41ZM242.277 107.257C242.277 106.384 242.09 105.716 241.716 105.251C241.342 104.786 240.821 104.554 240.152 104.554C239.54 104.554 238.996 104.786 238.52 105.251C238.044 105.716 237.761 106.384 237.67 107.257H242.277ZM245.46 103.755H246.48L246.582 105.268H246.633C246.916 104.735 247.262 104.316 247.67 104.01C248.078 103.704 248.514 103.551 248.979 103.551C249.307 103.551 249.591 103.608 249.829 103.721L249.591 104.809C249.296 104.718 249.035 104.673 248.809 104.673C248.423 104.673 248.038 104.832 247.653 105.149C247.279 105.466 246.956 105.959 246.684 106.628V112H245.46V103.755ZM252.709 112.204C252.006 112.204 251.428 112 250.975 111.592C250.521 111.184 250.295 110.612 250.295 109.875C250.295 108.98 250.703 108.294 251.519 107.818C252.335 107.331 253.638 106.991 255.429 106.798C255.429 106.152 255.293 105.625 255.021 105.217C254.76 104.798 254.307 104.588 253.661 104.588C252.879 104.588 252.046 104.888 251.162 105.489L250.669 104.639C251.757 103.914 252.822 103.551 253.865 103.551C254.817 103.551 255.519 103.851 255.973 104.452C256.426 105.041 256.653 105.857 256.653 106.9V112H255.633L255.531 110.997H255.48C254.505 111.802 253.581 112.204 252.709 112.204ZM253.032 111.201C253.428 111.201 253.814 111.11 254.188 110.929C254.573 110.736 254.987 110.442 255.429 110.045V107.631C254.012 107.801 253.003 108.062 252.403 108.413C251.813 108.764 251.519 109.229 251.519 109.807C251.519 110.272 251.66 110.623 251.944 110.861C252.227 111.088 252.59 111.201 253.032 111.201ZM261.638 112.204C260.822 112.204 260.239 111.972 259.887 111.507C259.536 111.042 259.36 110.379 259.36 109.518V104.775H258.119V103.84L259.411 103.755L259.564 101.426H260.601V103.755H262.862V104.775H260.601V109.552C260.601 110.096 260.698 110.504 260.89 110.776C261.094 111.048 261.434 111.184 261.91 111.184C262.148 111.184 262.466 111.11 262.862 110.963L263.117 111.898C262.505 112.102 262.012 112.204 261.638 112.204ZM270.841 107.41C270.841 107.705 270.824 107.954 270.79 108.158H265.095C265.152 109.121 265.447 109.869 265.979 110.402C266.523 110.935 267.186 111.201 267.968 111.201C268.694 111.201 269.391 110.98 270.059 110.538L270.518 111.354C270.11 111.615 269.691 111.824 269.26 111.983C268.83 112.13 268.348 112.204 267.815 112.204C267.09 112.204 266.427 112.034 265.826 111.694C265.237 111.343 264.767 110.838 264.415 110.181C264.075 109.524 263.905 108.759 263.905 107.886C263.905 107.025 264.075 106.265 264.415 105.608C264.767 104.951 265.226 104.446 265.792 104.095C266.359 103.732 266.96 103.551 267.594 103.551C268.614 103.551 269.408 103.897 269.974 104.588C270.552 105.268 270.841 106.209 270.841 107.41ZM269.736 107.257C269.736 106.384 269.549 105.716 269.175 105.251C268.801 104.786 268.28 104.554 267.611 104.554C266.999 104.554 266.455 104.786 265.979 105.251C265.503 105.716 265.22 106.384 265.129 107.257H269.736ZM275.673 115.842C274.641 115.842 273.814 115.644 273.191 115.247C272.579 114.85 272.273 114.306 272.273 113.615C272.273 113.264 272.375 112.924 272.579 112.595C272.794 112.266 273.094 111.972 273.48 111.711V111.643C273.264 111.507 273.089 111.326 272.953 111.099C272.817 110.872 272.749 110.606 272.749 110.3C272.749 109.983 272.834 109.694 273.004 109.433C273.185 109.161 273.4 108.94 273.65 108.77V108.702C273.355 108.464 273.106 108.152 272.902 107.767C272.698 107.382 272.596 106.957 272.596 106.492C272.596 105.914 272.732 105.404 273.004 104.962C273.276 104.509 273.644 104.163 274.109 103.925C274.573 103.676 275.083 103.551 275.639 103.551C276.013 103.551 276.392 103.619 276.778 103.755H279.634V104.724H277.883C278.098 104.928 278.274 105.189 278.41 105.506C278.546 105.823 278.614 106.158 278.614 106.509C278.614 107.076 278.483 107.58 278.223 108.022C277.962 108.453 277.605 108.787 277.152 109.025C276.698 109.263 276.194 109.382 275.639 109.382C275.185 109.382 274.766 109.286 274.381 109.093C274.199 109.24 274.058 109.393 273.956 109.552C273.865 109.699 273.82 109.886 273.82 110.113C273.82 110.408 273.927 110.64 274.143 110.81C274.369 110.969 274.749 111.048 275.282 111.048H276.931C277.894 111.048 278.608 111.207 279.073 111.524C279.537 111.841 279.77 112.334 279.77 113.003C279.77 113.502 279.6 113.966 279.26 114.397C278.92 114.839 278.438 115.19 277.815 115.451C277.191 115.712 276.477 115.842 275.673 115.842ZM275.639 108.532C276.149 108.532 276.579 108.345 276.931 107.971C277.293 107.586 277.475 107.093 277.475 106.492C277.475 105.88 277.299 105.393 276.948 105.03C276.596 104.656 276.16 104.469 275.639 104.469C275.117 104.469 274.675 104.656 274.313 105.03C273.961 105.393 273.786 105.88 273.786 106.492C273.786 107.093 273.961 107.586 274.313 107.971C274.675 108.345 275.117 108.532 275.639 108.532ZM275.843 114.958C276.364 114.958 276.829 114.873 277.237 114.703C277.656 114.544 277.979 114.323 278.206 114.04C278.432 113.768 278.546 113.479 278.546 113.173C278.546 112.788 278.404 112.51 278.121 112.34C277.837 112.181 277.407 112.102 276.829 112.102H275.316C274.964 112.102 274.613 112.057 274.262 111.966C273.661 112.385 273.361 112.878 273.361 113.445C273.361 113.91 273.582 114.278 274.024 114.55C274.466 114.822 275.072 114.958 275.843 114.958ZM284.348 112.204C283.668 112.204 283.039 112.034 282.461 111.694C281.883 111.343 281.418 110.844 281.067 110.198C280.727 109.541 280.557 108.77 280.557 107.886C280.557 107.002 280.727 106.231 281.067 105.574C281.418 104.917 281.883 104.418 282.461 104.078C283.039 103.727 283.668 103.551 284.348 103.551C285.028 103.551 285.657 103.727 286.235 104.078C286.813 104.418 287.272 104.917 287.612 105.574C287.963 106.231 288.139 107.002 288.139 107.886C288.139 108.77 287.963 109.541 287.612 110.198C287.272 110.844 286.813 111.343 286.235 111.694C285.657 112.034 285.028 112.204 284.348 112.204ZM284.348 111.167C284.835 111.167 285.266 111.031 285.64 110.759C286.025 110.487 286.325 110.102 286.541 109.603C286.756 109.104 286.864 108.532 286.864 107.886C286.864 107.24 286.756 106.668 286.541 106.169C286.325 105.67 286.025 105.285 285.64 105.013C285.266 104.73 284.835 104.588 284.348 104.588C283.86 104.588 283.424 104.73 283.039 105.013C282.665 105.285 282.37 105.67 282.155 106.169C281.951 106.668 281.849 107.24 281.849 107.886C281.849 108.872 282.081 109.665 282.546 110.266C283.01 110.867 283.611 111.167 284.348 111.167ZM290.383 103.755H291.403L291.505 105.268H291.556C291.84 104.735 292.185 104.316 292.593 104.01C293.001 103.704 293.438 103.551 293.902 103.551C294.231 103.551 294.514 103.608 294.752 103.721L294.514 104.809C294.22 104.718 293.959 104.673 293.732 104.673C293.347 104.673 292.962 104.832 292.576 105.149C292.202 105.466 291.879 105.959 291.607 106.628V112H290.383V103.755ZM296.659 115.604C296.319 115.604 296.008 115.547 295.724 115.434L295.962 114.431C296.189 114.522 296.404 114.567 296.608 114.567C297.062 114.567 297.447 114.397 297.764 114.057C298.082 113.717 298.337 113.258 298.529 112.68L298.733 112.051L295.401 103.755H296.676L298.444 108.481L299.26 110.793H299.328C299.487 110.317 299.651 109.796 299.821 109.229L300.042 108.481L301.589 103.755H302.796L299.668 112.765C299.351 113.649 298.954 114.34 298.478 114.839C298.014 115.349 297.407 115.604 296.659 115.604Z" fill="#888C94"/>
<g filter="url(#filter3_d)">
<circle cx="330.5" cy="105.5" r="15.5" fill="white"/>
</g>
<path d="M337.75 112.625L334.385 109.067L337.75 112.625ZM336.25 104.312C336.25 106.097 335.578 107.809 334.383 109.071C333.187 110.333 331.566 111.042 329.875 111.042C328.184 111.042 326.563 110.333 325.367 109.071C324.171 107.809 323.5 106.097 323.5 104.312C323.5 102.528 324.171 100.816 325.367 99.5543C326.563 98.2923 328.184 97.5833 329.875 97.5833C331.566 97.5833 333.187 98.2923 334.383 99.5543C335.578 100.816 336.25 102.528 336.25 104.312V104.312Z" stroke="#023273" stroke-width="0.84" stroke-linecap="round" stroke-linejoin="round"/>
<g filter="url(#filter4_d)">
<rect x="15" y="143" width="346" height="53" rx="16" fill="white"/>
<rect x="15.5" y="143.5" width="345" height="52" rx="15.5" stroke="#243663"/>
</g>
<path d="M33.5 167L43 176.5L52.5 167" stroke="#1C76C2" stroke-width="2"/>
<path d="M244.35 164.831H247.087C248.787 164.831 250.079 165.313 250.963 166.276C251.858 167.239 252.306 168.605 252.306 170.373C252.306 172.141 251.858 173.524 250.963 174.521C250.079 175.507 248.804 176 247.138 176H244.35V164.831ZM246.985 174.963C248.322 174.963 249.325 174.566 249.994 173.773C250.674 172.968 251.014 171.835 251.014 170.373C251.014 168.934 250.674 167.823 249.994 167.041C249.325 166.259 248.322 165.868 246.985 165.868H245.608V174.963H246.985ZM254.657 167.755H255.881V176H254.657V167.755ZM255.286 165.987C255.037 165.987 254.833 165.908 254.674 165.749C254.515 165.59 254.436 165.381 254.436 165.12C254.436 164.871 254.515 164.672 254.674 164.525C254.833 164.366 255.037 164.287 255.286 164.287C255.535 164.287 255.739 164.366 255.898 164.525C256.057 164.672 256.136 164.871 256.136 165.12C256.136 165.381 256.057 165.59 255.898 165.749C255.739 165.908 255.535 165.987 255.286 165.987ZM260.882 176.204C260.315 176.204 259.766 176.102 259.233 175.898C258.7 175.683 258.23 175.405 257.822 175.065L258.451 174.232C258.859 174.561 259.256 174.81 259.641 174.98C260.026 175.15 260.457 175.235 260.933 175.235C261.477 175.235 261.896 175.105 262.191 174.844C262.486 174.583 262.633 174.255 262.633 173.858C262.633 173.461 262.463 173.144 262.123 172.906C261.794 172.668 261.324 172.441 260.712 172.226C259.93 171.943 259.318 171.637 258.876 171.308C258.434 170.968 258.213 170.486 258.213 169.863C258.213 169.194 258.462 168.645 258.961 168.214C259.471 167.772 260.157 167.551 261.018 167.551C261.483 167.551 261.93 167.636 262.361 167.806C262.792 167.976 263.177 168.197 263.517 168.469L262.922 169.268C262.593 169.03 262.282 168.849 261.987 168.724C261.692 168.599 261.369 168.537 261.018 168.537C260.497 168.537 260.1 168.662 259.828 168.911C259.556 169.149 259.42 169.444 259.42 169.795C259.42 170.044 259.499 170.26 259.658 170.441C259.828 170.622 260.032 170.77 260.27 170.883C260.508 170.985 260.842 171.121 261.273 171.291C261.851 171.506 262.304 171.699 262.633 171.869C262.962 172.039 263.245 172.283 263.483 172.6C263.721 172.906 263.84 173.303 263.84 173.79C263.84 174.232 263.721 174.64 263.483 175.014C263.256 175.377 262.916 175.666 262.463 175.881C262.021 176.096 261.494 176.204 260.882 176.204ZM268.179 176.204C267.363 176.204 266.78 175.972 266.428 175.507C266.077 175.042 265.901 174.379 265.901 173.518V168.775H264.66V167.84L265.952 167.755L266.105 165.426H267.142V167.755H269.403V168.775H267.142V173.552C267.142 174.096 267.239 174.504 267.431 174.776C267.635 175.048 267.975 175.184 268.451 175.184C268.689 175.184 269.007 175.11 269.403 174.963L269.658 175.898C269.046 176.102 268.553 176.204 268.179 176.204ZM272.813 176.204C272.11 176.204 271.532 176 271.079 175.592C270.626 175.184 270.399 174.612 270.399 173.875C270.399 172.98 270.807 172.294 271.623 171.818C272.439 171.331 273.742 170.991 275.533 170.798C275.533 170.152 275.397 169.625 275.125 169.217C274.864 168.798 274.411 168.588 273.765 168.588C272.983 168.588 272.15 168.888 271.266 169.489L270.773 168.639C271.861 167.914 272.926 167.551 273.969 167.551C274.921 167.551 275.624 167.851 276.077 168.452C276.53 169.041 276.757 169.857 276.757 170.9V176H275.737L275.635 174.997H275.584C274.609 175.802 273.686 176.204 272.813 176.204ZM273.136 175.201C273.533 175.201 273.918 175.11 274.292 174.929C274.677 174.736 275.091 174.442 275.533 174.045V171.631C274.116 171.801 273.108 172.062 272.507 172.413C271.918 172.764 271.623 173.229 271.623 173.807C271.623 174.272 271.765 174.623 272.048 174.861C272.331 175.088 272.694 175.201 273.136 175.201ZM279.46 167.755H280.48L280.582 168.979H280.633C281.086 168.526 281.528 168.174 281.959 167.925C282.401 167.676 282.882 167.551 283.404 167.551C284.265 167.551 284.9 167.823 285.308 168.367C285.716 168.9 285.92 169.699 285.92 170.764V176H284.679V170.917C284.679 170.124 284.548 169.546 284.288 169.183C284.038 168.82 283.625 168.639 283.047 168.639C282.639 168.639 282.259 168.747 281.908 168.962C281.556 169.166 281.148 169.5 280.684 169.965V176H279.46V167.755ZM291.886 176.204C291.161 176.204 290.503 176.034 289.914 175.694C289.336 175.343 288.877 174.844 288.537 174.198C288.208 173.552 288.044 172.781 288.044 171.886C288.044 171.002 288.22 170.231 288.571 169.574C288.934 168.917 289.415 168.418 290.016 168.078C290.617 167.727 291.268 167.551 291.971 167.551C292.866 167.551 293.665 167.88 294.368 168.537L293.722 169.353C293.45 169.104 293.178 168.917 292.906 168.792C292.634 168.656 292.339 168.588 292.022 168.588C291.512 168.588 291.053 168.73 290.645 169.013C290.237 169.285 289.914 169.67 289.676 170.169C289.449 170.668 289.336 171.24 289.336 171.886C289.336 172.872 289.58 173.665 290.067 174.266C290.554 174.867 291.195 175.167 291.988 175.167C292.702 175.167 293.371 174.884 293.994 174.317L294.538 175.15C294.164 175.479 293.75 175.739 293.297 175.932C292.844 176.113 292.373 176.204 291.886 176.204ZM302.368 171.41C302.368 171.705 302.351 171.954 302.317 172.158H296.622C296.678 173.121 296.973 173.869 297.506 174.402C298.05 174.935 298.713 175.201 299.495 175.201C300.22 175.201 300.917 174.98 301.586 174.538L302.045 175.354C301.637 175.615 301.217 175.824 300.787 175.983C300.356 176.13 299.874 176.204 299.342 176.204C298.616 176.204 297.953 176.034 297.353 175.694C296.763 175.343 296.293 174.838 295.942 174.181C295.602 173.524 295.432 172.759 295.432 171.886C295.432 171.025 295.602 170.265 295.942 169.608C296.293 168.951 296.752 168.446 297.319 168.095C297.885 167.732 298.486 167.551 299.121 167.551C300.141 167.551 300.934 167.897 301.501 168.588C302.079 169.268 302.368 170.209 302.368 171.41ZM301.263 171.257C301.263 170.384 301.076 169.716 300.702 169.251C300.328 168.786 299.806 168.554 299.138 168.554C298.526 168.554 297.982 168.786 297.506 169.251C297.03 169.716 296.746 170.384 296.656 171.257H301.263Z" fill="#888C94"/>
<g filter="url(#filter5_d)">
<circle cx="330.5" cy="169.5" r="15.5" fill="white"/>
</g>
<path d="M337.75 176.625L334.385 173.067L337.75 176.625ZM336.25 168.312C336.25 170.097 335.578 171.809 334.383 173.071C333.187 174.333 331.566 175.042 329.875 175.042C328.184 175.042 326.563 174.333 325.367 173.071C324.171 171.809 323.5 170.097 323.5 168.312C323.5 166.528 324.171 164.816 325.367 163.554C326.563 162.292 328.184 161.583 329.875 161.583C331.566 161.583 333.187 162.292 334.383 163.554C335.578 164.816 336.25 166.528 336.25 168.312V168.312Z" stroke="#023273" stroke-width="0.84" stroke-linecap="round" stroke-linejoin="round"/>
<g filter="url(#filter6_d)">
<rect x="15" y="207" width="346" height="53" rx="16" fill="white"/>
<rect x="15.5" y="207.5" width="345" height="52" rx="15.5" stroke="#243663"/>
</g>
<path d="M48.4167 225.538H45.25V224H43.6667V225.538H37.3333V224H35.75V225.538H32.5833C31.7125 225.538 31 226.231 31 227.077V242.462C31 243.308 31.7125 244 32.5833 244H48.4167C49.2875 244 50 243.308 50 242.462V227.077C50 226.231 49.2875 225.538 48.4167 225.538ZM48.4167 242.462H32.5833V231.692H48.4167V242.462ZM48.4167 230.154H32.5833V227.077H35.75V228.615H37.3333V227.077H43.6667V228.615H45.25V227.077H48.4167V230.154Z" fill="#1C76C2"/>
<path d="M272.058 228.831H274.795C276.495 228.831 277.787 229.313 278.671 230.276C279.566 231.239 280.014 232.605 280.014 234.373C280.014 236.141 279.566 237.524 278.671 238.521C277.787 239.507 276.512 240 274.846 240H272.058V228.831ZM274.693 238.963C276.03 238.963 277.033 238.566 277.702 237.773C278.382 236.968 278.722 235.835 278.722 234.373C278.722 232.934 278.382 231.823 277.702 231.041C277.033 230.259 276.03 229.868 274.693 229.868H273.316V238.963H274.693ZM284.235 240.204C283.532 240.204 282.954 240 282.501 239.592C282.048 239.184 281.821 238.612 281.821 237.875C281.821 236.98 282.229 236.294 283.045 235.818C283.861 235.331 285.164 234.991 286.955 234.798C286.955 234.152 286.819 233.625 286.547 233.217C286.286 232.798 285.833 232.588 285.187 232.588C284.405 232.588 283.572 232.888 282.688 233.489L282.195 232.639C283.283 231.914 284.348 231.551 285.391 231.551C286.343 231.551 287.046 231.851 287.499 232.452C287.952 233.041 288.179 233.857 288.179 234.9V240H287.159L287.057 238.997H287.006C286.031 239.802 285.108 240.204 284.235 240.204ZM284.558 239.201C284.955 239.201 285.34 239.11 285.714 238.929C286.099 238.736 286.513 238.442 286.955 238.045V235.631C285.538 235.801 284.53 236.062 283.929 236.413C283.34 236.764 283.045 237.229 283.045 237.807C283.045 238.272 283.187 238.623 283.47 238.861C283.753 239.088 284.116 239.201 284.558 239.201ZM293.165 240.204C292.349 240.204 291.765 239.972 291.414 239.507C291.062 239.042 290.887 238.379 290.887 237.518V232.775H289.646V231.84L290.938 231.755L291.091 229.426H292.128V231.755H294.389V232.775H292.128V237.552C292.128 238.096 292.224 238.504 292.417 238.776C292.621 239.048 292.961 239.184 293.437 239.184C293.675 239.184 293.992 239.11 294.389 238.963L294.644 239.898C294.032 240.102 293.539 240.204 293.165 240.204ZM302.368 235.41C302.368 235.705 302.351 235.954 302.317 236.158H296.622C296.678 237.121 296.973 237.869 297.506 238.402C298.05 238.935 298.713 239.201 299.495 239.201C300.22 239.201 300.917 238.98 301.586 238.538L302.045 239.354C301.637 239.615 301.217 239.824 300.787 239.983C300.356 240.13 299.874 240.204 299.342 240.204C298.616 240.204 297.953 240.034 297.353 239.694C296.763 239.343 296.293 238.838 295.942 238.181C295.602 237.524 295.432 236.759 295.432 235.886C295.432 235.025 295.602 234.265 295.942 233.608C296.293 232.951 296.752 232.446 297.319 232.095C297.885 231.732 298.486 231.551 299.121 231.551C300.141 231.551 300.934 231.897 301.501 232.588C302.079 233.268 302.368 234.209 302.368 235.41ZM301.263 235.257C301.263 234.384 301.076 233.716 300.702 233.251C300.328 232.786 299.806 232.554 299.138 232.554C298.526 232.554 297.982 232.786 297.506 233.251C297.03 233.716 296.746 234.384 296.656 235.257H301.263Z" fill="#888C94"/>
<g filter="url(#filter7_d)">
<circle cx="330.5" cy="233.5" r="15.5" fill="white"/>
</g>
<path d="M337.75 240.625L334.385 237.067L337.75 240.625ZM336.25 232.312C336.25 234.097 335.578 235.809 334.383 237.071C333.187 238.333 331.566 239.042 329.875 239.042C328.184 239.042 326.563 238.333 325.367 237.071C324.171 235.809 323.5 234.097 323.5 232.312C323.5 230.528 324.171 228.816 325.367 227.554C326.563 226.292 328.184 225.583 329.875 225.583C331.566 225.583 333.187 226.292 334.383 227.554C335.578 228.816 336.25 230.528 336.25 232.312V232.312Z" stroke="#023273" stroke-width="0.84" stroke-linecap="round" stroke-linejoin="round"/>
<g filter="url(#filter8_d)">
<rect x="77" y="289" width="228" height="52" rx="26" fill="#3993D6"/>
<rect x="77.5" y="289.5" width="227" height="51" rx="25.5" stroke="white"/>
</g>
<path d="M167.337 323.228C166.501 323.228 165.684 323.076 164.886 322.772C164.088 322.455 163.385 322.006 162.777 321.423L164.278 319.637C164.734 320.042 165.234 320.365 165.779 320.606C166.336 320.847 166.874 320.967 167.394 320.967C168.002 320.967 168.464 320.853 168.781 320.625C169.11 320.384 169.275 320.055 169.275 319.637C169.275 319.371 169.199 319.149 169.047 318.972C168.907 318.795 168.724 318.649 168.496 318.535C168.28 318.421 167.926 318.263 167.432 318.06L165.798 317.357C165.063 317.053 164.461 316.629 163.993 316.084C163.524 315.527 163.29 314.83 163.29 313.994C163.29 313.323 163.473 312.715 163.841 312.17C164.221 311.613 164.74 311.176 165.399 310.859C166.057 310.53 166.798 310.365 167.622 310.365C168.344 310.365 169.053 310.511 169.75 310.802C170.446 311.081 171.048 311.473 171.555 311.98L170.244 313.633C169.813 313.291 169.389 313.038 168.971 312.873C168.553 312.708 168.103 312.626 167.622 312.626C167.102 312.626 166.691 312.734 166.387 312.949C166.083 313.164 165.931 313.462 165.931 313.842C165.931 314.108 166.007 314.33 166.159 314.507C166.323 314.684 166.52 314.83 166.748 314.944C166.988 315.058 167.356 315.216 167.85 315.419L169.446 316.065C170.244 316.394 170.858 316.831 171.289 317.376C171.719 317.908 171.935 318.592 171.935 319.428C171.935 320.125 171.751 320.764 171.384 321.347C171.016 321.917 170.484 322.373 169.788 322.715C169.091 323.057 168.274 323.228 167.337 323.228ZM181.658 317.87C181.658 318.351 181.62 318.744 181.544 319.048H175.73C175.857 319.795 176.161 320.346 176.642 320.701C177.136 321.056 177.706 321.233 178.352 321.233C179.024 321.233 179.72 321.024 180.442 320.606L181.297 322.183C180.829 322.512 180.303 322.772 179.72 322.962C179.15 323.139 178.58 323.228 178.01 323.228C177.124 323.228 176.319 323.032 175.597 322.639C174.888 322.246 174.324 321.676 173.906 320.929C173.501 320.182 173.298 319.308 173.298 318.307C173.298 317.319 173.501 316.451 173.906 315.704C174.324 314.957 174.869 314.38 175.54 313.975C176.212 313.57 176.927 313.367 177.687 313.367C178.967 313.367 179.948 313.785 180.632 314.621C181.316 315.444 181.658 316.527 181.658 317.87ZM179.435 317.319C179.435 316.711 179.296 316.236 179.017 315.894C178.739 315.539 178.314 315.362 177.744 315.362C177.276 315.362 176.858 315.527 176.49 315.856C176.136 316.173 175.895 316.66 175.768 317.319H179.435ZM185.742 323.228C184.906 323.228 184.229 322.962 183.709 322.43C183.203 321.898 182.949 321.227 182.949 320.416C182.949 319.415 183.374 318.643 184.222 318.098C185.071 317.541 186.433 317.161 188.307 316.958C188.269 315.945 187.75 315.438 186.749 315.438C186.357 315.438 185.958 315.514 185.552 315.666C185.147 315.818 184.704 316.033 184.222 316.312L183.291 314.602C184.621 313.779 185.939 313.367 187.243 313.367C188.447 313.367 189.359 313.722 189.979 314.431C190.6 315.128 190.91 316.173 190.91 317.566V323H188.782L188.592 322.012H188.535C187.598 322.823 186.667 323.228 185.742 323.228ZM186.597 321.214C186.914 321.214 187.199 321.144 187.452 321.005C187.718 320.853 188.003 320.631 188.307 320.34V318.535C187.281 318.674 186.547 318.883 186.103 319.162C185.66 319.441 185.438 319.789 185.438 320.207C185.438 320.536 185.54 320.79 185.742 320.967C185.945 321.132 186.23 321.214 186.597 321.214ZM193.369 313.595H195.478L195.668 315.248H195.744C196.073 314.64 196.472 314.178 196.941 313.861C197.422 313.532 197.91 313.367 198.404 313.367C198.847 313.367 199.215 313.43 199.506 313.557L199.069 315.799C199.031 315.786 198.917 315.761 198.727 315.723C198.537 315.672 198.322 315.647 198.081 315.647C197.676 315.647 197.283 315.793 196.903 316.084C196.523 316.375 196.206 316.831 195.953 317.452V323H193.369V313.595ZM204.596 323.228C203.722 323.228 202.937 323.032 202.24 322.639C201.544 322.246 200.993 321.683 200.587 320.948C200.195 320.201 199.998 319.32 199.998 318.307C199.998 317.294 200.214 316.413 200.644 315.666C201.088 314.919 201.677 314.349 202.411 313.956C203.146 313.563 203.95 313.367 204.824 313.367C205.85 313.367 206.769 313.709 207.579 314.393L206.344 316.065C206.104 315.862 205.876 315.717 205.66 315.628C205.445 315.527 205.217 315.476 204.976 315.476C204.28 315.476 203.716 315.736 203.285 316.255C202.867 316.762 202.658 317.446 202.658 318.307C202.658 319.156 202.861 319.84 203.266 320.359C203.684 320.866 204.223 321.119 204.881 321.119C205.451 321.119 206.047 320.878 206.667 320.397L207.693 322.088C207.25 322.468 206.756 322.753 206.211 322.943C205.679 323.133 205.141 323.228 204.596 323.228ZM209.419 309.643H212.003V312.968L211.889 314.716C212.332 314.298 212.788 313.969 213.257 313.728C213.726 313.487 214.251 313.367 214.834 313.367C215.822 313.367 216.55 313.696 217.019 314.355C217.5 315.001 217.741 315.932 217.741 317.148V323H215.138V317.471C215.138 316.774 215.037 316.287 214.834 316.008C214.644 315.729 214.327 315.59 213.884 315.59C213.529 315.59 213.219 315.666 212.953 315.818C212.687 315.97 212.37 316.223 212.003 316.578V323H209.419V309.643Z" fill="white"/>
<defs>
<filter id="filter0_d" x="0" y="0" width="376" height="83" filterUnits="userSpaceOnUse" color-interpolation-filters="sRGB">
<feFlood flood-opacity="0" result="BackgroundImageFix"/>
<feColorMatrix in="SourceAlpha" type="matrix" values="0 0 0 0 0 0 0 0 0 0 0 0 0 0 0 0 0 0 127 0" result="hardAlpha"/>
<feOffset/>
<feGaussianBlur stdDeviation="7.5"/>
<feColorMatrix type="matrix" values="0 0 0 0 0 0 0 0 0 0 0 0 0 0 0 0 0 0 0.1 0"/>
<feBlend mode="normal" in2="BackgroundImageFix" result="effect1_dropShadow"/>
<feBlend mode="normal" in="SourceGraphic" in2="effect1_dropShadow" result="shape"/>
</filter>
<filter id="filter1_d" x="294" y="5" width="81" height="81" filterUnits="userSpaceOnUse" color-interpolation-filters="sRGB">
<feFlood flood-opacity="0" result="BackgroundImageFix"/>
<feColorMatrix in="SourceAlpha" type="matrix" values="0 0 0 0 0 0 0 0 0 0 0 0 0 0 0 0 0 0 127 0" result="hardAlpha"/>
<feOffset dx="4" dy="4"/>
<feGaussianBlur stdDeviation="12.5"/>
<feColorMatrix type="matrix" values="0 0 0 0 0 0 0 0 0 0 0 0 0 0 0 0 0 0 0.19 0"/>
<feBlend mode="normal" in2="BackgroundImageFix" result="effect1_dropShadow"/>
<feBlend mode="normal" in="SourceGraphic" in2="effect1_dropShadow" result="shape"/>
</filter>
<filter id="filter2_d" x="0" y="64" width="376" height="83" filterUnits="userSpaceOnUse" color-interpolation-filters="sRGB">
<feFlood flood-opacity="0" result="BackgroundImageFix"/>
<feColorMatrix in="SourceAlpha" type="matrix" values="0 0 0 0 0 0 0 0 0 0 0 0 0 0 0 0 0 0 127 0" result="hardAlpha"/>
<feOffset/>
<feGaussianBlur stdDeviation="7.5"/>
<feColorMatrix type="matrix" values="0 0 0 0 0 0 0 0 0 0 0 0 0 0 0 0 0 0 0.1 0"/>
<feBlend mode="normal" in2="BackgroundImageFix" result="effect1_dropShadow"/>
<feBlend mode="normal" in="SourceGraphic" in2="effect1_dropShadow" result="shape"/>
</filter>
<filter id="filter3_d" x="294" y="69" width="81" height="81" filterUnits="userSpaceOnUse" color-interpolation-filters="sRGB">
<feFlood flood-opacity="0" result="BackgroundImageFix"/>
<feColorMatrix in="SourceAlpha" type="matrix" values="0 0 0 0 0 0 0 0 0 0 0 0 0 0 0 0 0 0 127 0" result="hardAlpha"/>
<feOffset dx="4" dy="4"/>
<feGaussianBlur stdDeviation="12.5"/>
<feColorMatrix type="matrix" values="0 0 0 0 0 0 0 0 0 0 0 0 0 0 0 0 0 0 0.19 0"/>
<feBlend mode="normal" in2="BackgroundImageFix" result="effect1_dropShadow"/>
<feBlend mode="normal" in="SourceGraphic" in2="effect1_dropShadow" result="shape"/>
</filter>
<filter id="filter4_d" x="0" y="128" width="376" height="83" filterUnits="userSpaceOnUse" color-interpolation-filters="sRGB">
<feFlood flood-opacity="0" result="BackgroundImageFix"/>
<feColorMatrix in="SourceAlpha" type="matrix" values="0 0 0 0 0 0 0 0 0 0 0 0 0 0 0 0 0 0 127 0" result="hardAlpha"/>
<feOffset/>
<feGaussianBlur stdDeviation="7.5"/>
<feColorMatrix type="matrix" values="0 0 0 0 0 0 0 0 0 0 0 0 0 0 0 0 0 0 0.1 0"/>
<feBlend mode="normal" in2="BackgroundImageFix" result="effect1_dropShadow"/>
<feBlend mode="normal" in="SourceGraphic" in2="effect1_dropShadow" result="shape"/>
</filter>
<filter id="filter5_d" x="294" y="133" width="81" height="81" filterUnits="userSpaceOnUse" color-interpolation-filters="sRGB">
<feFlood flood-opacity="0" result="BackgroundImageFix"/>
<feColorMatrix in="SourceAlpha" type="matrix" values="0 0 0 0 0 0 0 0 0 0 0 0 0 0 0 0 0 0 127 0" result="hardAlpha"/>
<feOffset dx="4" dy="4"/>
<feGaussianBlur stdDeviation="12.5"/>
<feColorMatrix type="matrix" values="0 0 0 0 0 0 0 0 0 0 0 0 0 0 0 0 0 0 0.19 0"/>
<feBlend mode="normal" in2="BackgroundImageFix" result="effect1_dropShadow"/>
<feBlend mode="normal" in="SourceGraphic" in2="effect1_dropShadow" result="shape"/>
</filter>
<filter id="filter6_d" x="0" y="192" width="376" height="83" filterUnits="userSpaceOnUse" color-interpolation-filters="sRGB">
<feFlood flood-opacity="0" result="BackgroundImageFix"/>
<feColorMatrix in="SourceAlpha" type="matrix" values="0 0 0 0 0 0 0 0 0 0 0 0 0 0 0 0 0 0 127 0" result="hardAlpha"/>
<feOffset/>
<feGaussianBlur stdDeviation="7.5"/>
<feColorMatrix type="matrix" values="0 0 0 0 0 0 0 0 0 0 0 0 0 0 0 0 0 0 0.1 0"/>
<feBlend mode="normal" in2="BackgroundImageFix" result="effect1_dropShadow"/>
<feBlend mode="normal" in="SourceGraphic" in2="effect1_dropShadow" result="shape"/>
</filter>
<filter id="filter7_d" x="294" y="197" width="81" height="81" filterUnits="userSpaceOnUse" color-interpolation-filters="sRGB">
<feFlood flood-opacity="0" result="BackgroundImageFix"/>
<feColorMatrix in="SourceAlpha" type="matrix" values="0 0 0 0 0 0 0 0 0 0 0 0 0 0 0 0 0 0 127 0" result="hardAlpha"/>
<feOffset dx="4" dy="4"/>
<feGaussianBlur stdDeviation="12.5"/>
<feColorMatrix type="matrix" values="0 0 0 0 0 0 0 0 0 0 0 0 0 0 0 0 0 0 0.19 0"/>
<feBlend mode="normal" in2="BackgroundImageFix" result="effect1_dropShadow"/>
<feBlend mode="normal" in="SourceGraphic" in2="effect1_dropShadow" result="shape"/>
</filter>
<filter id="filter8_d" x="57" y="280" width="268" height="92" filterUnits="userSpaceOnUse" color-interpolation-filters="sRGB">
<feFlood flood-opacity="0" result="BackgroundImageFix"/>
<feColorMatrix in="SourceAlpha" type="matrix" values="0 0 0 0 0 0 0 0 0 0 0 0 0 0 0 0 0 0 127 0" result="hardAlpha"/>
<feOffset dy="11"/>
<feGaussianBlur stdDeviation="10"/>
<feColorMatrix type="matrix" values="0 0 0 0 0 0 0 0 0 0 0 0 0 0 0 0 0 0 0.15 0"/>
<feBlend mode="normal" in2="BackgroundImageFix" result="effect1_dropShadow"/>
<feBlend mode="normal" in="SourceGraphic" in2="effect1_dropShadow" result="shape"/>
</filter>
</defs>
</svg>
