<svg width="121" height="23" viewBox="0 0 121 23" fill="none" xmlns="http://www.w3.org/2000/svg">
<path d="M77.014 13.1522L75.4481 11.6965V11.6965C74.2106 10.5461 74.8838 8.47405 76.5612 8.27075L79.7015 7.89016C80.3883 7.80691 80.9834 7.37459 81.2748 6.74709L82.5942 3.90593C83.311 2.36246 85.5053 2.36246 86.2221 3.90593L87.5416 6.74709C87.833 7.37459 88.428 7.80691 89.1149 7.89016L92.2247 8.26706C93.9141 8.47182 94.5922 10.5587 93.3458 11.7174L91.0514 13.8502C90.5447 14.3213 90.3174 15.0208 90.4505 15.6997L91.053 18.7738C91.3803 20.4438 89.6051 21.7336 88.118 20.9062L85.3805 19.3833C84.7759 19.0469 84.0404 19.0469 83.4358 19.3833L80.6984 20.9062C79.2113 21.7336 77.436 20.4438 77.7634 18.7738L78.1217 16.9457L78.3508 15.7768" stroke="#0250B7" stroke-width="1.65635" stroke-miterlimit="22.9256" stroke-linecap="round" stroke-linejoin="round"/>
<path d="M85.3151 5.29866C84.9567 4.52693 83.8595 4.52693 83.5011 5.29867L81.9883 8.55626C81.8426 8.87001 81.5451 9.08617 81.2016 9.12779L77.636 9.55994C76.7913 9.66232 76.4522 10.7058 77.0754 11.2851L79.7061 13.7306C79.9595 13.9661 80.0731 14.3158 80.0066 14.6553L79.3157 18.18C79.1521 19.015 80.0397 19.6599 80.7832 19.2462L83.9219 17.5C84.2242 17.3318 84.592 17.3318 84.8943 17.5L88.033 19.2462C88.7765 19.6599 89.6641 19.015 89.5005 18.18L88.8096 14.6553C88.7431 14.3158 88.8567 13.9661 89.1101 13.7306L91.7407 11.2851C92.364 10.7058 92.0249 9.66232 91.1802 9.55994L87.6146 9.12779C87.2711 9.08617 86.9736 8.87001 86.8279 8.55626L85.3151 5.29866Z" fill="#C1C1C1"/>
<path d="M101.014 13.1522L99.4481 11.6965V11.6965C98.2106 10.5461 98.8838 8.47405 100.561 8.27075L103.701 7.89016C104.388 7.80691 104.983 7.37459 105.275 6.74709L106.594 3.90593C107.311 2.36246 109.505 2.36246 110.222 3.90593L111.542 6.74709C111.833 7.37459 112.428 7.80691 113.115 7.89016L116.225 8.26706C117.914 8.47182 118.592 10.5587 117.346 11.7174L115.051 13.8502C114.545 14.3213 114.317 15.0208 114.45 15.6997L115.053 18.7738C115.38 20.4438 113.605 21.7336 112.118 20.9062L109.381 19.3833C108.776 19.0469 108.04 19.0469 107.436 19.3833L104.698 20.9062C103.211 21.7336 101.436 20.4438 101.763 18.7738L102.122 16.9457L102.351 15.7768" stroke="#0250B7" stroke-width="1.65635" stroke-miterlimit="22.9256" stroke-linecap="round" stroke-linejoin="round"/>
<path d="M109.315 5.29866C108.957 4.52693 107.86 4.52693 107.501 5.29867L105.988 8.55626C105.843 8.87001 105.545 9.08617 105.202 9.12779L101.636 9.55994C100.791 9.66232 100.452 10.7058 101.075 11.2851L103.706 13.7306C103.959 13.9661 104.073 14.3158 104.007 14.6553L103.316 18.18C103.152 19.015 104.04 19.6599 104.783 19.2462L107.922 17.5C108.224 17.3318 108.592 17.3318 108.894 17.5L112.033 19.2462C112.777 19.6599 113.664 19.015 113.5 18.18L112.81 14.6553C112.743 14.3158 112.857 13.9661 113.11 13.7306L115.741 11.2851C116.364 10.7058 116.025 9.66232 115.18 9.55994L111.615 9.12779C111.271 9.08617 110.974 8.87001 110.828 8.55626L109.315 5.29866Z" fill="#C1C1C1"/>
<path d="M52.8773 13.1522L51.3114 11.6965V11.6965C50.0739 10.5461 50.7471 8.47405 52.4245 8.27075L55.5648 7.89016C56.2516 7.80691 56.8467 7.37459 57.1381 6.74709L58.4575 3.90593C59.1743 2.36246 61.3686 2.36246 62.0854 3.90593L63.4049 6.74709C63.6963 7.37459 64.2913 7.80691 64.9782 7.89016L68.088 8.26706C69.7774 8.47182 70.4555 10.5587 69.2091 11.7174L66.9147 13.8502C66.408 14.3213 66.1807 15.0208 66.3137 15.6997L66.9163 18.7738C67.2436 20.4438 65.4684 21.7336 63.9813 20.9062L61.2438 19.3833C60.6392 19.0469 59.9037 19.0469 59.2991 19.3833L56.5617 20.9062C55.0745 21.7336 53.2993 20.4438 53.6267 18.7738L53.985 16.9457L54.2141 15.7768" stroke="#0250B7" stroke-width="1.65635" stroke-miterlimit="22.9256" stroke-linecap="round" stroke-linejoin="round"/>
<path d="M61.1783 5.29866C60.8199 4.52693 59.7228 4.52693 59.3644 5.29867L57.8516 8.55626C57.7059 8.87001 57.4083 9.08617 57.0649 9.12779L53.4993 9.55994C52.6545 9.66232 52.3155 10.7058 52.9387 11.2851L55.5694 13.7306C55.8228 13.9661 55.9364 14.3158 55.8699 14.6553L55.179 18.18C55.0153 19.015 55.903 19.6599 56.6465 19.2462L59.7852 17.5C60.0875 17.3318 60.4553 17.3318 60.7576 17.5L63.8962 19.2462C64.6398 19.6599 65.5274 19.015 65.3637 18.18L64.6729 14.6553C64.6064 14.3158 64.72 13.9661 64.9734 13.7306L67.604 11.2851C68.2272 10.7058 67.8882 9.66232 67.0435 9.55994L63.4778 9.12779C63.1344 9.08617 62.8369 8.87001 62.6912 8.55626L61.1783 5.29866Z" fill="#C1C1C1"/>
<path d="M28.7875 13.1522L27.2216 11.6965V11.6965C25.984 10.5461 26.6573 8.47405 28.3347 8.27075L31.4749 7.89016C32.1618 7.80691 32.7568 7.37459 33.0482 6.74709L34.3677 3.90593C35.0845 2.36246 37.2788 2.36246 37.9956 3.90593L39.315 6.74709C39.6064 7.37459 40.2015 7.80691 40.8883 7.89016L43.9981 8.26706C45.6876 8.47182 46.3656 10.5587 45.1192 11.7174L42.8248 13.8502C42.3181 14.3213 42.0908 15.0208 42.2239 15.6997L42.8264 18.7738C43.1538 20.4438 41.3785 21.7336 39.8914 20.9062L37.154 19.3833C36.5494 19.0469 35.8139 19.0469 35.2093 19.3833L32.4718 20.9062C30.9847 21.7336 29.2095 20.4438 29.5368 18.7738L29.8951 16.9457L30.1242 15.7768" stroke="#0250B7" stroke-width="1.65635" stroke-miterlimit="22.9256" stroke-linecap="round" stroke-linejoin="round"/>
<path d="M37.0885 5.29866C36.7301 4.52693 35.633 4.52693 35.2746 5.29867L33.7617 8.55626C33.616 8.87001 33.3185 9.08617 32.9751 9.12779L29.4094 9.55994C28.5647 9.66232 28.2257 10.7058 28.8489 11.2851L31.4795 13.7306C31.7329 13.9661 31.8466 14.3158 31.78 14.6553L31.0892 18.18C30.9255 19.015 31.8131 19.6599 32.5567 19.2462L35.6954 17.5C35.9977 17.3318 36.3654 17.3318 36.6677 17.5L39.8064 19.2462C40.55 19.6599 41.4376 19.015 41.2739 18.18L40.583 14.6553C40.5165 14.3158 40.6301 13.9661 40.8835 13.7306L43.5142 11.2851C44.1374 10.7058 43.7984 9.66232 42.9536 9.55994L39.388 9.12779C39.0446 9.08617 38.7471 8.87001 38.6013 8.55626L37.0885 5.29866Z" fill="#C1C1C1"/>
<path d="M4.69763 13.1522L3.13174 11.6965V11.6965C1.89419 10.5461 2.56744 8.47405 4.24484 8.27075L7.38509 7.89016C8.07194 7.80691 8.66697 7.37459 8.95839 6.74709L10.2778 3.90593C10.9946 2.36246 13.1889 2.36246 13.9057 3.90593L15.2252 6.74709C15.5166 7.37459 16.1116 7.80691 16.7985 7.89016L19.9083 8.26706C21.5977 8.47182 22.2758 10.5587 21.0294 11.7174L18.735 13.8502C18.2283 14.3213 18.001 15.0208 18.1341 15.6997L18.7366 18.7738C19.0639 20.4438 17.2887 21.7336 15.8016 20.9062L13.0641 19.3833C12.4595 19.0469 11.724 19.0469 11.1194 19.3833L8.38197 20.9062C6.89485 21.7336 5.11964 20.4438 5.44697 18.7738L5.80529 16.9457L6.0344 15.7768" stroke="#0250B7" stroke-width="1.65635" stroke-miterlimit="22.9256" stroke-linecap="round" stroke-linejoin="round"/>
<path d="M12.9987 5.29866C12.6403 4.52693 11.5431 4.52693 11.1847 5.29867L9.67187 8.55626C9.52617 8.87001 9.22865 9.08617 8.88522 9.12779L5.31957 9.55994C4.47486 9.66232 4.13583 10.7058 4.75904 11.2851L7.3897 13.7306C7.64307 13.9661 7.75671 14.3158 7.69017 14.6553L6.99932 18.18C6.83566 19.015 7.72327 19.6599 8.46683 19.2462L11.6055 17.5C11.9078 17.3318 12.2756 17.3318 12.5779 17.5L15.7165 19.2462C16.4601 19.6599 17.3477 19.015 17.184 18.18L16.4932 14.6553C16.4267 14.3158 16.5403 13.9661 16.7937 13.7306L19.4243 11.2851C20.0475 10.7058 19.7085 9.66232 18.8638 9.55994L15.2981 9.12779C14.9547 9.08617 14.6572 8.87001 14.5115 8.55626L12.9987 5.29866Z" fill="#FFCC00"/>
</svg>
