<svg width="37" height="35" viewBox="0 0 37 35" fill="none" xmlns="http://www.w3.org/2000/svg">
<path d="M29.1902 19.6547L31.5303 17.4793L33.0562 16.0608C34.3027 14.9022 33.6246 12.8153 31.9352 12.6105L24.628 11.7249C23.9411 11.6417 23.3461 11.2093 23.0547 10.5818L19.9543 3.90593C19.2375 2.36246 17.0432 2.36246 16.3265 3.90593L13.2261 10.5818C12.9347 11.2093 12.3397 11.6417 11.6528 11.7249L4.34561 12.6105C2.65618 12.8153 1.97812 14.9022 3.22454 16.0608L8.61564 21.0724C9.12238 21.5434 9.34967 22.243 9.21659 22.9219L7.80081 30.1452C7.47348 31.8152 9.24869 33.1049 10.7358 32.2776L17.168 28.699C17.7726 28.3626 18.5081 28.3626 19.1127 28.699L25.545 32.2776C27.0321 33.1049 28.8073 31.8152 28.48 30.1452L27.535 25.3237L27.1926 23.5769" stroke="#0250B7" stroke-width="1.65635" stroke-miterlimit="22.9256" stroke-linecap="round" stroke-linejoin="round"/>
<path d="M17.2337 6.95296C17.5921 6.18123 18.6892 6.18123 19.0476 6.95296L21.8727 13.0362C22.0184 13.3499 22.3159 13.5661 22.6593 13.6077L29.3178 14.4147C30.1625 14.5171 30.5015 15.5605 29.8783 16.1398L24.9658 20.7065C24.7125 20.942 24.5988 21.2917 24.6654 21.6312L25.9554 28.2132C26.1191 29.0482 25.2315 29.693 24.4879 29.2794L18.6268 26.0185C18.3245 25.8503 17.9567 25.8503 17.6544 26.0185L11.7933 29.2794C11.0497 29.693 10.1621 29.0482 10.3258 28.2132L11.6159 21.6312C11.6824 21.2917 11.5688 20.942 11.3154 20.7065L6.40294 16.1398C5.77973 15.5605 6.11877 14.5171 6.96348 14.4147L13.6219 13.6077C13.9654 13.5661 14.2629 13.3499 14.4086 13.0362L17.2337 6.95296Z" fill="#FFCC00"/>
</svg>
