<svg width="37" height="35" viewBox="0 0 37 35" fill="none" xmlns="http://www.w3.org/2000/svg">
<path d="M29.1199 19.6547L31.46 17.4793L32.9859 16.0608C34.2324 14.9022 33.5543 12.8153 31.8649 12.6105L24.5576 11.7249C23.8708 11.6417 23.2758 11.2093 22.9843 10.5818L19.884 3.90593C19.1672 2.36246 16.9729 2.36246 16.2561 3.90593L13.1558 10.5818C12.8644 11.2093 12.2694 11.6417 11.5825 11.7249L4.27529 12.6105C2.58587 12.8153 1.9078 14.9022 3.15422 16.0608L8.54533 21.0724C9.05207 21.5434 9.27935 22.243 9.14628 22.9219L7.7305 30.1452C7.40317 31.8152 9.17838 33.1049 10.6655 32.2776L17.0977 28.699C17.7023 28.3626 18.4378 28.3626 19.0424 28.699L25.4746 32.2776C26.9618 33.1049 28.737 31.8152 28.4097 30.1452L27.4646 25.3237L27.1222 23.5769" stroke="#0250B7" stroke-width="1.65635" stroke-miterlimit="22.9256" stroke-linecap="round" stroke-linejoin="round"/>
<path d="M17.1633 6.95296C17.5217 6.18123 18.6189 6.18123 18.9773 6.95296L21.8024 13.0362C21.9481 13.3499 22.2456 13.5661 22.589 13.6077L29.2475 14.4147C30.0922 14.5171 30.4312 15.5605 29.808 16.1398L24.8955 20.7065C24.6422 20.942 24.5285 21.2917 24.5951 21.6312L25.8851 28.2132C26.0488 29.0482 25.1612 29.693 24.4176 29.2794L18.5565 26.0185C18.2542 25.8503 17.8864 25.8503 17.5841 26.0185L11.723 29.2794C10.9794 29.693 10.0918 29.0482 10.2555 28.2132L11.5456 21.6312C11.6121 21.2917 11.4985 20.942 11.2451 20.7065L6.33263 16.1398C5.70942 15.5605 6.04846 14.5171 6.89317 14.4147L13.5516 13.6077C13.895 13.5661 14.1926 13.3499 14.3383 13.0362L17.1633 6.95296Z" fill="#C1C1C1"/>
</svg>
