<svg width="23" height="23" viewBox="0 0 23 23" fill="none" xmlns="http://www.w3.org/2000/svg">
<path d="M11.4997 16.2913C14.146 16.2913 16.2913 14.146 16.2913 11.4997C16.2913 8.85331 14.146 6.70801 11.4997 6.70801C8.85331 6.70801 6.70801 8.85331 6.70801 11.4997C6.70801 14.146 8.85331 16.2913 11.4997 16.2913Z" fill="#C4C4C4"/>
<path d="M22.0417 10.5417H21.0345C20.584 6.02121 16.9788 2.41596 12.4583 1.96554V0.958333C12.4583 0.429333 12.03 0 11.5 0C10.97 0 10.5417 0.429333 10.5417 0.958333V1.96554C6.02121 2.41596 2.41596 6.02121 1.96554 10.5417H0.958333C0.428375 10.5417 0 10.971 0 11.5C0 12.029 0.428375 12.4583 0.958333 12.4583H1.96554C2.41692 16.9788 6.02121 20.584 10.5417 21.0345V22.0417C10.5417 22.5707 10.97 23 11.5 23C12.03 23 12.4583 22.5707 12.4583 22.0417V21.0345C16.9788 20.5831 20.584 16.9788 21.0345 12.4583H22.0417C22.5716 12.4583 23 12.029 23 11.5C23 10.971 22.5716 10.5417 22.0417 10.5417ZM12.4449 19.1025C12.4104 18.6051 12.007 18.2083 11.5 18.2083C10.993 18.2083 10.5896 18.6051 10.5551 19.1025C7.084 18.6731 4.32783 15.917 3.8985 12.4459C4.39587 12.4104 4.79167 12.006 4.79167 11.5C4.79167 10.994 4.39587 10.5896 3.89754 10.5551C4.32687 7.084 7.08304 4.32783 10.5541 3.8985C10.5896 4.39492 10.993 4.79167 11.5 4.79167C12.007 4.79167 12.4104 4.39492 12.4449 3.89754C15.916 4.32687 18.6722 7.08304 19.1015 10.5541C18.6041 10.5896 18.2083 10.994 18.2083 11.5C18.2083 12.006 18.6041 12.4104 19.1025 12.4449C18.6722 15.917 15.917 18.6722 12.4449 19.1025Z" fill="#C4C4C4"/>
</svg>
