<svg width="14" height="14" viewBox="0 0 14 14" fill="none" xmlns="http://www.w3.org/2000/svg">
<g clip-path="url(#clip0)">
<path d="M1.02083 13.4168H2.47917C3.04208 13.4168 3.5 12.9589 3.5 12.396V5.68764C3.5 5.12473 3.04208 4.66681 2.47917 4.66681H1.02083C0.457917 4.66681 0 5.12473 0 5.68764V12.396C0 12.9589 0.457917 13.4168 1.02083 13.4168Z" fill="#00BA31"/>
<path d="M7.58058 0.4375C6.99725 0.4375 6.70558 0.729167 6.70558 2.1875C6.70558 3.5735 5.36333 4.68883 4.5 5.26342V12.4897C5.43392 12.922 7.3035 13.5625 10.2056 13.5625H11.1389C12.2764 13.5625 13.2447 12.7458 13.4372 11.6258L14.0906 7.83417C14.3356 6.405 13.2389 5.10417 11.7922 5.10417H9.03892C9.03892 5.10417 9.47642 4.22917 9.47642 2.77083C9.47642 1.02083 8.16392 0.4375 7.58058 0.4375V0.4375Z" fill="#00BA31"/>
</g>
<defs>
<clipPath id="clip0">
<rect width="14" height="14" fill="white"/>
</clipPath>
</defs>
</svg>
